<svg width="204" height="1951" viewBox="0 0 204 1951" fill="none" xmlns="http://www.w3.org/2000/svg">
<path d="M175 53V159.617C173.173 177.47 156.169 213.967 102.765 217.141C49.361 220.315 36.6742 260.119 37.0063 279.624V355M175 735V841.617C173.173 859.47 156.169 895.967 102.765 899.141C49.361 902.315 36.6742 942.119 37.0063 961.624V1037M39 1090V1196.62C40.8266 1214.47 57.8309 1250.97 111.235 1254.14C164.639 1257.31 177.326 1297.12 176.994 1316.62V1392M39.0003 405L39.0002 508C40.8269 525.852 55.0958 552.709 108.5 555.883C161.904 559.056 174.591 602.478 174.259 621.983V685.5M175 1442.5V1849.5C173.833 1872 159.1 1917.2 109.5 1918H63.5M201 28.5C201 42.5833 189.583 54 175.5 54C161.417 54 150 42.5833 150 28.5C150 14.4167 161.417 3 175.5 3C189.583 3 201 14.4167 201 28.5ZM201 710.5C201 724.583 189.583 736 175.5 736C161.417 736 150 724.583 150 710.5C150 696.417 161.417 685 175.5 685C189.583 685 201 696.417 201 710.5ZM13 1065.5C13 1079.58 24.4168 1091 38.5 1091C52.5833 1091 64 1079.58 64 1065.5C64 1051.42 52.5833 1040 38.5 1040C24.4168 1040 13 1051.42 13 1065.5ZM13.0003 380.5C13.0003 394.583 24.4171 406 38.5003 406C52.5836 406 64.0005 394.583 64.0005 380.5C64.0005 366.417 52.5836 355 38.5003 355C24.4171 355 13.0003 366.417 13.0003 380.5ZM201 1417C201 1431.08 189.583 1442.5 175.5 1442.5C161.417 1442.5 150 1431.08 150 1417C150 1402.92 161.417 1391.5 175.5 1391.5C189.583 1391.5 201 1402.92 201 1417ZM64 1922C64 1936.08 52.5833 1947.5 38.5 1947.5C24.4167 1947.5 13 1936.08 13 1922C13 1907.92 24.4167 1896.5 38.5 1896.5C52.5833 1896.5 64 1907.92 64 1922Z" stroke="url(#paint0_linear_82_1267)" stroke-width="6"/>
<path d="M88.65 1074.91V1072.27H92.07V1073.86L93.21 1075H99.75L100.95 1073.8V1069.93L99.78 1068.76H91.8L88.71 1065.7V1060.09L91.8 1057H101.04L104.13 1060.09V1062.76H100.71V1061.14L99.54 1060H93.3L92.13 1061.14V1064.62L93.3 1065.76H101.28L104.37 1068.85V1074.85L101.22 1078H91.74L88.65 1074.91ZM115.305 1059.97H109.005V1057H125.085V1059.97H118.785V1078H115.305V1059.97ZM131.091 1057H145.731V1059.97H134.571V1065.97H144.861V1068.91H134.571V1075.03H145.731V1078H131.091V1057ZM152.32 1057H165.1L168.16 1060.09V1067.23L165.07 1070.35H155.8V1078H152.32V1057ZM163.54 1067.41L164.74 1066.21V1061.14L163.54 1059.94H155.8V1067.41H163.54ZM194.482 1073.98H184.282V1070.05L193.492 1057H197.962V1070.98H200.512V1073.98H197.962V1078H194.482V1073.98ZM194.602 1071.07V1060.69H194.452L187.672 1070.38V1071.07H194.602Z" fill="white"/>
<path d="M1.65 1424.91V1422.27H5.07V1423.86L6.21 1425H12.75L13.95 1423.8V1419.93L12.78 1418.76H4.8L1.71 1415.7V1410.09L4.8 1407H14.04L17.13 1410.09V1412.76H13.71V1411.14L12.54 1410H6.3L5.13 1411.14V1414.62L6.3 1415.76H14.28L17.37 1418.85V1424.85L14.22 1428H4.74L1.65 1424.91ZM28.3055 1409.97H22.0055V1407H38.0855V1409.97H31.7855V1428H28.3055V1409.97ZM44.0906 1407H58.7306V1409.97H47.5706V1415.97H57.8606V1418.91H47.5706V1425.03H58.7306V1428H44.0906V1407ZM65.3203 1407H78.1003L81.1603 1410.09V1417.23L78.0703 1420.35H68.8003V1428H65.3203V1407ZM76.5403 1417.41L77.7403 1416.21V1411.14L76.5403 1409.94H68.8003V1417.41H76.5403ZM98.332 1424.91V1421.85H101.812V1423.86L102.982 1425H108.622L109.792 1423.86V1418.7L108.622 1417.53H98.632V1407H112.852V1410H102.052V1414.53H110.152L113.272 1417.65V1424.91L110.182 1428H101.422L98.332 1424.91Z" fill="white"/>
<path d="M88.65 390.91V388.27H92.07V389.86L93.21 391H99.75L100.95 389.8V385.93L99.78 384.76H91.8L88.71 381.7V376.09L91.8 373H101.04L104.13 376.09V378.76H100.71V377.14L99.54 376H93.3L92.13 377.14V380.62L93.3 381.76H101.28L104.37 384.85V390.85L101.22 394H91.74L88.65 390.91ZM115.305 375.97H109.005V373H125.085V375.97H118.785V394H115.305V375.97ZM131.091 373H145.731V375.97H134.571V381.97H144.861V384.91H134.571V391.03H145.731V394H131.091V373ZM152.32 373H165.1L168.16 376.09V383.23L165.07 386.35H155.8V394H152.32V373ZM163.54 383.41L164.74 382.21V377.14L163.54 375.94H155.8V383.41H163.54ZM185.152 389.59L196.012 379.45V377.14L194.842 376H189.682L188.512 377.14V379.09H185.032V376.09L188.122 373H196.402L199.492 376.09V380.47L188.722 390.4V391.03H199.612V394H185.152V389.59Z" fill="white"/>
<path d="M8.65 36.91V34.27H12.07V35.86L13.21 37H19.75L20.95 35.8V31.93L19.78 30.76H11.8L8.71 27.7V22.09L11.8 19H21.04L24.13 22.09V24.76H20.71V23.14L19.54 22H13.3L12.13 23.14V26.62L13.3 27.76H21.28L24.37 30.85V36.85L21.22 40H11.74L8.65 36.91ZM35.3055 21.97H29.0055V19H45.0855V21.97H38.7855V40H35.3055V21.97ZM51.0906 19H65.7306V21.97H54.5706V27.97H64.8606V30.91H54.5706V37.03H65.7306V40H51.0906V19ZM72.3203 19H85.1003L88.1603 22.09V29.23L85.0703 32.35H75.8003V40H72.3203V19ZM83.5403 29.41L84.7403 28.21V23.14L83.5403 21.94H75.8003V29.41H83.5403ZM109.322 22.69L104.732 25.06V21.85L109.922 19H112.802V40H109.322V22.69Z" fill="white"/>
<path d="M1.65 720.91V718.27H5.07V719.86L6.21 721H12.75L13.95 719.8V715.93L12.78 714.76H4.8L1.71 711.7V706.09L4.8 703H14.04L17.13 706.09V708.76H13.71V707.14L12.54 706H6.3L5.13 707.14V710.62L6.3 711.76H14.28L17.37 714.85V720.85L14.22 724H4.74L1.65 720.91ZM28.3055 705.97H22.0055V703H38.0855V705.97H31.7855V724H28.3055V705.97ZM44.0906 703H58.7306V705.97H47.5706V711.97H57.8606V714.91H47.5706V721.03H58.7306V724H44.0906V703ZM65.3203 703H78.1003L81.1603 706.09V713.23L78.0703 716.35H68.8003V724H65.3203V703ZM76.5403 713.41L77.7403 712.21V707.14L76.5403 705.94H68.8003V713.41H76.5403ZM98.032 720.91V717.94H101.512V719.86L102.682 721H108.382L109.552 719.86V716.05L108.442 714.94H102.442V711.94H108.442L109.552 710.83V707.14L108.382 706H102.862L101.692 707.14V709.06H98.212V706.09L101.302 703H109.942L113.032 706.09V711.85L111.412 713.44L113.032 715.06V720.91L109.942 724H101.122L98.032 720.91Z" fill="white"/>
<circle cx="175.5" cy="28.5" r="28.5" fill="url(#paint1_linear_82_1267)"/>
<circle cx="38.5" cy="380.5" r="28.5" fill="url(#paint2_linear_82_1267)"/>
<defs>
<linearGradient id="paint0_linear_82_1267" x1="43.8857" y1="3.00079" x2="227.544" y2="7.29296" gradientUnits="userSpaceOnUse">
<stop stop-color="#54D6FF"/>
<stop offset="0.546875" stop-color="#C275FF"/>
<stop offset="1" stop-color="#F36AFF"/>
</linearGradient>
<linearGradient id="paint1_linear_82_1267" x1="156.364" y1="2.31088e-05" x2="209.003" y2="12.7239" gradientUnits="userSpaceOnUse">
<stop stop-color="#FC84FF"/>
<stop offset="1" stop-color="#54D1FA"/>
</linearGradient>
<linearGradient id="paint2_linear_82_1267" x1="19.3643" y1="352" x2="72.0025" y2="364.724" gradientUnits="userSpaceOnUse">
<stop stop-color="#FC84FF"/>
<stop offset="1" stop-color="#54D1FA"/>
</linearGradient>
</defs>
</svg>
