<svg width="56" height="1093" viewBox="0 0 56 1093" fill="none" xmlns="http://www.w3.org/2000/svg">
<path d="M26.6471 43.4367V199.5M26.6471 235.791V391.855M26.6471 429.082V585.145M26.6471 621.437V777.5M26.6471 815.082V1023.71M45 26.0727C45 36.054 36.9411 44.1454 27 44.1454C17.0589 44.1454 9 36.054 9 26.0727C9 16.0914 17.0589 8 27 8C36.9411 8 45 16.0914 45 26.0727ZM45 218.427C45 228.409 36.9411 236.5 27 236.5C17.0589 236.5 9 228.409 9 218.427C9 208.446 17.0589 200.355 27 200.355C36.9411 200.355 45 208.446 45 218.427ZM45 411.718C45 421.699 36.9411 429.791 27 429.791C17.0589 429.791 9 421.699 9 411.718C9 401.737 17.0589 393.645 27 393.645C36.9411 393.645 45 401.737 45 411.718ZM45 604.073C45 614.054 36.9411 622.145 27 622.145C17.0589 622.145 9 614.054 9 604.073C9 594.091 17.0589 586 27 586C36.9411 586 45 594.091 45 604.073ZM45 797.718C45 807.699 36.9411 815.791 27 815.791C17.0589 815.791 9 807.699 9 797.718C9 787.737 17.0589 779.645 27 779.645C36.9411 779.645 45 787.737 45 797.718ZM45 1042.64C45 1052.62 36.9411 1060.71 27 1060.71C17.0589 1060.71 9 1052.62 9 1042.64C9 1032.65 17.0589 1024.56 27 1024.56C36.9411 1024.56 45 1032.65 45 1042.64Z" stroke="url(#paint0_linear_2_1965)" stroke-width="6"/>
<circle cx="26.4997" cy="26.5001" r="21.5" transform="rotate(-14 26.4997 26.5001)" fill="url(#paint1_linear_2_1965)"/>
<circle cx="26.5933" cy="218.593" r="21.5" transform="rotate(-16 26.5933 218.593)" fill="url(#paint2_linear_2_1965)"/>
<path d="M43.558 295.23H42.326V293.634H43.068L43.6 293.102V290.05L43.04 289.49H41.234L40.688 290.036V293.76L39.26 295.202H36.642L35.2 293.76V289.448L36.642 288.006H37.888V289.602H37.132L36.6 290.148V293.06L37.132 293.606H38.756L39.288 293.06V289.336L40.73 287.894H43.53L45 289.364V293.788L43.558 295.23ZM36.586 282.791V285.731H35.2V278.227H36.586V281.167H45V282.791H36.586ZM35.2 275.424V268.592H36.586V273.8H39.386V268.998H40.758V273.8H43.614V268.592H45V275.424H35.2ZM35.2 265.517V259.553L36.642 258.125H39.974L41.43 259.567V263.893H45V265.517H35.2ZM40.058 260.281L39.498 259.721H37.132L36.572 260.281V263.893H40.058V260.281ZM42.942 250.196L38.21 245.128H37.132L36.6 245.674V248.082L37.132 248.628H38.042V250.252H36.642L35.2 248.81V244.946L36.642 243.504H38.686L43.32 248.53H43.614V243.448H45V250.196H42.942Z" fill="white"/>
<path d="M43.558 880.23H42.326V878.634H43.068L43.6 878.102V875.05L43.04 874.49H41.234L40.688 875.036V878.76L39.26 880.202H36.642L35.2 878.76V874.448L36.642 873.006H37.888V874.602H37.132L36.6 875.148V878.06L37.132 878.606H38.756L39.288 878.06V874.336L40.73 872.894H43.53L45 874.364V878.788L43.558 880.23ZM36.586 867.791V870.731H35.2V863.227H36.586V866.167H45V867.791H36.586ZM35.2 860.424V853.592H36.586V858.8H39.386V853.998H40.758V858.8H43.614V853.592H45V860.424H35.2ZM35.2 850.517V844.553L36.642 843.125H39.974L41.43 844.567V848.893H45V850.517H35.2ZM40.058 845.281L39.498 844.721H37.132L36.572 845.281V848.893H40.058V845.281ZM43.558 835.112H42.13V833.488H43.068L43.6 832.942V830.31L43.068 829.764H40.66L40.114 830.31V834.972H35.2V828.336H36.6V833.376H38.714V829.596L40.17 828.14H43.558L45 829.582V833.67L43.558 835.112Z" fill="white"/>
<path d="M43.558 683.23H42.326V681.634H43.068L43.6 681.102V678.05L43.04 677.49H41.234L40.688 678.036V681.76L39.26 683.202H36.642L35.2 681.76V677.448L36.642 676.006H37.888V677.602H37.132L36.6 678.148V681.06L37.132 681.606H38.756L39.288 681.06V677.336L40.73 675.894H43.53L45 677.364V681.788L43.558 683.23ZM36.586 670.791V673.731H35.2V666.227H36.586V669.167H45V670.791H36.586ZM35.2 663.424V656.592H36.586V661.8H39.386V656.998H40.758V661.8H43.614V656.592H45V663.424H35.2ZM35.2 653.517V647.553L36.642 646.125H39.974L41.43 647.567V651.893H45V653.517H35.2ZM40.058 648.281L39.498 647.721H37.132L36.572 648.281V651.893H40.058V648.281ZM43.124 633.842V638.602H41.29L35.2 634.304V632.218H41.724V631.028H43.124V632.218H45V633.842H43.124ZM41.766 633.786H36.922V633.856L41.444 637.02H41.766V633.786Z" fill="white"/>
<path d="M43.558 488.23H42.326V486.634H43.068L43.6 486.102V483.05L43.04 482.49H41.234L40.688 483.036V486.76L39.26 488.202H36.642L35.2 486.76V482.448L36.642 481.006H37.888V482.602H37.132L36.6 483.148V486.06L37.132 486.606H38.756L39.288 486.06V482.336L40.73 480.894H43.53L45 482.364V486.788L43.558 488.23ZM36.586 475.791V478.731H35.2V471.227H36.586V474.167H45V475.791H36.586ZM35.2 468.424V461.592H36.586V466.8H39.386V461.998H40.758V466.8H43.614V461.592H45V468.424H35.2ZM35.2 458.517V452.553L36.642 451.125H39.974L41.43 452.567V456.893H45V458.517H35.2ZM40.058 453.281L39.498 452.721H37.132L36.572 453.281V456.893H40.058V453.281ZM43.558 443.252H42.172V441.628H43.068L43.6 441.082V438.422L43.068 437.876H41.29L40.772 438.394V441.194H39.372V438.394L38.854 437.876H37.132L36.6 438.422V440.998L37.132 441.544H38.028V443.168H36.642L35.2 441.726V437.694L36.642 436.252H39.33L40.072 437.008L40.828 436.252H43.558L45 437.694V441.81L43.558 443.252Z" fill="white"/>
<path d="M2.77 1087.56V1086.33H4.366V1087.07L4.898 1087.6H7.95L8.51 1087.04V1085.23L7.964 1084.69H4.24L2.798 1083.26V1080.64L4.24 1079.2H8.552L9.994 1080.64V1081.89H8.398V1081.13L7.852 1080.6H4.94L4.394 1081.13V1082.76L4.94 1083.29H8.664L10.106 1084.73V1087.53L8.636 1089H4.212L2.77 1087.56ZM15.2092 1080.59H12.2692V1079.2H19.7732V1080.59H16.8332V1089H15.2092V1080.59ZM22.5756 1079.2H29.4076V1080.59H24.1996V1083.39H29.0016V1084.76H24.1996V1087.61H29.4076V1089H22.5756V1079.2ZM32.4828 1079.2H38.4468L39.8748 1080.64V1083.97L38.4328 1085.43H34.1068V1089H32.4828V1079.2ZM37.7188 1084.06L38.2788 1083.5V1081.13L37.7188 1080.57H34.1068V1084.06H37.7188ZM48.0283 1087.56V1080.64L49.4703 1079.2H53.5863L55.0283 1080.64V1081.93H53.4043V1081.16L52.8443 1080.6H50.2123L49.6523 1081.16V1083.79L50.5763 1082.88H53.6423L55.0843 1084.32V1087.56L53.6423 1089H49.4703L48.0283 1087.56ZM52.9003 1087.6L53.4603 1087.04V1084.84L52.9003 1084.28H50.8003L49.6523 1085.46V1087.04L50.2123 1087.6H52.9003Z" fill="white"/>
<path d="M43.558 102.23H42.326V100.634H43.068L43.6 100.102V97.05L43.04 96.49H41.234L40.688 97.036V100.76L39.26 102.202H36.642L35.2 100.76V96.448L36.642 95.006H37.888V96.602H37.132L36.6 97.148V100.06L37.132 100.606H38.756L39.288 100.06V96.336L40.73 94.894H43.53L45 96.364V100.788L43.558 102.23ZM36.586 89.7908V92.7308H35.2V85.2268H36.586V88.1668H45V89.7908H36.586ZM35.2 82.4244V75.5924H36.586V80.8004H39.386V75.9984H40.758V80.8004H43.614V75.5924H45V82.4244H35.2ZM35.2 72.5172V66.5532L36.642 65.1252H39.974L41.43 66.5672V70.8932H45V72.5172H35.2ZM40.058 67.2812L39.498 66.7212H37.132L36.572 67.2812V70.8932H40.058V67.2812ZM36.922 55.2497L38.028 57.3917H36.53L35.2 54.9697V53.6257H45V55.2497H36.922Z" fill="white"/>
<defs>
<linearGradient id="paint0_linear_2_1965" x1="14.9143" y1="8.00043" x2="50.0996" y2="8.29128" gradientUnits="userSpaceOnUse">
<stop stop-color="#54D6FF"/>
<stop offset="0.546875" stop-color="#C275FF"/>
<stop offset="1" stop-color="#F36AFF"/>
</linearGradient>
<linearGradient id="paint1_linear_2_1965" x1="12.064" y1="5.00014" x2="51.7735" y2="14.5989" gradientUnits="userSpaceOnUse">
<stop stop-color="#FC84FF"/>
<stop offset="1" stop-color="#54D1FA"/>
</linearGradient>
<linearGradient id="paint2_linear_2_1965" x1="12.1576" y1="197.093" x2="51.8672" y2="206.692" gradientUnits="userSpaceOnUse">
<stop stop-color="#FC84FF"/>
<stop offset="1" stop-color="#54D1FA"/>
</linearGradient>
</defs>
</svg>
