<svg xmlns="http://www.w3.org/2000/svg" width="90" height="76" fill="none" viewBox="0 0 90 76"><path fill="#fff" fill-rule="evenodd" d="M48.731.81c-8.124 1.494-14.66 7.941-16.318 16.098-.411 2.023-.438 6.215-.05 8.087.153.741.25 1.347.215 1.347-.034 0-.52-.294-1.08-.654s-1.783-.906-2.718-1.215c-1.437-.473-2.097-.562-4.252-.57-3.843-.014-6.777.63-12.144 2.664-3.081 1.168-5.295 1.613-9.01 1.812-2.266.12-2.48.17-2.924.674-.596.678-.599.953-.014 1.706l.463.597 3.098-.118c3.548-.135 5.614-.52 8.502-1.59 6.289-2.327 8.106-2.751 11.816-2.761 2.129-.006 2.788.076 3.98.494a9.34 9.34 0 0 1 4.753 3.725c.52.79 1.095 1.497 1.279 1.568.184.072 2.513.13 5.175.13 4.981 0 5.744.102 6.843.918.726.54 1.437 1.84 1.511 2.764l.059.734-13.971.114-3.836-1.542c-4.18-1.679-4.664-1.733-5.21-.577-.286.603-.042 1.544.456 1.762.13.057 1.906.79 3.947 1.628l3.71 1.523h31.782l.32.465c.34.49.177 1.111-.343 1.314-.15.058-5.952 1.01-12.894 2.118l-12.621 2.013-21.832-4.418-7.928 2.172C5.134 44.988 1.31 46.067 1 46.19c-.312.123-.685.512-.829.865-.228.558-.207.716.162 1.22.234.318.658.607.943.642S5.33 48 9.652 46.8l7.86-2.18 21.763 4.397 13.143-2.093c14.667-2.335 14.511-2.294 15.355-4.06.97-2.03.277-4.184-1.66-5.162l-1.049-.53 1.274-1.268c6.32-6.295 8.037-15.577 4.34-23.482-1.164-2.492-1.926-3.616-3.81-5.625C62.319 1.942 55.256-.389 48.732.811M57.27 4.15c11.95 3.847 16.288 18.138 8.517 28.057-1.244 1.588-3.4 3.383-5.234 4.36l-1.449.771-8.212-.117-.131-1.089c-.266-2.208-1.635-4.275-3.52-5.314-1.385-.764-3.15-1.025-6.94-1.027l-3.15-.002-.702-1.561c-1.091-2.425-1.495-4.409-1.482-7.27.015-2.93.4-4.683 1.609-7.324 2.265-4.95 6.704-8.59 11.977-9.82 1.984-.462 6.816-.276 8.717.336m6.379 46.243c-3.572.583-6.618 2.293-8.441 4.74l-.833 1.117-9.66.143-1.418.708c-2.294 1.145-3.992 3.597-3.992 5.763v.745l-6.75.006c-6.965.005-8.177.121-9.232.883-1.223.882-1.787 2.92-1.226 4.429.314.843 1.424 1.957 2.204 2.212.36.117 6.486 1.146 13.616 2.287L50.88 75.5l21.727-4.4 7.95 2.204c8.543 2.367 8.756 2.396 9.298 1.25a1.373 1.373 0 0 0-.664-1.84c-.25-.112-4.072-1.202-8.494-2.422l-8.04-2.217L50.802 72.5l-12.709-2.023c-13.669-2.174-13.872-2.225-13.183-3.276l.307-.469 32.265-.215 3.508-1.47c1.93-.808 3.687-1.646 3.907-1.863.804-.797.234-2.376-.859-2.376-.275 0-2.051.63-3.947 1.4l-3.447 1.4h-14.61l.15-.7c.264-1.24.934-2.3 1.838-2.907l.884-.593 5.437-.108c2.991-.059 5.56-.187 5.707-.284s.469-.573.714-1.06c.574-1.14 2.165-2.702 3.496-3.43 1.804-.989 3.508-1.32 6.152-1.195 3.11.145 5.9.798 9.886 2.313 3.906 1.484 5.905 1.908 9.825 2.083 3.13.14 3.417.068 3.799-.95.262-.7-.158-1.502-.929-1.774-.352-.125-1.522-.227-2.6-.227-2.487 0-5.235-.483-7.544-1.328-4.671-1.708-6.003-2.129-8.08-2.553-2.192-.449-5.865-.708-7.121-.503" clip-rule="evenodd"/><path fill="#fff" d="M44.894 15.698c.901-4.25 4.28-7.37 8.46-7.81.248-.027.573-.052.72-.056l.27-.008v1.938l-.383.035c-2.146.198-3.773.959-5.152 2.41-1.056 1.11-1.698 2.34-2.027 3.883-.141.662-.139 2.394.005 3.06.338 1.576 1.023 2.853 2.125 3.966.946.956 2.005 1.603 3.235 1.977.584.177 1.375.311 1.843.312h.353v1.977l-.669-.04c-1.653-.1-3.23-.649-4.702-1.635-.877-.588-2.01-1.73-2.59-2.613a10.3 10.3 0 0 1-1.489-3.588c-.111-.522-.129-.77-.13-1.89-.002-1.143.012-1.359.13-1.918"/><path fill="#fff" d="M50.419 13.326c.993-.941 2.231-1.475 3.642-1.569.14-.01.343-.01.452-.001.79.061 1.015.096 1.452.225 2.303.675 3.958 2.739 4.168 5.193l.038.445-1.955-.03-.036-.411c-.078-.881-.435-1.619-1.12-2.313-.786-.796-1.61-1.142-2.716-1.142-2.603 0-4.442 2.55-3.654 5.068.464 1.48 1.77 2.559 3.269 2.7l.384.036v1.948l-.472-.034c-1.312-.094-2.632-.716-3.601-1.698-2.317-2.347-2.25-6.145.149-8.417M43.83 26.18c-1.83-2.354-2.78-4.91-2.971-8.006l-.035-.56 1.958.031.037.745c.07 1.395.475 2.953 1.121 4.311a11.6 11.6 0 0 0 6.679 5.993c1.105.38 1.735.5 3.343.639l.381.033v1.952l-.636-.04c-3.421-.211-6.477-1.579-8.839-3.954a16 16 0 0 1-1.038-1.144"/><path fill="#fff" d="M57.453 18.976c-.005-.19.047-.383.116-.43.162-.107 7.451-.084 7.451.025 0 .045-.666.713-1.481 1.484l-1.482 1.403h-5.885l-.059 2.725-.79.01v-3.59h6.34l.625-.55c.343-.303.624-.59.624-.638s-.201-.083-.448-.076c-.246.006-1.472.004-2.725-.004l-2.276-.014z"/><path fill="#fff" d="M57.536 24.256V22.42h.843v.982l1.905-.043c1.047-.023 1.924-.009 1.948.032.025.04-.621.704-1.435 1.474l-1.48 1.402h-3.151v3.863l1.363-1.245.007-1.657h.843v2.002l-1.344 1.27c-.739.7-1.426 1.337-1.528 1.417-.175.138-.184-.029-.184-3.18v-3.326h3.6l.625-.551c.344-.303.597-.58.563-.615s-.628-.047-1.319-.027z"/></svg>