<svg xmlns="http://www.w3.org/2000/svg" width="90" height="78" fill="none" viewBox="0 0 90 78"><mask id="a" fill="#fff"><path fill-rule="evenodd" d="M26.84 23.419v23.418h10.858l.324.721a10 10 0 0 0 .828 1.418l.504.696-.923 1.873c-.507 1.03-.888 1.906-.845 1.946.15.14 4.317 2.193 4.452 2.193.075 0 .543-.82 1.04-1.821l.904-1.822h2.001l.905 1.822c.497 1.002.984 1.821 1.081 1.821.162 0 4.314-2.027 4.492-2.193.043-.04-.338-.916-.845-1.947l-.923-1.873.596-.869c.328-.477.698-1.115.823-1.416l.227-.549h10.868V0H26.84zm31.172 0v18.214h-2.815l-2.814-.001-.581-1.127c-.657-1.273-2.009-2.617-3.223-3.206-2.362-1.145-4.763-1.139-7.134.02-1.123.55-2.826 2.278-3.351 3.403l-.425.911h-5.633V5.204H58.01zM37.23 13.01v2.602h15.585v-5.204H37.231zM3.023 11.58c-.583 1.398-1.461 4.191-1.758 5.595-.46 2.176-.422 5.557.084 7.336.41 1.443 1.28 3.294 2.015 4.286 1.428 1.93 4.111 4.097 6.636 5.361.99.497 1.082.59 1.085 1.103.003.535.352 3.34.617 4.967.123.748.117.76-.305.655-1.354-.34-3.91-.475-5.654-.298-1.76.18-4.796.735-4.971.911-.167.167.66 4.439 1.169 6.036 1.93 6.07 5.74 9.559 11.565 10.593.62.11 2.229.196 3.576.191l2.45-.009 1.417 1.624c.78.894 1.885 2.033 2.459 2.532l1.041.907-1.532.8c-.842.438-1.827 1.002-2.188 1.252-1.166.805-3.301 2.71-4.25 3.792l-.924 1.053 1.356 1.395c7.09 7.298 14.469 8.303 21.801 2.97l1.395-1.014 2.454 1.35 2.455 1.35 2.125-1.15c1.169-.632 2.276-1.24 2.46-1.352.287-.174.528-.062 1.731.807 1.76 1.272 4.109 2.446 5.9 2.949 1.788.502 4.774.537 6.58.077 1.627-.414 4.403-1.79 5.882-2.915 1.33-1.012 4.35-3.845 4.603-4.318.13-.244-.159-.625-1.535-2.019-1.946-1.971-3.442-3.096-5.626-4.229l-1.538-.797 1.042-.908c.573-.5 1.679-1.638 2.458-2.532l1.416-1.624 2.45.01c1.349.004 2.958-.082 3.577-.192 7.043-1.25 10.984-5.853 12.48-14.571.26-1.524.291-2.013.13-2.112-.114-.072-1.11-.304-2.21-.516-2.273-.44-5.812-.528-7.529-.189-.564.111-1.057.17-1.097.13-.039-.039.049-.839.196-1.777s.32-2.316.385-3.06l.119-1.355 1.057-.53c3.21-1.606 6.206-4.338 7.508-6.845 1.788-3.442 2.038-7.047.81-11.641-.447-1.668-1.403-4.356-1.645-4.624-.195-.216-3.496.954-5.416 1.92-3.001 1.51-5.162 3.314-6.609 5.52-2.311 3.526-2.762 8.37-1.26 13.531.593 2.037.261 5.66-.936 10.214-.465 1.768-.64 2.173-1.236 2.862-1.712 1.977-3.065 4.631-3.847 7.55-.227.85-.63 1.864-.895 2.255-.805 1.189-4.7 4.978-6.599 6.42-1.358 1.03-2.024 1.417-2.77 1.61-1.385.355-4.226 1.758-5.66 2.793a35 35 0 0 0-2.524 2.072c-.761.693-1.87 1.483-2.641 1.879l-1.328.683-1.334-.686c-.788-.405-1.87-1.177-2.641-1.886a33 33 0 0 0-2.52-2.068c-1.478-1.06-4.352-2.479-5.58-2.756-.686-.155-1.354-.54-2.77-1.596-1.932-1.442-5.833-5.219-6.678-6.465-.265-.39-.668-1.406-.895-2.255-.773-2.887-2.216-5.73-3.797-7.483-.74-.82-.858-1.115-1.503-3.758-.98-4.016-1.27-7.545-.76-9.211.824-2.684 1.125-5.872.78-8.253-.691-4.768-3.523-8.414-8.477-10.917-1.498-.756-4.87-2.08-5.3-2.08-.14 0-.377.292-.526.65m5.217 7.08c2.175 1.54 3.456 3.381 3.888 5.593.225 1.146.145 3.95-.133 4.686-.152.401-.159.4-1.47-.48-2.492-1.67-3.884-3.655-4.302-6.138-.196-1.16-.149-2.94.111-4.233.132-.656.2-.635 1.906.572m75.673 1.288c.26 3.617-1.14 6.333-4.392 8.511-1.312.88-1.32.881-1.47.48-.279-.737-.358-3.54-.134-4.686.456-2.334 1.848-4.234 4.308-5.882l1.318-.883.132.493c.073.27.18 1.156.238 1.967m-46.683 3.47v2.602h15.585v-5.204H37.231zm8.97 18.543c.751.384 1.42 1.455 1.42 2.273 0 .798-.625 1.806-1.386 2.235-.359.202-.904.367-1.211.367-1.276 0-2.607-1.348-2.59-2.626.01-.837.526-1.692 1.307-2.166.819-.496 1.6-.523 2.46-.083M9.12 45.8c2.741.345 4.638 1.312 6.036 3.077.796 1.005 1.86 3.006 2.084 3.92l.121.494-1.365-.12c-4.342-.38-6.6-1.789-8.262-5.159-.436-.884-.84-1.783-.9-1.998-.126-.466.106-.487 2.285-.213m74.09.214c-.058.215-.462 1.114-.899 1.998-1.662 3.37-3.92 4.78-8.262 5.16l-1.365.119.12-.494c.214-.88 1.29-2.897 2.088-3.914 1.621-2.068 4.148-3.133 7.677-3.237.696-.02.74.005.642.368M31.42 67.918c1.044.273 3.315 1.383 4.08 1.996.49.391.598.266-1.187 1.376-3.255 2.024-6.52 1.999-9.873-.076-1.618-1.001-1.528-.891-1.053-1.288.688-.575 2.996-1.73 3.998-2 1.228-.33 2.786-.334 4.035-.008m31.17 0c1.045.273 3.316 1.383 4.081 1.996.49.391.597.266-1.187 1.376-3.205 1.993-6.543 1.993-9.748 0-1.784-1.11-1.676-.985-1.187-1.376.73-.584 3.026-1.723 4.006-1.987 1.23-.331 2.787-.335 4.035-.009" clip-rule="evenodd"/></mask><path fill="#fff" fill-rule="evenodd" stroke="#0D0D0D" stroke-width="2" d="M26.84 23.419v23.418h10.858l.324.721a10 10 0 0 0 .828 1.418l.504.696-.923 1.873c-.507 1.03-.888 1.906-.845 1.946.15.14 4.317 2.193 4.452 2.193.075 0 .543-.82 1.04-1.821l.904-1.822h2.001l.905 1.822c.497 1.002.984 1.821 1.081 1.821.162 0 4.314-2.027 4.492-2.193.043-.04-.338-.916-.845-1.947l-.923-1.873.596-.869c.328-.477.698-1.115.823-1.416l.227-.549h10.868V0H26.84zm31.172 0v18.214h-2.815l-2.814-.001-.581-1.127c-.657-1.273-2.009-2.617-3.223-3.206-2.362-1.145-4.763-1.139-7.134.02-1.123.55-2.826 2.278-3.351 3.403l-.425.911h-5.633V5.204H58.01zM37.23 13.01v2.602h15.585v-5.204H37.231zM3.023 11.58c-.583 1.398-1.461 4.191-1.758 5.595-.46 2.176-.422 5.557.084 7.336.41 1.443 1.28 3.294 2.015 4.286 1.428 1.93 4.111 4.097 6.636 5.361.99.497 1.082.59 1.085 1.103.003.535.352 3.34.617 4.967.123.748.117.76-.305.655-1.354-.34-3.91-.475-5.654-.298-1.76.18-4.796.735-4.971.911-.167.167.66 4.439 1.169 6.036 1.93 6.07 5.74 9.559 11.565 10.593.62.11 2.229.196 3.576.191l2.45-.009 1.417 1.624c.78.894 1.885 2.033 2.459 2.532l1.041.907-1.532.8c-.842.438-1.827 1.002-2.188 1.252-1.166.805-3.301 2.71-4.25 3.792l-.924 1.053 1.356 1.395c7.09 7.298 14.469 8.303 21.801 2.97l1.395-1.014 2.454 1.35 2.455 1.35 2.125-1.15c1.169-.632 2.276-1.24 2.46-1.352.287-.174.528-.062 1.731.807 1.76 1.272 4.109 2.446 5.9 2.949 1.788.502 4.774.537 6.58.077 1.627-.414 4.403-1.79 5.882-2.915 1.33-1.012 4.35-3.845 4.603-4.318.13-.244-.159-.625-1.535-2.019-1.946-1.971-3.442-3.096-5.626-4.229l-1.538-.797 1.042-.908c.573-.5 1.679-1.638 2.458-2.532l1.416-1.624 2.45.01c1.349.004 2.958-.082 3.577-.192 7.043-1.25 10.984-5.853 12.48-14.571.26-1.524.291-2.013.13-2.112-.114-.072-1.11-.304-2.21-.516-2.273-.44-5.812-.528-7.529-.189-.564.111-1.057.17-1.097.13-.039-.039.049-.839.196-1.777s.32-2.316.385-3.06l.119-1.355 1.057-.53c3.21-1.606 6.206-4.338 7.508-6.845 1.788-3.442 2.038-7.047.81-11.641-.447-1.668-1.403-4.356-1.645-4.624-.195-.216-3.496.954-5.416 1.92-3.001 1.51-5.162 3.314-6.609 5.52-2.311 3.526-2.762 8.37-1.26 13.531.593 2.037.261 5.66-.936 10.214-.465 1.768-.64 2.173-1.236 2.862-1.712 1.977-3.065 4.631-3.847 7.55-.227.85-.63 1.864-.895 2.255-.805 1.189-4.7 4.978-6.599 6.42-1.358 1.03-2.024 1.417-2.77 1.61-1.385.355-4.226 1.758-5.66 2.793a35 35 0 0 0-2.524 2.072c-.761.693-1.87 1.483-2.641 1.879l-1.328.683-1.334-.686c-.788-.405-1.87-1.177-2.641-1.886a33 33 0 0 0-2.52-2.068c-1.478-1.06-4.352-2.479-5.58-2.756-.686-.155-1.354-.54-2.77-1.596-1.932-1.442-5.833-5.219-6.678-6.465-.265-.39-.668-1.406-.895-2.255-.773-2.887-2.216-5.73-3.797-7.483-.74-.82-.858-1.115-1.503-3.758-.98-4.016-1.27-7.545-.76-9.211.824-2.684 1.125-5.872.78-8.253-.691-4.768-3.523-8.414-8.477-10.917-1.498-.756-4.87-2.08-5.3-2.08-.14 0-.377.292-.526.65Zm5.217 7.08c2.175 1.54 3.456 3.381 3.888 5.593.225 1.146.145 3.95-.133 4.686-.152.401-.159.4-1.47-.48-2.492-1.67-3.884-3.655-4.302-6.138-.196-1.16-.149-2.94.111-4.233.132-.656.2-.635 1.906.572Zm75.673 1.288c.26 3.617-1.14 6.333-4.392 8.511-1.312.88-1.32.881-1.47.48-.279-.737-.358-3.54-.134-4.686.456-2.334 1.848-4.234 4.308-5.882l1.318-.883.132.493c.073.27.18 1.156.238 1.967Zm-46.683 3.47v2.602h15.585v-5.204H37.231zm8.97 18.543c.751.384 1.42 1.455 1.42 2.273 0 .798-.625 1.806-1.386 2.235-.359.202-.904.367-1.211.367-1.276 0-2.607-1.348-2.59-2.626.01-.837.526-1.692 1.307-2.166.819-.496 1.6-.523 2.46-.083ZM9.12 45.8c2.741.345 4.638 1.312 6.036 3.077.796 1.005 1.86 3.006 2.084 3.92l.121.494-1.365-.12c-4.342-.38-6.6-1.789-8.262-5.159-.436-.884-.84-1.783-.9-1.998-.126-.466.106-.487 2.285-.213Zm74.09.214c-.058.215-.462 1.114-.899 1.998-1.662 3.37-3.92 4.78-8.262 5.16l-1.365.119.12-.494c.214-.88 1.29-2.897 2.088-3.914 1.621-2.068 4.148-3.133 7.677-3.237.696-.02.74.005.642.368ZM31.42 67.918c1.044.273 3.315 1.383 4.08 1.996.49.391.598.266-1.187 1.376-3.255 2.024-6.52 1.999-9.873-.076-1.618-1.001-1.528-.891-1.053-1.288.688-.575 2.996-1.73 3.998-2 1.228-.33 2.786-.334 4.035-.008Zm31.17 0c1.045.273 3.316 1.383 4.081 1.996.49.391.597.266-1.187 1.376-3.205 1.993-6.543 1.993-9.748 0-1.784-1.11-1.676-.985-1.187-1.376.73-.584 3.026-1.723 4.006-1.987 1.23-.331 2.787-.335 4.035-.009Z" clip-rule="evenodd" mask="url(#a)"/></svg>