<svg xmlns="http://www.w3.org/2000/svg" width="54" height="48" fill="none" viewBox="0 0 54 48"><path fill="#fff" fill-rule="evenodd" d="M35.562.107c-2.502.31-5.108 1.728-6.943 3.778-.965 1.077-1.46 1.843-2.1 3.252-.808 1.78-1.107 3.111-1.178 5.246l-.057 1.696-.593-.075c-.608-.078-2.841-.518-3.975-.784-1.019-.24-1.52.09-1.552 1.02-.024.687.38.995 1.78 1.358 1.65.428 3.8.763 5.077.791 1.101.025 1.104.024 1.371-.31.244-.306.262-.399.203-1.031-.161-1.721-.187-3.149-.07-3.959.272-1.906 1.164-3.912 2.378-5.351 2.074-2.46 5.25-3.77 8.153-3.362 2.169.304 3.744 1.077 5.378 2.64.407.389.847.763.978.831.333.175 1.368-.054 3.195-.705.814-.29 1.48-.496 1.48-.457 0 .18-1.307 1.591-1.902 2.053-1.097.852-1.257 1.023-1.326 1.423-.075.436.155 1.02.475 1.206.315.183 1.007.139 2.305-.146l1.19-.261-.45.503c-.248.277-.913.913-1.478 1.413-.566.5-1.077 1.006-1.136 1.126-.06.12-.108.852-.11 1.627-.016 14.305-8.268 26.756-20.364 30.731-4.249 1.396-8.896 1.75-13.413 1.024-2.101-.338-5.206-1.294-6.841-2.105l-.643-.32.634-.08c3.524-.449 7.08-1.847 9.93-3.903 1.661-1.2 1.852-1.406 1.852-2.002 0-.372-.066-.55-.298-.801-.25-.271-.418-.336-1.03-.397-1.846-.185-3.765-.92-5.059-1.936-.832-.654-1.83-1.776-2.404-2.708l-.532-.86 1.095-.071c2.286-.15 3.08-.53 3.08-1.475 0-.691-.284-.923-1.736-1.424-1.66-.572-2.72-1.281-3.947-2.642-.981-1.089-1.6-2.089-2.092-3.378-.262-.687-.634-2.066-.575-2.13.014-.014.454.1.977.253s1.411.311 1.974.35l1.023.071.324-.351c.26-.282.324-.449.324-.835 0-.523-.02-.55-1.268-1.621-1.33-1.143-2.59-3.293-3.088-5.263-.202-.803-.24-1.234-.238-2.729.001-1.515.038-1.914.25-2.725l.249-.95 1.176 1.242c1.36 1.436 2.701 2.663 3.973 3.634 1.103.842 1.53.908 2.021.312.606-.735.384-1.267-.972-2.323C9.34 6.894 7.623 5.195 5.869 3.1c-.742-.887-.818-.945-1.214-.943-.239.002-.522.09-.65.201-.257.224-.915 1.597-1.22 2.546-.81 2.523-.818 5.856-.02 8.265.331.999.9 2.255 1.328 2.93.17.268.28.487.246.487s-.249-.103-.477-.23c-.61-.337-1.111-.3-1.487.107-.282.305-.309.404-.309 1.125 0 1.761.555 4.058 1.392 5.755.628 1.274 1.362 2.285 2.495 3.437.913.929.984 1.03.724 1.03-.339 0-.768.422-.868.853-.139.598.871 2.983 1.845 4.358 1.397 1.973 3.533 3.66 5.507 4.35.32.112.621.229.67.26.292.18-2.974 1.734-4.77 2.268-2.147.639-3.242.78-6.067.788-2.464.007-2.511.011-2.748.268-.28.304-.334 1.128-.094 1.442.081.105.652.52 1.268.92 3.725 2.422 7.93 3.935 12.64 4.547 1.383.18 5.525.182 6.867.003 5.391-.717 9.664-2.34 13.65-5.187 8.47-6.048 13.761-16.429 14.161-27.783l.066-1.861.362-.3c1.23-1.017 3.042-3.082 4.21-4.797.533-.785.623-.987.624-1.413 0-.403-.055-.549-.295-.773-.413-.385-.871-.354-1.998.134-.52.226-.963.393-.983.371-.02-.021.158-.348.394-.725.647-1.031 1.379-2.77 1.435-3.41.044-.488.015-.593-.248-.89-.44-.498-.898-.459-1.977.17a18.6 18.6 0 0 1-3.86 1.733l-1.297.423-.499-.454C42.834 1.431 40.602.383 38.274.102c-1.135-.137-1.568-.136-2.712.005M15.2 11.287c-.356.07-.77.671-.77 1.119 0 .275.092.482.325.735.96 1.04 2.427-.397 1.498-1.467-.298-.343-.64-.469-1.053-.388M38.513 28.03c-.226.244-.31.444-.31.742 0 .97 1.124 1.496 1.75.818.608-.66.123-1.895-.745-1.895-.286 0-.467.087-.695.335m-2.053 3.197c-.174.116-.49.438-.701.715-1.167 1.534-3.203 3.445-5.07 4.758-1.362.958-1.467 1.076-1.467 1.655 0 .618.447 1.136.979 1.136.81 0 3.738-2.282 5.852-4.561 2.117-2.283 2.374-2.855 1.621-3.599-.373-.368-.764-.402-1.214-.104" clip-rule="evenodd"/></svg>