<svg xmlns="http://www.w3.org/2000/svg" width="50" height="50" fill="none" viewBox="0 0 50 50"><path fill="#fff" fill-rule="evenodd" d="M12.99.095C8.105.64 3.762 3.701 1.52 8.181.8 9.617.291 11.383.105 13.097c-.141 1.296-.141 22.496 0 23.791a14.63 14.63 0 0 0 13.002 13.006c1.295.141 22.489.141 23.784 0 3.352-.364 6.281-1.753 8.7-4.125 2.453-2.405 3.93-5.453 4.302-8.88.141-1.297.141-22.496 0-23.792-.364-3.353-1.753-6.283-4.123-8.702-2.405-2.453-5.453-3.93-8.879-4.304-1.14-.124-22.788-.12-23.903.004m24.8 2.08c1.984.475 3.59 1.191 5.088 2.27 1.99 1.433 3.775 3.904 4.515 6.25.636 2.018.603 1.23.603 14.298 0 11.075-.012 11.922-.177 12.685-.26 1.21-.628 2.307-1.066 3.187-1.83 3.67-4.956 6.066-9.071 6.954-.763.164-1.61.176-12.682.176-11.071 0-11.919-.012-12.682-.176-2.723-.588-4.993-1.818-6.78-3.676-1.704-1.77-2.8-3.882-3.357-6.465-.165-.763-.177-1.61-.177-12.685s.012-11.922.177-12.686c.556-2.582 1.653-4.694 3.356-6.464a12.93 12.93 0 0 1 7.515-3.792c.371-.049 5.871-.08 12.339-.07 10.831.018 11.72.032 12.399.194M12.972 4.432a10.25 10.25 0 0 0-5.426 2.722 10.23 10.23 0 0 0-3.103 5.874c-.213 1.307-.213 22.623 0 23.93.618 3.793 3.264 6.945 6.849 8.16 1.502.51 2.253.581 6.114.581h3.49l.316-.282c.428-.382.448-.954.049-1.353l-.269-.269-3.879-.055-3.88-.054-.878-.269c-2.842-.868-4.886-2.91-5.78-5.775l-.274-.88V13.224l.274-.88c.893-2.861 2.918-4.887 5.78-5.78l.879-.275h23.532l.88.274c2.86.894 4.886 2.92 5.779 5.782l.274.879v23.54l-.274.879c-.894 2.864-2.936 4.905-5.78 5.776l-.879.269-3.661.031c-2.014.017-3.765.055-3.89.083-.126.028-.334.165-.464.305-.42.454-.262 1.187.32 1.485.34.174 6.782.145 7.89-.035a10.35 10.35 0 0 0 8.596-8.598c.213-1.307.213-22.623 0-23.93a10.35 10.35 0 0 0-8.595-8.598c-1.216-.198-22.811-.196-23.99.002m23.677 4.23c-2.597.923-3.362 4.183-1.433 6.112 1.82 1.82 4.86 1.256 5.983-1.111.219-.462.254-.668.254-1.466 0-.835-.03-.99-.302-1.562-.617-1.298-1.794-2.076-3.213-2.125-.567-.02-.92.022-1.289.153m1.854 1.912c1.558.667 1.29 2.985-.386 3.33-1.072.22-2.252-.96-2.031-2.032.098-.475.494-1.016.9-1.23.431-.228 1.076-.257 1.517-.068m-14.675 1.008c-1.921.151-5.053 1.194-5.371 1.789-.221.413-.146.894.188 1.192.392.35.628.342 1.6-.057 1.918-.787 2.83-.976 4.755-.982 1.425-.005 2.43.137 3.504.496 4.003 1.337 6.907 4.59 7.789 8.726.242 1.135.243 3.354.002 4.482-.986 4.625-4.434 8.076-9.05 9.06-1.139.244-3.351.244-4.49 0-4.136-.881-7.388-3.785-8.725-7.79-.36-1.08-.502-2.08-.496-3.505.009-2.01.28-3.172 1.24-5.308.287-.636.33-.817.258-1.07-.124-.43-.39-.661-.832-.72-.531-.071-.789.163-1.287 1.169-2.54 5.128-1.488 11.374 2.602 15.444a13.374 13.374 0 0 0 18.97 0 13.39 13.39 0 0 0 0-19.03c-2.85-2.836-6.617-4.213-10.657-3.896m-7.88 3.467c-.118.057-.285.254-.373.438-.373.786.336 1.578 1.167 1.303.985-.325.796-1.87-.226-1.851-.194.004-.45.053-.567.11m7.464 1.301a8.9 8.9 0 0 0-6.277 4.785c-.68 1.39-.857 2.183-.857 3.858 0 1.152.04 1.562.213 2.197.668 2.448 2.41 4.57 4.652 5.67 1.389.68 2.182.857 3.857.857s2.468-.176 3.857-.857c2.243-1.1 3.984-3.222 4.652-5.67.173-.635.213-1.045.213-2.197 0-1.675-.176-2.468-.857-3.858-1.098-2.245-3.259-4.015-5.668-4.644-1.034-.27-2.765-.334-3.785-.141m2.935 1.958c.428.087 1.152.345 1.68.598.79.379 1.054.573 1.773 1.298.704.71.919 1.006 1.288 1.77.987 2.047.987 3.99 0 6.037-.37.765-.584 1.06-1.288 1.77-.72.726-.984.92-1.773 1.299-2.062.99-3.992.99-6.054 0-.79-.38-1.054-.573-1.773-1.299-.704-.71-.919-1.005-1.288-1.77-.482-1-.747-2.072-.747-3.018 0-.947.265-2.019.747-3.018.37-.765.584-1.06 1.288-1.77.719-.725.985-.92 1.773-1.3 1.495-.719 2.855-.905 4.374-.597m-1.689 25.527c-.622.266-.787 1.073-.315 1.545.201.201.362.267.657.267 1.136 0 1.267-1.66.146-1.847a1.05 1.05 0 0 0-.488.035" clip-rule="evenodd"/></svg>