<svg xmlns="http://www.w3.org/2000/svg" width="90" height="90" fill="none" viewBox="0 0 90 90"><g clip-path="url(#a)"><path fill="#fff" fill-rule="evenodd" d="M43.046.284c-.515.157-4.943 2.491-9.84 5.187-9.157 5.04-10.235 5.748-11.099 7.286l-.404.72h-3.041l-.716-.733-.715-.732.344-1.003c.55-1.606.458-3.238-.269-4.715-1.812-3.683-6.457-4.569-9.476-1.808C6.64 5.575 6.017 6.87 5.884 8.533c-.343 4.273 3.867 7.477 7.99 6.08l1.193-.404 1.18 1.134 1.181 1.135h3.594v7.502h-9.157l-.458-1c-.563-1.232-1.522-2.216-2.809-2.883-.834-.432-1.213-.507-2.571-.512-1.897-.007-2.983.432-4.28 1.728-1.221 1.222-1.62 2.249-1.62 4.168 0 1.918.399 2.945 1.62 4.167 1.261 1.26 2.39 1.728 4.186 1.735 1.234.004 1.685-.082 2.547-.486 1.323-.62 2.341-1.634 2.927-2.915l.458-1.001h9.157v6.002h-3.594l-1.18 1.134-1.181 1.135-1.14-.385c-1.957-.66-3.861-.394-5.422.755-.98.72-1.916 2.04-1.916 2.701 0 .678.778 1.412 1.495 1.412.45 0 .79-.221 1.558-1.015 1.474-1.523 2.94-1.65 4.453-.385.864.722 1.628.839 2.1.321.163-.18.781-.855 1.373-1.5l1.074-1.172h2.335l.083 1.153c.067.914.173 1.225.512 1.5.603.489 1.435.441 1.989-.113l.46-.46V27.023c0-12.254-.01-12.149 1.224-13.42.4-.412 3.656-2.328 8.75-5.15 4.463-2.471 8.478-4.678 8.924-4.903 1.098-.555 2.369-.68 3.37-.331 1.53.532 17.524 9.524 18.353 10.318 1.394 1.333 1.365 1.05 1.372 13.43.006 11.597-.014 11.327.872 11.8.633.337 1.158.26 1.66-.243.378-.378.46-.646.46-1.5v-1.04h2.38l1.06 1.111c.583.611 1.06 1.188 1.06 1.283 0 .213.838.606 1.294.606.187 0 .71-.294 1.162-.654 1.578-1.255 2.95-1.134 4.425.39 1.144 1.181 1.821 1.326 2.592.554.602-.602.581-1.151-.084-2.201-1.352-2.133-4.222-3.08-6.74-2.226l-1.193.405-1.18-1.135-1.181-1.134h-3.594V26.98h9.157l.458 1c.563 1.232 1.522 2.216 2.809 2.883.834.432 1.213.507 2.57.512 1.897.007 2.984-.432 4.28-1.728 1.222-1.222 1.621-2.249 1.621-4.167 0-1.92-.399-2.946-1.62-4.168-1.297-1.296-2.384-1.735-4.28-1.728-1.358.005-1.737.08-2.571.512-1.287.667-2.246 1.651-2.81 2.882l-.457 1.001h-9.157v-7.502H72.6l1.181-1.135 1.181-1.134 1.193.404c2.906.985 6.04-.355 7.42-3.172.435-.888.519-1.3.519-2.56 0-1.258-.084-1.67-.518-2.558-.608-1.24-1.868-2.47-3.102-3.03-1.227-.556-3.526-.556-4.752 0-2.906 1.318-4.353 4.575-3.35 7.539l.406 1.2-.705.722c-.703.72-.71.723-2.214.723h-1.508l-.505-.797a9.7 9.7 0 0 0-1.218-1.485C65.718 10.316 48.692.782 47.2.314c-1.308-.409-2.872-.42-4.154-.03M13.211 6.231c1.926.805 2.396 3.331.898 4.83-1.216 1.216-2.952 1.216-4.168 0-2.318-2.32.24-6.097 3.27-4.83m65.98 0c1.925.805 2.394 3.331.897 4.83-1.227 1.228-2.906 1.219-4.146-.022-2.329-2.33.205-6.08 3.248-4.808M27.48 19.939l-.46.46v13.163l.46.46c.558.56 1.386.602 2.002.103.435-.352.444-.43.536-4.442l.094-4.084 3.242 4.332c1.784 2.382 3.372 4.381 3.53 4.442a1.54 1.54 0 0 0 1.671-.35l.46-.46V20.398l-.46-.46c-.558-.558-1.386-.6-2.002-.102-.435.352-.445.43-.537 4.442l-.093 4.084-3.243-4.332c-1.783-2.382-3.372-4.381-3.53-4.442a1.54 1.54 0 0 0-1.67.35m14.994 0-.46.46v13.163l.46.46c.29.291.675.461 1.04.461s.75-.17 1.04-.46c.443-.444.46-.554.46-3.001v-2.54h2.538c2.446 0 2.556-.017 3-.461.608-.61.608-1.471 0-2.08-.444-.444-.554-.46-3-.46h-2.539v-3h2.54c2.445 0 2.555-.017 2.998-.46.29-.291.46-.675.46-1.04 0-.366-.17-.75-.46-1.04-.456-.457-.489-.461-4.038-.461s-3.582.004-4.039.46m11.997 0c-.29.29-.46.675-.46 1.04 0 .958.708 1.5 1.96 1.5h1.039v11.083l.46.46c.29.291.674.461 1.04.461.364 0 .749-.17 1.038-.46l.46-.46V22.48h1.04c1.25 0 1.96-.543 1.96-1.5 0-.366-.17-.75-.46-1.04-.457-.457-.49-.461-4.039-.461-3.55 0-3.582.004-4.038.46M7.213 22.735c1.94.812 2.392 3.291.876 4.809-1.24 1.24-2.92 1.25-4.146.022-2.318-2.32.24-6.097 3.27-4.83m77.975 0c1.94.812 2.392 3.291.876 4.809-1.24 1.24-2.92 1.25-4.146.022-2.318-2.32.24-6.097 3.27-4.83M10.387 42.28C5.405 43.372 1.367 47.464.31 52.49c-.414 1.968-.413 27.83.001 29.588.875 3.713 4.066 6.87 7.73 7.647 2.9.615 6.44.177 8.642-1.069 1.406-.795 3.35-2.792 4.102-4.21.47-.89 1.293-1.801 3.68-4.079l3.075-2.933h34.955l3.068 2.927c2.395 2.285 3.202 3.18 3.677 4.08.343.649 1.181 1.726 1.921 2.467 2.13 2.133 4.564 3.087 7.874 3.086 3.456 0 5.907-.965 8.018-3.152 2.057-2.133 2.94-4.433 2.944-7.682.003-1.603-.034-1.78-.457-2.203-.609-.61-1.47-.61-2.079 0-.42.42-.46.607-.46 2.137 0 3.79-1.777 6.453-5.018 7.519-2.185.718-5.413.428-7.256-.653-1.127-.662-2.48-2.166-2.996-3.336-.36-.816-1.092-1.61-4.208-4.567-2.72-2.58-3.935-3.611-4.354-3.695-.754-.15-35.546-.153-36.299-.002-.406.081-1.667 1.152-4.355 3.698-3.126 2.962-3.859 3.755-4.218 4.569-.516 1.167-1.869 2.672-2.995 3.332-2.616 1.535-6.977 1.362-9.32-.368a7.3 7.3 0 0 1-2.578-3.629c-.362-1.146-.376-1.703-.376-14.636 0-14.572-.006-14.484 1.041-16.647 1.074-2.218 3.142-4.083 5.636-5.082l1.29-.516h67.852l1.406.52c2.788 1.031 5 3.217 6.137 6.067l.515 1.29.095 9.91.095 9.91.442.359c.616.499 1.444.457 2.003-.102l.46-.46v-9.276c0-10.73-.046-11.187-1.418-13.968-1.392-2.822-3.854-5.139-6.77-6.371-2.396-1.013-.951-.975-36.95-.955-27.422.016-33.512.064-34.475.275m57.12 4.453c-.92.29-2.489 1.916-2.77 2.871-.52 1.758-.154 3.16 1.17 4.486 1.919 1.92 4.566 1.879 6.342-.098 1.743-1.94 1.689-4.271-.143-6.104q-1.98-1.98-4.599-1.155m-53.522 1.715c-.444.444-.46.554-.46 3.001v2.54h-2.54c-2.445 0-2.555.018-2.998.461-.457.457-.46.49-.46 4.041s.003 3.584.46 4.04c.443.444.553.461 2.999.461h2.538v2.54c0 2.448.017 2.558.46 3.002.457.456.49.46 4.04.46 3.548 0 3.581-.004 4.037-.46.444-.444.46-.554.46-3.001v-2.54h2.54c2.445 0 2.555-.018 2.999-.461.456-.457.46-.49.46-4.041s-.004-3.584-.46-4.04c-.444-.444-.554-.461-3-.461h-2.538v-2.54c0-2.448-.017-2.558-.46-3.002-.457-.456-.49-.46-4.039-.46-3.55 0-3.582.004-4.038.46m20.993 0c-.29.29-.46.675-.46 1.04 0 .366.17.75.46 1.04.456.457.489.46 4.038.46s3.583-.003 4.039-.46c.29-.29.46-.674.46-1.04 0-.365-.17-.75-.46-1.04-.456-.456-.49-.46-4.039-.46s-3.582.004-4.038.46m11.996 0c-.29.29-.46.675-.46 1.04 0 .366.17.75.46 1.04.456.457.49.46 4.039.46s3.582-.003 4.038-.46c.29-.29.46-.674.46-1.04 0-.365-.17-.75-.46-1.04-.456-.456-.49-.46-4.038-.46-3.55 0-3.583.004-4.039.46m23.072 1.5c.29.291.46.675.46 1.04 0 .366-.17.75-.46 1.04s-.674.461-1.04.461c-.364 0-.749-.17-1.039-.46s-.46-.675-.46-1.04.17-.75.46-1.04.675-.46 1.04-.46.75.17 1.04.46M19.524 53.53c0 2.448.016 2.558.46 3.001.443.444.553.46 2.999.46h2.539v3.001h-2.54c-2.445 0-2.555.017-2.998.46-.444.444-.46.554-.46 3.002v2.54h-3v-2.54c0-2.448-.016-2.558-.46-3.001-.443-.444-.553-.46-2.999-.46h-2.539V56.99h2.54c2.445 0 2.555-.017 2.998-.46.444-.444.46-.554.46-3.002v-2.54h3zm56.981.706c-.92.29-2.489 1.916-2.77 2.871-.52 1.759-.154 3.16 1.17 4.486 1.92 1.92 4.566 1.879 6.342-.098 1.743-1.94 1.689-4.271-.143-6.104q-1.98-1.98-4.599-1.155m2.54 3.216c.29.29.46.675.46 1.04s-.17.75-.46 1.04-.675.46-1.04.46-.75-.17-1.04-.46-.46-.675-.46-1.04.17-.75.46-1.04.675-.46 1.04-.46.75.17 1.04.46M63.01 58.737c-.92.29-2.49 1.916-2.772 2.871-.519 1.759-.153 3.16 1.172 4.486.97.972 1.92 1.4 3.1 1.4 2.322 0 4.498-2.177 4.498-4.5 0-1.18-.429-2.13-1.4-3.102q-1.98-1.98-4.598-1.155m-28.031 1.716c-.456.456-.46.49-.46 4.04 0 4.822-.32 4.502 4.498 4.502s4.499.32 4.499-4.501.32-4.502-4.499-4.502c-3.549 0-3.582.004-4.038.46m11.996 0c-.456.456-.46.49-.46 4.04 0 4.822-.32 4.502 4.499 4.502 3.549 0 3.582-.004 4.038-.46.456-.457.46-.49.46-4.041 0-4.821.32-4.502-4.498-4.502-3.55 0-3.583.004-4.039.46m18.574 1.5c.29.29.46.675.46 1.04 0 .366-.17.75-.46 1.04s-.675.46-1.04.46-.75-.17-1.04-.46-.46-.674-.46-1.04c0-.365.17-.75.46-1.04s.675-.46 1.04-.46.75.17 1.04.46m-25.032 2.54v1.501h-3v-3h3zm11.996 0v1.501h-2.999v-3h2.999zm19.494 1.746c-.92.29-2.49 1.916-2.771 2.872-.52 1.758-.153 3.16 1.171 4.486.97.97 1.92 1.4 3.1 1.4 2.322 0 4.498-2.178 4.498-4.502 0-1.18-.429-2.13-1.4-3.1q-1.98-1.98-4.598-1.156m2.539 3.217c.29.29.46.674.46 1.04 0 .365-.17.75-.46 1.04s-.675.46-1.04.46-.75-.17-1.04-.46-.46-.675-.46-1.04c0-.366.17-.75.46-1.04s.675-.46 1.04-.46.75.17 1.04.46" clip-rule="evenodd"/></g><defs><clipPath id="a"><path fill="#fff" d="M0 0h90v90H0z"/></clipPath></defs></svg>