<svg xmlns="http://www.w3.org/2000/svg" width="68" height="63" fill="none" viewBox="0 0 68 63"><path fill="#fff" fill-rule="evenodd" d="m2.534 2.558 2.533 2.559h58.616l2.158-2.559L68 0H0zM8.942 9.64l2.485 2.817 6.717.026 6.716.025.169 4.006.168 4.006 4.59-5.554c2.525-3.055 5.061-6.137 5.636-6.848l1.046-1.295H6.456zm28.878 5.39c-3.99 4.866-3.723 3.174-3.717 23.483.003 10.162.195 18.751.427 19.087s2.035 1.69 4.007 3.006L42.123 63V18.614h15.779l2.47-2.843 2.47-2.842h-23.3zm-8.762 4.47-3.599 4.31.156 10.969.156 17.48 3.293 2.242c1.81 1.233 3.428 2.107 3.594 1.943s.234-14.562.15-24.034l-.152-17.221z" clip-rule="evenodd"/></svg>