<svg xmlns="http://www.w3.org/2000/svg" width="90" height="90" fill="none" viewBox="0 0 90 90"><path fill="#fff" fill-rule="evenodd" d="M10.106.18C9.94.275 7.599 3.612 4.903 7.596L0 14.838l.067 3.403c.067 3.361.075 3.417.681 4.676.83 1.725 1.95 2.87 3.603 3.683.748.368 1.479.67 1.624.67.223 0 .265 4.204.265 26.329v26.33l.951.936h20.436l7.452 4.244c4.1 2.334 7.812 4.389 8.25 4.567.945.382 2.132.43 3.047.123.362-.122 4.112-2.182 8.333-4.578l7.675-4.356h20.425l.951-.936v-26.33c0-22.125.042-26.33.265-26.33.145 0 .876-.3 1.624-.669 1.653-.814 2.772-1.958 3.602-3.683.607-1.259.615-1.315.682-4.676L90 14.838l-4.904-7.245C82.398 3.608 80.04.268 79.856.17c-.444-.234-69.344-.225-69.75.009m75.4 13.548H4.494l7.234-10.681H78.27zm-73.066 4.89c0 1.01-.106 2.19-.235 2.622-.315 1.048-1.92 2.628-2.985 2.938-1.817.528-3.266.155-4.635-1.192-1.198-1.18-1.447-1.931-1.447-4.368v-1.838h9.302zm12.404 0c0 1.01-.106 2.19-.236 2.622-.315 1.048-1.92 2.628-2.985 2.938-1.817.528-3.265.155-4.635-1.192-1.198-1.18-1.447-1.931-1.447-4.368v-1.838h9.303zm12.403 0c0 1.01-.106 2.19-.236 2.622-.314 1.048-1.92 2.628-2.984 2.938-1.817.528-3.266.155-4.636-1.192-1.197-1.18-1.447-1.931-1.447-4.368v-1.838h9.303zm12.403 0c0 1.01-.106 2.19-.235 2.622-.315 1.048-1.92 2.628-2.985 2.938-1.817.528-3.266.155-4.635-1.192-1.198-1.18-1.447-1.931-1.447-4.368v-1.838h9.302zm12.403 0c0 1.01-.105 2.19-.235 2.622-.315 1.048-1.92 2.628-2.985 2.938-1.817.528-3.265.155-4.635-1.192-1.198-1.18-1.447-1.931-1.447-4.368v-1.838h9.302zm12.404 0c0 1.01-.106 2.19-.236 2.622-.314 1.048-1.92 2.628-2.984 2.938-1.817.528-3.266.155-4.636-1.192-1.198-1.18-1.447-1.931-1.447-4.368v-1.838h9.303zm12.403 0c0 1.01-.106 2.19-.236 2.622-.314 1.048-1.92 2.628-2.984 2.938-1.817.528-3.266.155-4.636-1.192-1.197-1.18-1.446-1.931-1.446-4.368v-1.838h9.302zM14.857 25.29c.514.484 1.51 1.15 2.215 1.478 1.155.539 1.46.597 3.122.597 1.66 0 1.966-.058 3.121-.597.705-.329 1.686-.98 2.18-1.446l.9-.848.9.848c.494.467 1.475 1.117 2.18 1.446 1.155.539 1.46.597 3.122.597 1.66 0 1.966-.058 3.122-.597.704-.329 1.685-.98 2.18-1.446l.9-.848.899.848c.495.467 1.476 1.117 2.18 1.446 1.155.539 1.461.597 3.122.597s1.967-.058 3.122-.597c.704-.329 1.685-.98 2.18-1.446l.9-.848.9.848c.494.467 1.475 1.117 2.18 1.446 1.155.539 1.46.597 3.121.597s1.967-.058 3.122-.597c.705-.329 1.686-.98 2.18-1.446l.9-.848.9.848c.494.467 1.475 1.117 2.18 1.446 1.155.539 1.46.597 3.121.597s1.967-.058 3.123-.597c.704-.329 1.685-.98 2.18-1.446l.9-.848.871.823c.88.83 2.267 1.621 3.246 1.854l.533.126v50.536H67.81l1.175-.748c.806-.512 1.349-1.037 1.726-1.668l.55-.922V47.582l-.537-.9c-.296-.494-.907-1.146-1.357-1.448-1.467-.983-22.312-12.747-22.99-12.975-.842-.283-1.914-.282-2.752.003-.656.222-20.872 11.624-22.79 12.853-.633.406-1.207.982-1.55 1.556l-.544.911v26.893l.55.922c.377.63.92 1.156 1.726 1.668l1.176.748H9.34V27.277l.533-.126c1.005-.239 2.357-1.024 3.189-1.854.457-.456.838-.843.846-.859.007-.016.434.367.948.852M56.4 41.31c6.041 3.422 11.18 6.431 11.42 6.687l.436.465v25.134l-.436.465c-.586.625-22.293 12.907-22.812 12.907-.515 0-22.237-12.285-22.828-12.91l-.436-.462V61.039c0-11.678.023-12.584.339-12.958.48-.57 22.337-12.969 22.883-12.981.252-.006 5.286 2.729 11.434 6.21" clip-rule="evenodd"/><path fill="#fff" fill-rule="evenodd" d="M28.628 51.694h32.325l2.38-2.676h-37.5zm3.507 3.838 7.408.027.186 4.19 2.531-2.905a920 920 0 0 0 3.108-3.581l.577-.677H29.394zm14.555 1.345c-.657.76-1.104 1.214-1.409 1.76-.203.362-.342.766-.438 1.326-.242 1.421-.204 3.852-.203 9.195.002 5.314.108 9.806.235 9.982.128.176 1.123.883 2.21 1.572l1.978 1.252V58.752h8.701l2.725-2.973H47.64zm-6.817 4.593.086 5.736.086 9.142 1.816 1.172c.999.645 1.89 1.102 1.983 1.016.091-.086.128-7.615.082-12.568l-.084-9.006z" clip-rule="evenodd"/></svg>