<svg xmlns="http://www.w3.org/2000/svg" width="204" height="1951" fill="none" viewBox="0 0 204 1951"><path stroke="url(#a)" stroke-width="6" d="M175 53v106.617c-1.827 17.853-18.831 54.35-72.235 57.524s-66.09 42.978-65.759 62.483V355M175 735v106.617c-1.827 17.853-18.831 54.35-72.235 57.524s-66.09 42.978-65.759 62.483V1037M39 1090v106.62c1.827 17.85 18.83 54.35 72.235 57.52s66.091 42.98 65.759 62.48V1392M39 405v103c1.827 17.852 16.096 44.709 69.5 47.883s66.091 46.595 65.759 66.1V685.5m.741 757v407c-1.167 22.5-15.9 67.7-65.5 68.5h-46M201 28.5c0 14.083-11.417 25.5-25.5 25.5S150 42.583 150 28.5 161.417 3 175.5 3 201 14.417 201 28.5Zm0 682c0 14.083-11.417 25.5-25.5 25.5S150 724.583 150 710.5s11.417-25.5 25.5-25.5 25.5 11.417 25.5 25.5Zm-188 355c0 14.08 11.417 25.5 25.5 25.5s25.5-11.42 25.5-25.5-11.417-25.5-25.5-25.5-25.5 11.42-25.5 25.5Zm0-685c0 14.083 11.417 25.5 25.5 25.5S64 394.583 64 380.5 52.585 355 38.5 355 13 366.417 13 380.5ZM201 1417c0 14.08-11.417 25.5-25.5 25.5S150 1431.08 150 1417s11.417-25.5 25.5-25.5 25.5 11.42 25.5 25.5ZM64 1922c0 14.08-11.417 25.5-25.5 25.5S13 1936.08 13 1922s11.417-25.5 25.5-25.5S64 1907.92 64 1922Z"/><path fill="#fff" d="M88.65 1074.91v-2.64h3.42v1.59l1.14 1.14h6.54l1.2-1.2v-3.87l-1.17-1.17H91.8l-3.09-3.06v-5.61l3.09-3.09h9.24l3.09 3.09v2.67h-3.42v-1.62l-1.17-1.14H93.3l-1.17 1.14v3.48l1.17 1.14h7.98l3.09 3.09v6l-3.15 3.15h-9.48zm26.655-14.94h-6.3V1057h16.08v2.97h-6.3V1078h-3.48zm15.786-2.97h14.64v2.97h-11.16v6h10.29v2.94h-10.29v6.12h11.16v2.97h-14.64zm21.229 0h12.78l3.06 3.09v7.14l-3.09 3.12h-9.27v7.65h-3.48zm11.22 10.41 1.2-1.2v-5.07l-1.2-1.2h-7.74v7.47zm30.942 6.57h-10.2v-3.93l9.21-13.05h4.47v13.98h2.55v3h-2.55v4.02h-3.48zm.12-2.91v-10.38h-.15l-6.78 9.69v.69zM1.65 1424.91v-2.64h3.42v1.59l1.14 1.14h6.54l1.2-1.2v-3.87l-1.17-1.17H4.8l-3.09-3.06v-5.61L4.8 1407h9.24l3.09 3.09v2.67h-3.42v-1.62l-1.17-1.14H6.3l-1.17 1.14v3.48l1.17 1.14h7.98l3.09 3.09v6l-3.15 3.15H4.74zm26.656-14.94h-6.3V1407h16.08v2.97h-6.3V1428h-3.48zM44.09 1407h14.64v2.97H47.57v6h10.29v2.94H47.57v6.12h11.16v2.97H44.09zm21.23 0H78.1l3.06 3.09v7.14l-3.09 3.12H68.8v7.65h-3.48zm11.22 10.41 1.2-1.2v-5.07l-1.2-1.2H68.8v7.47zm21.791 7.5v-3.06h3.48v2.01l1.17 1.14h5.64l1.17-1.14v-5.16l-1.17-1.17h-9.99V1407h14.22v3h-10.8v4.53h8.1l3.12 3.12v7.26l-3.09 3.09h-8.76zm-9.681-1034v-2.64h3.42v1.59l1.14 1.14h6.54l1.2-1.2v-3.87l-1.17-1.17H91.8l-3.09-3.06v-5.61L91.8 373h9.24l3.09 3.09v2.67h-3.42v-1.62L99.54 376H93.3l-1.17 1.14v3.48l1.17 1.14h7.98l3.09 3.09v6l-3.15 3.15h-9.48zm26.655-14.94h-6.3V373h16.08v2.97h-6.3V394h-3.48zm15.786-2.97h14.64v2.97h-11.16v6h10.29v2.94h-10.29v6.12h11.16V394h-14.64zm21.229 0h12.78l3.06 3.09v7.14l-3.09 3.12h-9.27V394h-3.48zm11.22 10.41 1.2-1.2v-5.07l-1.2-1.2h-7.74v7.47zm21.612 6.18 10.86-10.14v-2.31l-1.17-1.14h-5.16l-1.17 1.14v1.95h-3.48v-3l3.09-3.09h8.28l3.09 3.09v4.38l-10.77 9.93v.63h10.89V394h-14.46zM8.65 36.91v-2.64h3.42v1.59L13.21 37h6.54l1.2-1.2v-3.87l-1.17-1.17H11.8L8.71 27.7v-5.61L11.8 19h9.24l3.09 3.09v2.67h-3.42v-1.62L19.54 22H13.3l-1.17 1.14v3.48l1.17 1.14h7.98l3.09 3.09v6L21.22 40h-9.48zm26.656-14.94h-6.3V19h16.08v2.97h-6.3V40h-3.48zM51.09 19h14.64v2.97H54.57v6h10.29v2.94H54.57v6.12h11.16V40H51.09zm21.23 0H85.1l3.06 3.09v7.14l-3.09 3.12H75.8V40h-3.48zm11.22 10.41 1.2-1.2v-5.07l-1.2-1.2H75.8v7.47zm25.781-6.72-4.59 2.37v-3.21l5.19-2.85h2.88v21h-3.48zM1.65 720.91v-2.64h3.42v1.59L6.21 721h6.54l1.2-1.2v-3.87l-1.17-1.17H4.8l-3.09-3.06v-5.61L4.8 703h9.24l3.09 3.09v2.67h-3.42v-1.62L12.54 706H6.3l-1.17 1.14v3.48l1.17 1.14h7.98l3.09 3.09v6L14.22 724H4.74zm26.656-14.94h-6.3V703h16.08v2.97h-6.3V724h-3.48zM44.09 703h14.64v2.97H47.57v6h10.29v2.94H47.57v6.12h11.16V724H44.09zm21.23 0H78.1l3.06 3.09v7.14l-3.09 3.12H68.8V724h-3.48zm11.22 10.41 1.2-1.2v-5.07l-1.2-1.2H68.8v7.47zm21.491 7.5v-2.97h3.48v1.92l1.17 1.14h5.7l1.17-1.14v-3.81l-1.11-1.11h-6v-3h6l1.11-1.11v-3.69l-1.17-1.14h-5.52l-1.17 1.14v1.92h-3.48v-2.97l3.09-3.09h8.64l3.09 3.09v5.76l-1.62 1.59 1.62 1.62v5.85l-3.09 3.09h-8.82z"/><circle cx="175.5" cy="28.5" r="28.5" fill="url(#b)"/><circle cx="38.5" cy="380.5" r="28.5" fill="url(#c)"/><defs><linearGradient id="a" x1="43.8857" x2="227.544" y1="3.00079" y2="7.29296" gradientUnits="userSpaceOnUse"><stop stop-color="#54D6FF"/><stop offset="0.546875" stop-color="#C275FF"/><stop offset="1" stop-color="#F36AFF"/></linearGradient><linearGradient id="b" x1="156.364" x2="209.003" y1="2.31088e-05" y2="12.7239" gradientUnits="userSpaceOnUse"><stop stop-color="#FC84FF"/><stop offset="1" stop-color="#54D1FA"/></linearGradient><linearGradient id="c" x1="19.3643" x2="72.0025" y1="352" y2="364.724" gradientUnits="userSpaceOnUse"><stop stop-color="#FC84FF"/><stop offset="1" stop-color="#54D1FA"/></linearGradient></defs></svg>