<svg xmlns="http://www.w3.org/2000/svg" width="56" height="1093" fill="none" viewBox="0 0 56 1093"><path stroke="url(#a)" stroke-width="6" d="M26.647 43.437V199.5m0 36.291v156.064m0 37.227v156.063m0 36.292V777.5m0 37.582v208.628M45 26.073c0 9.981-8.059 18.072-18 18.072S9 36.054 9 26.073 17.059 8 27 8s18 8.091 18 18.073Zm0 192.354c0 9.982-8.059 18.073-18 18.073s-18-8.091-18-18.073c0-9.981 8.059-18.072 18-18.072s18 8.091 18 18.072Zm0 193.291c0 9.981-8.059 18.073-18 18.073s-18-8.092-18-18.073 8.059-18.073 18-18.073 18 8.092 18 18.073Zm0 192.355c0 9.981-8.059 18.072-18 18.072s-18-8.091-18-18.072S17.059 586 27 586s18 8.091 18 18.073Zm0 193.645c0 9.981-8.059 18.073-18 18.073s-18-8.092-18-18.073 8.059-18.073 18-18.073 18 8.092 18 18.073Zm0 244.922c0 9.98-8.059 18.07-18 18.07s-18-8.09-18-18.07c0-9.99 8.059-18.08 18-18.08s18 8.09 18 18.08Z"/><circle cx="26.4997" cy="26.5001" r="21.5" fill="url(#b)" transform="rotate(-14 26.5 26.5)"/><circle cx="26.5933" cy="218.593" r="21.5" fill="url(#c)" transform="rotate(-16 26.593 218.593)"/><path fill="#fff" d="M43.558 295.23h-1.232v-1.596h.742l.532-.532v-3.052l-.56-.56h-1.806l-.546.546v3.724l-1.428 1.442h-2.618L35.2 293.76v-4.312l1.442-1.442h1.246v1.596h-.756l-.532.546v2.912l.532.546h1.624l.532-.546v-3.724l1.442-1.442h2.8l1.47 1.47v4.424zm-6.972-12.439v2.94H35.2v-7.504h1.386v2.94H45v1.624zm-1.386-7.367v-6.832h1.386v5.208h2.8v-4.802h1.372v4.802h2.856v-5.208H45v6.832zm0-9.907v-5.964l1.442-1.428h3.332l1.456 1.442v4.326H45v1.624zm4.858-5.236-.56-.56h-2.366l-.56.56v3.612h3.486zm2.884-10.085-4.732-5.068h-1.078l-.532.546v2.408l.532.546h.91v1.624h-1.4L35.2 248.81v-3.864l1.442-1.442h2.044l4.634 5.026h.294v-5.082H45v6.748zm.616 630.034h-1.232v-1.596h.742l.532-.532v-3.052l-.56-.56h-1.806l-.546.546v3.724l-1.428 1.442h-2.618L35.2 878.76v-4.312l1.442-1.442h1.246v1.596h-.756l-.532.546v2.912l.532.546h1.624l.532-.546v-3.724l1.442-1.442h2.8l1.47 1.47v4.424zm-6.972-12.439v2.94H35.2v-7.504h1.386v2.94H45v1.624zm-1.386-7.367v-6.832h1.386v5.208h2.8v-4.802h1.372v4.802h2.856v-5.208H45v6.832zm0-9.907v-5.964l1.442-1.428h3.332l1.456 1.442v4.326H45v1.624zm4.858-5.236-.56-.56h-2.366l-.56.56v3.612h3.486zm3.5-10.169H42.13v-1.624h.938l.532-.546v-2.632l-.532-.546H40.66l-.546.546v4.662H35.2v-6.636h1.4v5.04h2.114v-3.78l1.456-1.456h3.388L45 829.582v4.088zm0-151.882h-1.232v-1.596h.742l.532-.532v-3.052l-.56-.56h-1.806l-.546.546v3.724l-1.428 1.442h-2.618L35.2 681.76v-4.312l1.442-1.442h1.246v1.596h-.756l-.532.546v2.912l.532.546h1.624l.532-.546v-3.724l1.442-1.442h2.8l1.47 1.47v4.424zm-6.972-12.439v2.94H35.2v-7.504h1.386v2.94H45v1.624zm-1.386-7.367v-6.832h1.386v5.208h2.8v-4.802h1.372v4.802h2.856v-5.208H45v6.832zm0-9.907v-5.964l1.442-1.428h3.332l1.456 1.442v4.326H45v1.624zm4.858-5.236-.56-.56h-2.366l-.56.56v3.612h3.486zm3.066-14.439v4.76H41.29l-6.09-4.298v-2.086h6.524v-1.19h1.4v1.19H45v1.624zm-1.358-.056h-4.844v.07l4.522 3.164h.322zm1.792-145.556h-1.232v-1.596h.742l.532-.532v-3.052l-.56-.56h-1.806l-.546.546v3.724l-1.428 1.442h-2.618L35.2 486.76v-4.312l1.442-1.442h1.246v1.596h-.756l-.532.546v2.912l.532.546h1.624l.532-.546v-3.724l1.442-1.442h2.8l1.47 1.47v4.424zm-6.972-12.439v2.94H35.2v-7.504h1.386v2.94H45v1.624zm-1.386-7.367v-6.832h1.386v5.208h2.8v-4.802h1.372v4.802h2.856v-5.208H45v6.832zm0-9.907v-5.964l1.442-1.428h3.332l1.456 1.442v4.326H45v1.624zm4.858-5.236-.56-.56h-2.366l-.56.56v3.612h3.486zm3.5-10.029h-1.386v-1.624h.896l.532-.546v-2.66l-.532-.546H41.29l-.518.518v2.8h-1.4v-2.8l-.518-.518h-1.722l-.532.546v2.576l.532.546h.896v1.624h-1.386l-1.442-1.442v-4.032l1.442-1.442h2.688l.742.756.756-.756h2.73L45 437.694v4.116zM2.77 1087.56v-1.23h1.596v.74l.532.53H7.95l.56-.56v-1.81l-.546-.54H4.24l-1.442-1.43v-2.62l1.442-1.44h4.312l1.442 1.44v1.25H8.398v-.76l-.546-.53H4.94l-.546.53v1.63l.546.53h3.724l1.442 1.44v2.8l-1.47 1.47H4.212zm12.44-6.97h-2.94v-1.39h7.503v1.39h-2.94v8.41H15.21zm7.366-1.39h6.832v1.39H24.2v2.8h4.802v1.37H24.2v2.85h5.208v1.39h-6.832zm9.907 0h5.964l1.428 1.44v3.33l-1.442 1.46h-4.326v3.57h-1.624zm5.236 4.86.56-.56v-2.37l-.56-.56h-3.612v3.49zm10.31 3.5v-6.92l1.441-1.44h4.116l1.442 1.44v1.29h-1.624v-.77l-.56-.56h-2.632l-.56.56v2.63l.924-.91h3.066l1.442 1.44v3.24l-1.442 1.44H49.47zm4.871.04.56-.56v-2.2l-.56-.56h-2.1l-1.148 1.18v1.58l.56.56zm-9.342-985.37h-1.232v-1.596h.742l.532-.532V97.05l-.56-.56h-1.806l-.546.546v3.724l-1.428 1.442h-2.618L35.2 100.76v-4.312l1.442-1.442h1.246v1.596h-.756l-.532.546v2.912l.532.546h1.624l.532-.546v-3.724l1.442-1.442h2.8l1.47 1.47v4.424zm-6.972-12.44v2.94H35.2v-7.503h1.386v2.94H45v1.624zM35.2 82.425v-6.832h1.386V80.8h2.8v-4.802h1.372V80.8h2.856v-5.208H45v6.832zm0-9.907v-5.964l1.442-1.428h3.332l1.456 1.442v4.326H45v1.624zm4.858-5.236-.56-.56h-2.366l-.56.56v3.612h3.486zM36.922 55.25l1.106 2.142H36.53L35.2 54.97v-1.344H45v1.624z"/><defs><linearGradient id="a" x1="14.9143" x2="50.0996" y1="8.00043" y2="8.29128" gradientUnits="userSpaceOnUse"><stop stop-color="#54D6FF"/><stop offset="0.546875" stop-color="#C275FF"/><stop offset="1" stop-color="#F36AFF"/></linearGradient><linearGradient id="b" x1="12.064" x2="51.7735" y1="5.00014" y2="14.5989" gradientUnits="userSpaceOnUse"><stop stop-color="#FC84FF"/><stop offset="1" stop-color="#54D1FA"/></linearGradient><linearGradient id="c" x1="12.1576" x2="51.8672" y1="197.093" y2="206.692" gradientUnits="userSpaceOnUse"><stop stop-color="#FC84FF"/><stop offset="1" stop-color="#54D1FA"/></linearGradient></defs></svg>