<svg xmlns="http://www.w3.org/2000/svg" width="21" height="19" fill="none" viewBox="0 0 21 19"><path fill="#fff" fill-rule="evenodd" d="M13.83.043c-.973.122-1.987.683-2.7 1.495-.376.426-.568.73-.817 1.287-.314.705-.43 1.232-.458 2.077l-.023.67-.23-.029a25 25 0 0 1-1.546-.31c-.396-.095-.591.036-.603.404-.01.272.147.394.692.537.642.17 1.478.302 1.974.313.428.01.43.01.534-.123.094-.12.101-.157.078-.408-.062-.68-.072-1.246-.027-1.567a4.43 4.43 0 0 1 .925-2.118c.806-.973 2.042-1.492 3.17-1.33.844.12 1.456.426 2.092 1.045.158.153.33.302.38.329.13.069.532-.022 1.243-.28.316-.115.576-.196.576-.18 0 .07-.509.63-.74.812-.427.337-.489.405-.516.563-.03.173.06.404.185.478.122.072.391.055.896-.058l.463-.103-.175.199c-.096.11-.355.361-.575.559s-.419.398-.442.446-.042.337-.042.644c-.007 5.662-3.216 10.59-7.92 12.164-1.652.553-3.46.693-5.216.405-.817-.133-2.024-.512-2.66-.833l-.25-.126.246-.032a8.5 8.5 0 0 0 3.862-1.545c.646-.475.72-.556.72-.792 0-.148-.026-.218-.116-.318-.097-.107-.162-.133-.4-.157-.718-.073-1.465-.364-1.968-.766a4.6 4.6 0 0 1-.935-1.072l-.206-.34.426-.029c.888-.059 1.197-.21 1.197-.583 0-.274-.11-.366-.675-.564-.646-.226-1.058-.507-1.535-1.046A4 4 0 0 1 1.9 8.424c-.101-.272-.246-.818-.223-.843.006-.006.176.04.38.1.203.06.549.123.767.139l.398.028.126-.14a.4.4 0 0 0 .126-.33c0-.207-.008-.217-.493-.641-.517-.453-1.007-1.304-1.2-2.084-.08-.318-.094-.488-.093-1.08 0-.6.014-.757.097-1.078l.097-.376.457.491c.529.568 1.05 1.054 1.545 1.439.43.333.595.359.786.123.236-.29.15-.501-.378-.92-.66-.523-1.327-1.196-2.01-2.025-.288-.35-.318-.374-.472-.373a.44.44 0 0 0-.253.08c-.1.088-.355.632-.474 1.007-.315.999-.318 2.318-.008 3.272.13.395.35.892.517 1.16.066.106.109.192.095.192s-.096-.04-.185-.09q-.357-.2-.578.041c-.11.121-.12.16-.12.446 0 .697.215 1.606.54 2.278.245.504.53.905.971 1.36.355.368.383.408.282.408-.132 0-.3.167-.338.338-.054.237.339 1.18.717 1.725.544.78 1.375 1.449 2.142 1.722.124.044.242.09.26.102.114.072-1.156.687-1.854.898-.835.253-1.261.31-2.36.312-.958.003-.976.005-1.068.106-.11.12-.13.447-.037.57.032.043.254.207.493.365 1.449.96 3.084 1.558 4.915 1.8.539.071 2.15.072 2.671.001 2.097-.283 3.758-.926 5.309-2.053 3.294-2.394 5.351-6.503 5.507-10.997l.025-.737.141-.119c.479-.402 1.183-1.22 1.637-1.898.208-.311.243-.391.243-.56 0-.16-.021-.217-.115-.306-.16-.152-.339-.14-.777.053-.202.09-.374.156-.382.147-.008-.008.061-.138.153-.287.252-.408.536-1.096.558-1.35.017-.193.006-.234-.096-.352-.171-.197-.35-.181-.769.067a7.2 7.2 0 0 1-1.5.686l-.506.168-.193-.18C16.658.566 15.789.152 14.884.04a3.4 3.4 0 0 0-1.054.003M5.91 4.468c-.138.027-.299.266-.299.443 0 .109.036.19.127.29.373.413.944-.157.582-.58-.116-.136-.249-.186-.41-.153m9.067 6.627a.4.4 0 0 0-.12.294c0 .384.437.592.68.324.237-.261.048-.75-.29-.75-.11 0-.18.034-.27.132m-.798 1.266a1.5 1.5 0 0 0-.273.283c-.453.607-1.245 1.363-1.971 1.883-.53.38-.57.426-.57.655 0 .245.173.45.38.45.315 0 1.454-.903 2.275-1.806.824-.903.924-1.13.631-1.424-.145-.146-.297-.16-.472-.041" clip-rule="evenodd"/></svg>