<svg xmlns="http://www.w3.org/2000/svg" width="90" height="90" fill="none" viewBox="0 0 90 90"><mask id="a" fill="#fff"><path fill-rule="evenodd" d="M43.04 2.592c-.326.185-1.8 1.065-3.276 1.955s-2.815 1.618-2.977 1.618c-.16 0-1.384.712-2.72 1.583-1.334.87-2.57 1.582-2.746 1.582s-.978.45-1.784.999c-.806.55-2.488 1.555-3.738 2.236-1.25.68-2.777 1.59-3.393 2.02-1.084.758-1.096.806-.394 1.48.398.382 1.878 1.31 3.287 2.062s3.095 1.682 3.745 2.068c1.317.782.533 1.101 7.392-3.004a148 148 0 0 1 4.236-2.422c1.192-.65 2.586-1.513 3.098-1.918 1.03-.813 1.197-.763 4.16 1.242.95.644 1.883 1.171 2.07 1.171.189 0 1.228.592 2.309 1.316 1.081.723 3.24 2 4.796 2.837l2.83 1.523 1.31-.989c.72-.543 2.34-1.507 3.6-2.141s2.56-1.452 2.89-1.817c.546-.606.402-.79-1.67-2.12-1.246-.8-2.547-1.554-2.89-1.674s-.888-.44-1.213-.709-1.567-.986-2.76-1.593-2.664-1.446-3.271-1.865c-1.005-.694-4.018-2.431-8.478-4.888-1.728-.953-3.352-1.156-4.414-.552M13.867 19.517c-.53.38-2.3 1.414-3.932 2.296l-2.968 1.603-.109 5.539-.109 5.538 1.432.77c2.82 1.518 4.326 2.377 5.657 3.229.743.475 1.498.774 1.675.664.179-.11.324-2.424.324-5.142v-4.94l1.224-.674c1.08-.594 5.02-2.966 6.66-4.01.509-.323.481-.462-.197-.985-.433-.335-1.586-1.006-2.562-1.49a36 36 0 0 1-3.408-1.985c-1.91-1.292-2.39-1.346-3.687-.413m28.58.572a70 70 0 0 1-3.942 2.288c-1.084.571-1.971 1.272-1.971 1.557s1.153 1.196 2.562 2.025c1.41.83 3.151 1.878 3.871 2.33 1.54.967 2.551 1.044 3.212.244.263-.318.861-.694 1.33-.835 1.006-.303 6.173-3.422 6.173-3.726 0-.271-1.016-.9-4.261-2.642-1.45-.778-2.917-1.66-3.26-1.96-.905-.793-1.513-.675-3.714.719m29.743-.152c-.964.611-2.285 1.386-2.936 1.72-2.012 1.036-3.74 2.104-3.74 2.311.001.224 2.069 1.5 5.875 3.625l2.596 1.449.11 5.177c.06 2.848.212 5.178.337 5.178s1.015-.534 1.98-1.187c.963-.652 1.853-1.187 1.976-1.187s1.268-.636 2.543-1.413l2.318-1.413V23.683l-2.464-1.306c-1.355-.718-3.205-1.81-4.112-2.428-2.039-1.39-2.31-1.391-4.484-.012m-44.682 8.822a84 84 0 0 1-3.942 2.306l-2.013 1.09-.109 5.312-.109 5.31 2.672 1.56c1.469.858 3.292 1.902 4.05 2.32.76.418 1.998 1.18 2.753 1.695s1.544.936 1.753.936c.21 0 1.055.469 1.88 1.043l1.5 1.042v16.822l1.907 1.228c1.048.675 2.008 1.228 2.133 1.228s1.17.623 2.322 1.385c2.413 1.595 2.795 1.653 4.22.644.576-.408 2.111-1.294 3.412-1.969 4.064-2.108 3.743-1.188 3.76-10.785l.014-8.462 1.712-1.088c.942-.599 1.831-1.088 1.976-1.088s1.332-.712 2.638-1.583c1.306-.87 2.484-1.582 2.618-1.582s1.452-.733 2.929-1.628l2.685-1.628V37.6c0-5.218-.01-5.274-1.04-6.086-.57-.451-1.196-.82-1.389-.82s-1.474-.712-2.847-1.583c-1.373-.87-2.795-1.582-3.16-1.582-.763 0-2.31.817-6.742 3.561-1.735 1.074-3.775 2.246-4.534 2.604s-1.876 1.004-2.482 1.437l-1.103.786-1.55-1.029c-.852-.566-1.668-1.03-1.813-1.03-.144 0-1.195-.62-2.334-1.379-1.138-.758-2.488-1.539-2.997-1.735-.51-.196-1.899-1-3.086-1.786-1.188-.786-2.518-1.426-2.957-1.422s-1.665.555-2.727 1.223M6.864 54.896l.104 13.916 3.35 1.885a376 376 0 0 0 5.323 2.942c1.084.582 2.503 1.457 3.154 1.945s1.626 1.026 2.168 1.196 1.074.436 1.183.594 1.438.955 2.956 1.773c1.518.817 3.23 1.822 3.806 2.232s1.152.745 1.281.745c.13 0 .235-2.473.235-5.496v-5.495l-1.08-.272c-.594-.15-1.17-.4-1.281-.557-.207-.293-3.389-2.23-5.129-3.122-.542-.278-2.316-1.275-3.942-2.216l-2.957-1.71-.106-8.695-.106-8.694-1.274-.669a113 113 0 0 1-5.945-3.39c-.734-.456-1.45-.828-1.59-.828-.139 0-.206 6.262-.15 13.916M81.12 41.969c-.799.544-1.565.989-1.703.989s-1.367.668-2.73 1.483l-2.478 1.484-.111 8.644-.111 8.643-2.457 1.312c-1.351.721-2.927 1.683-3.503 2.137-.575.454-1.202.825-1.394.825s-1.456.668-2.81 1.484c-1.353.816-2.947 1.736-3.54 2.045l-1.08.561v5.053c0 2.78.156 5.15.346 5.267.19.118 1.121-.313 2.07-.959.948-.644 1.854-1.175 2.014-1.18.159-.003 1.206-.573 2.326-1.264 1.988-1.228 2.808-1.693 7.116-4.035 1.152-.626 2.598-1.496 3.214-1.932.615-.435 2.39-1.466 3.942-2.289l2.823-1.496.104-13.88c.057-7.727-.05-13.881-.241-13.881-.19 0-.998.445-1.797.989M21.445 54.727l.11 5.44 1.827.99c1.005.543 2.8 1.567 3.99 2.274s2.363 1.286 2.608 1.286c.307 0 .444-1.584.444-5.126v-5.127l-1.872-1.067a172 172 0 0 1-4.327-2.589c-1.35-.836-2.553-1.52-2.672-1.52s-.169 2.448-.108 5.44M66.1 50.55c-1.084.709-3.035 1.85-4.336 2.537L59.4 54.334l-.11 5.191c-.13 6.102-.169 6.064 3.704 3.61 1.373-.87 2.634-1.584 2.802-1.585s.8-.402 1.404-.89l1.1-.888-.114-5.257-.114-5.256zM35.944 80.245v5.242l2.027 1.187c1.116.653 2.845 1.665 3.844 2.248 1.897 1.11 3.52 1.369 4.68.749a311 311 0 0 0 3.936-2.233l3.252-1.866V74.986l-3.055 1.639c-1.68.901-3.321 1.862-3.646 2.134-1.481 1.238-2.25 1.394-3.21.65-.511-.395-1.976-1.29-3.256-1.988-1.28-.699-2.694-1.528-3.143-1.844-.45-.316-.955-.574-1.123-.574s-.307 2.36-.306 5.242" clip-rule="evenodd"/></mask><path stroke="#fff" stroke-width="6" d="M43.04 2.592c-.326.185-1.8 1.065-3.276 1.955s-2.815 1.618-2.977 1.618c-.16 0-1.384.712-2.72 1.583-1.334.87-2.57 1.582-2.746 1.582s-.978.45-1.784.999c-.806.55-2.488 1.555-3.738 2.236-1.25.68-2.777 1.59-3.393 2.02-1.084.758-1.096.806-.394 1.48.398.382 1.878 1.31 3.287 2.062s3.095 1.682 3.745 2.068c1.317.782.533 1.101 7.392-3.004a148 148 0 0 1 4.236-2.422c1.192-.65 2.586-1.513 3.098-1.918 1.03-.813 1.197-.763 4.16 1.242.95.644 1.883 1.171 2.07 1.171.189 0 1.228.592 2.309 1.316 1.081.723 3.24 2 4.796 2.837l2.83 1.523 1.31-.989c.72-.543 2.34-1.507 3.6-2.141s2.56-1.452 2.89-1.817c.546-.606.402-.79-1.67-2.12-1.246-.8-2.547-1.554-2.89-1.674s-.888-.44-1.213-.709-1.567-.986-2.76-1.593-2.664-1.446-3.271-1.865c-1.005-.694-4.018-2.431-8.478-4.888-1.728-.953-3.352-1.156-4.414-.552ZM13.867 19.517c-.53.38-2.3 1.414-3.932 2.296l-2.968 1.603-.109 5.539-.109 5.538 1.432.77c2.82 1.518 4.326 2.377 5.657 3.229.743.475 1.498.774 1.675.664.179-.11.324-2.424.324-5.142v-4.94l1.224-.674c1.08-.594 5.02-2.966 6.66-4.01.509-.323.481-.462-.197-.985-.433-.335-1.586-1.006-2.562-1.49a36 36 0 0 1-3.408-1.985c-1.91-1.292-2.39-1.346-3.687-.413Zm28.58.572a70 70 0 0 1-3.942 2.288c-1.084.571-1.971 1.272-1.971 1.557s1.153 1.196 2.562 2.025c1.41.83 3.151 1.878 3.871 2.33 1.54.967 2.551 1.044 3.212.244.263-.318.861-.694 1.33-.835 1.006-.303 6.173-3.422 6.173-3.726 0-.271-1.016-.9-4.261-2.642-1.45-.778-2.917-1.66-3.26-1.96-.905-.793-1.513-.675-3.714.719Zm29.743-.152c-.964.611-2.285 1.386-2.936 1.72-2.012 1.036-3.74 2.104-3.74 2.311.001.224 2.069 1.5 5.875 3.625l2.596 1.449.11 5.177c.06 2.848.212 5.178.337 5.178s1.015-.534 1.98-1.187c.963-.652 1.853-1.187 1.976-1.187s1.268-.636 2.543-1.413l2.318-1.413V23.683l-2.464-1.306c-1.355-.718-3.205-1.81-4.112-2.428-2.039-1.39-2.31-1.391-4.484-.012Zm-44.682 8.822a84 84 0 0 1-3.942 2.306l-2.013 1.09-.109 5.312-.109 5.31 2.672 1.56c1.469.858 3.292 1.902 4.05 2.32.76.418 1.998 1.18 2.753 1.695s1.544.936 1.753.936c.21 0 1.055.469 1.88 1.043l1.5 1.042v16.822l1.907 1.228c1.048.675 2.008 1.228 2.133 1.228s1.17.623 2.322 1.385c2.413 1.595 2.795 1.653 4.22.644.576-.408 2.111-1.294 3.412-1.969 4.064-2.108 3.743-1.188 3.76-10.785l.014-8.462 1.712-1.088c.942-.599 1.831-1.088 1.976-1.088s1.332-.712 2.638-1.583c1.306-.87 2.484-1.582 2.618-1.582s1.452-.733 2.929-1.628l2.685-1.628V37.6c0-5.218-.01-5.274-1.04-6.086-.57-.451-1.196-.82-1.389-.82s-1.474-.712-2.847-1.583c-1.373-.87-2.795-1.582-3.16-1.582-.763 0-2.31.817-6.742 3.561-1.735 1.074-3.775 2.246-4.534 2.604s-1.876 1.004-2.482 1.437l-1.103.786-1.55-1.029c-.852-.566-1.668-1.03-1.813-1.03-.144 0-1.195-.62-2.334-1.379-1.138-.758-2.488-1.539-2.997-1.735-.51-.196-1.899-1-3.086-1.786-1.188-.786-2.518-1.426-2.957-1.422s-1.665.555-2.727 1.223ZM6.864 54.896l.104 13.916 3.35 1.885a376 376 0 0 0 5.323 2.942c1.084.582 2.503 1.457 3.154 1.945s1.626 1.026 2.168 1.196 1.074.436 1.183.594 1.438.955 2.956 1.773c1.518.817 3.23 1.822 3.806 2.232s1.152.745 1.281.745c.13 0 .235-2.473.235-5.496v-5.495l-1.08-.272c-.594-.15-1.17-.4-1.281-.557-.207-.293-3.389-2.23-5.129-3.122-.542-.278-2.316-1.275-3.942-2.216l-2.957-1.71-.106-8.695-.106-8.694-1.274-.669a113 113 0 0 1-5.945-3.39c-.734-.456-1.45-.828-1.59-.828-.139 0-.206 6.262-.15 13.916ZM81.12 41.969c-.799.544-1.565.989-1.703.989s-1.367.668-2.73 1.483l-2.478 1.484-.111 8.644-.111 8.643-2.457 1.312c-1.351.721-2.927 1.683-3.503 2.137-.575.454-1.202.825-1.394.825s-1.456.668-2.81 1.484c-1.353.816-2.947 1.736-3.54 2.045l-1.08.561v5.053c0 2.78.156 5.15.346 5.267.19.118 1.121-.313 2.07-.959.948-.644 1.854-1.175 2.014-1.18.159-.003 1.206-.573 2.326-1.264 1.988-1.228 2.808-1.693 7.116-4.035 1.152-.626 2.598-1.496 3.214-1.932.615-.435 2.39-1.466 3.942-2.289l2.823-1.496.104-13.88c.057-7.727-.05-13.881-.241-13.881-.19 0-.998.445-1.797.989ZM21.445 54.727l.11 5.44 1.827.99c1.005.543 2.8 1.567 3.99 2.274s2.363 1.286 2.608 1.286c.307 0 .444-1.584.444-5.126v-5.127l-1.872-1.067a172 172 0 0 1-4.327-2.589c-1.35-.836-2.553-1.52-2.672-1.52s-.169 2.448-.108 5.44ZM66.1 50.55c-1.084.709-3.035 1.85-4.336 2.537L59.4 54.334l-.11 5.191c-.13 6.102-.169 6.064 3.704 3.61 1.373-.87 2.634-1.584 2.802-1.585s.8-.402 1.404-.89l1.1-.888-.114-5.257-.114-5.256zM35.944 80.245v5.242l2.027 1.187c1.116.653 2.845 1.665 3.844 2.248 1.897 1.11 3.52 1.369 4.68.749a311 311 0 0 0 3.936-2.233l3.252-1.866V74.986l-3.055 1.639c-1.68.901-3.321 1.862-3.646 2.134-1.481 1.238-2.25 1.394-3.21.65-.511-.395-1.976-1.29-3.256-1.988-1.28-.699-2.694-1.528-3.143-1.844-.45-.316-.955-.574-1.123-.574s-.307 2.36-.306 5.242Z" clip-rule="evenodd" mask="url(#a)"/></svg>