<svg xmlns="http://www.w3.org/2000/svg" width="1087" height="826" fill="none" viewBox="0 0 1087 826"><path stroke="#fff" d="M235 292.5 178.5 253H116m302 501-56.5 39.5H299M790 679l56.5 39.5H909m92-308L944.5 371H882M671 124.5 727.5 85H790m-11 122.5 56.5-39.5H898M541 93l56.5-59H660m-169 70.5L434.5 65H372"/><path fill="url(#a)" d="M469.271 122.11c-2.603-10.735-13.437-17.384-24.002-14.161A343.5 343.5 0 0 0 229.658 571.54c4.342 10.156 16.408 14.158 26.294 9.231l31.837-15.863c9.886-4.926 13.832-16.91 9.657-27.137a267.92 267.92 0 0 1 5.114-214.26 267.92 267.92 0 0 1 160.562-141.963c10.511-3.396 17.133-14.135 14.53-24.87z"/><path fill="url(#b)" d="M261.929 592.191c-9.683 5.316-13.271 17.512-7.401 26.868a343.505 343.505 0 0 0 394.04 145.114c10.537-3.315 15.716-14.925 11.794-25.251l-12.63-33.252c-3.922-10.326-15.457-15.441-26.047-12.299a267.93 267.93 0 0 1-300.774-110.767c-6.023-9.259-18.12-12.848-27.803-7.532z"/><path fill="url(#c)" d="M668.714 735.616c4.207 10.213 15.927 15.135 25.878 10.341a343.5 343.5 0 0 0 179.49-209.326c3.22-10.566-3.433-21.398-14.168-23.997l-34.571-8.371c-10.736-2.6-21.473 4.026-24.866 14.538A267.94 267.94 0 0 1 665.74 675.934c-9.871 4.957-14.781 16.58-10.574 26.793z"/><path fill="url(#d)" d="M861.453 505.967c10.788 2.372 21.518-4.447 23.258-15.355a343.5 343.5 0 0 0-34.422-212.529c-5.094-9.801-17.427-12.884-26.915-7.229l-30.554 18.214c-9.487 5.656-12.52 17.904-7.587 27.787a267.94 267.94 0 0 1 25.509 157.503c-1.561 10.935 5.183 21.599 15.971 23.971z"/><path fill="url(#e)" d="M818.903 263.575c9.335-5.904 12.164-18.297 5.726-27.273a343.5 343.5 0 0 0-85.147-83.286c-9.116-6.238-21.443-3.136-27.14 6.327l-18.345 30.475c-5.696 9.463-2.592 21.692 6.42 28.079a268 268 0 0 1 60.21 58.894c6.584 8.869 18.879 11.702 28.214 5.798z"/><path fill="url(#f)" d="M577.507 114.587c1.093-10.991 10.903-19.075 21.812-17.345a343.5 343.5 0 0 1 97.311 30.791c9.919 4.86 13.294 17.115 7.865 26.735l-17.482 30.978c-5.429 9.619-17.601 12.943-27.598 8.246a268 268 0 0 0-67.596-21.388c-10.88-1.909-18.924-11.63-17.831-22.621z"/><path fill="url(#g)" d="M568.727 113.835c.793-11.017-7.499-20.652-18.543-20.803a344 344 0 0 0-13.956.093c-11.042.298-19.204 10.043-18.263 21.049l3.027 35.441c.94 11.006 10.63 19.087 21.675 18.97q1.043-.01 2.086-.014c11.046-.031 20.627-8.241 21.42-19.258z"/><path fill="url(#h)" d="M506.94 111.466c-1.053-8.877-9.112-15.26-17.93-13.79s-14.371 10.122-12.487 18.862l9.854 45.707c1.469 6.816 8.183 11.12 15.061 9.973s11.832-7.396 11.011-14.32z"/><path fill="#fff" d="M23.64 252.48q-2.92 0-5.8-.76-2.88-.8-4.88-2.24l2.52-4.96q1.6 1.16 3.72 1.84t4.28.68q2.44 0 3.84-.96t1.4-2.64q0-1.6-1.24-2.52t-4-.92h-2.96v-4.28l7.8-8.84.72 2.32H14.36V224h19.6v4.2l-7.76 8.84-3.28-1.88h1.88q5.16 0 7.8 2.32t2.64 5.96q0 2.36-1.24 4.44-1.24 2.04-3.8 3.32t-6.56 1.28m26.592 0q-3.44 0-6.16-1.68-2.72-1.72-4.28-4.96t-1.56-7.84 1.56-7.84 4.28-4.92q2.72-1.72 6.16-1.72 3.48 0 6.16 1.72 2.72 1.68 4.28 4.92t1.56 7.84-1.56 7.84-4.28 4.96q-2.68 1.68-6.16 1.68m0-5.48q1.64 0 2.84-.92 1.239-.92 1.92-2.92.72-2 .72-5.16t-.72-5.16q-.68-2-1.92-2.92-1.2-.92-2.84-.92-1.6 0-2.84.92-1.2.92-1.92 2.92-.68 2-.68 5.16t.68 5.16q.72 2 1.92 2.92 1.24.92 2.84.92m19.188 5 19.12-28h4.76l-19.12 28zm2.44-12.88q-2.04 0-3.6-.92-1.56-.96-2.48-2.68-.88-1.76-.88-4.12t.88-4.08q.92-1.72 2.48-2.68t3.6-.96 3.6.96 2.44 2.68.88 4.08-.88 4.12q-.88 1.72-2.44 2.68-1.56.92-3.6.92m0-3.28q1.32 0 2.12-1.08.8-1.12.8-3.36t-.8-3.32q-.8-1.12-2.12-1.12-1.28 0-2.12 1.12-.8 1.08-.8 3.32 0 2.2.8 3.32.84 1.12 2.12 1.12m19 16.48q-2 0-3.6-.92-1.56-.96-2.44-2.68-.88-1.76-.88-4.12t.88-4.08 2.44-2.68q1.6-.96 3.6-.96 2.08 0 3.64.96t2.44 2.68.88 4.08-.88 4.12q-.88 1.72-2.44 2.68-1.56.92-3.64.92m0-3.28q1.32 0 2.12-1.08.8-1.12.8-3.36 0-2.2-.8-3.32t-2.12-1.12q-1.28 0-2.12 1.12-.8 1.08-.8 3.32t.8 3.36q.84 1.08 2.12 1.08M4.28 264.82h6.96v2.14H4.28zm.2 6h7.9V273H1.88v-14H12.1v2.18H4.48zm15.36 2.32q-1.68 0-3-.7a5.34 5.34 0 0 1-2.04-1.96q-.74-1.24-.74-2.82 0-1.6.74-2.82a5.2 5.2 0 0 1 2.04-1.94q1.32-.7 3-.7 1.56 0 2.74.64a4.12 4.12 0 0 1 1.82 1.84l-1.92 1.12q-.48-.76-1.18-1.12a3.1 3.1 0 0 0-1.48-.36 3.4 3.4 0 0 0-1.66.4q-.74.4-1.16 1.16-.42.74-.42 1.78t.42 1.8q.42.74 1.16 1.14a3.4 3.4 0 0 0 1.66.4q.8 0 1.48-.36.7-.36 1.18-1.12l1.92 1.12q-.62 1.2-1.82 1.86-1.18.64-2.74.64m11.366 0q-1.64 0-2.92-.7a5.4 5.4 0 0 1-2.02-1.96q-.74-1.24-.74-2.82 0-1.6.74-2.82a5.23 5.23 0 0 1 2.02-1.94q1.28-.7 2.92-.7 1.659 0 2.94.7a5.1 5.1 0 0 1 2.02 1.92q.74 1.22.74 2.84 0 1.58-.74 2.82a5.2 5.2 0 0 1-2.02 1.96q-1.281.7-2.94.7m0-2.14q.92 0 1.64-.4t1.12-1.16q.42-.76.42-1.78 0-1.04-.42-1.78a2.77 2.77 0 0 0-1.12-1.16q-.72-.4-1.62-.4-.92 0-1.64.4-.7.4-1.12 1.16-.42.74-.42 1.78 0 1.02.42 1.78t1.12 1.16q.72.4 1.62.4m11.39 2.14a9.7 9.7 0 0 1-2.58-.34q-1.22-.36-1.94-.86l.96-1.9q.72.46 1.72.76t2 .3q1.18 0 1.7-.32.54-.32.54-.86a.72.72 0 0 0-.36-.66q-.36-.24-.94-.36t-1.3-.22q-.7-.1-1.42-.26a5.5 5.5 0 0 1-1.28-.5 2.8 2.8 0 0 1-.94-.9q-.36-.56-.36-1.48 0-1.02.58-1.76.58-.76 1.62-1.16 1.06-.42 2.5-.42 1.08 0 2.18.24t1.82.68l-.96 1.9a4.9 4.9 0 0 0-1.54-.62 6.6 6.6 0 0 0-1.52-.18q-1.14 0-1.7.34-.54.34-.54.86 0 .48.36.72t.94.38 1.28.24q.72.08 1.42.26t1.28.5q.6.3.96.86t.36 1.46q0 1-.6 1.74-.58.74-1.66 1.16-1.08.4-2.58.4m7.678 3.88q-.78 0-1.56-.26t-1.3-.72l1-1.84q.38.34.86.54t.98.2q.68 0 1.1-.34t.78-1.14l.62-1.4.2-.3 4.04-9.44h2.4l-5 11.54q-.5 1.2-1.12 1.9-.6.7-1.36.98-.74.28-1.64.28m2.2-3.64-4.82-11.06h2.6l3.92 9.22zm11.646-.24a9.7 9.7 0 0 1-2.58-.34q-1.22-.36-1.94-.86l.96-1.9q.72.46 1.72.76t2 .3q1.18 0 1.7-.32.54-.32.54-.86a.72.72 0 0 0-.36-.66q-.36-.24-.94-.36t-1.3-.22q-.7-.1-1.42-.26a5.5 5.5 0 0 1-1.28-.5 2.8 2.8 0 0 1-.94-.9q-.36-.56-.36-1.48 0-1.02.58-1.76.579-.76 1.62-1.16 1.06-.42 2.5-.42 1.08 0 2.18.24t1.82.68l-.96 1.9a4.9 4.9 0 0 0-1.54-.62 6.6 6.6 0 0 0-1.52-.18q-1.14 0-1.7.34-.54.34-.54.86 0 .48.36.72t.94.38 1.28.24q.72.08 1.42.26t1.28.5q.6.3.96.86t.36 1.46q0 1-.6 1.74-.58.74-1.66 1.16-1.08.4-2.58.4m11.013 0q-1.76 0-2.72-.9-.96-.92-.96-2.7v-9.58h2.5v9.52q0 .76.38 1.18.4.42 1.1.42.84 0 1.4-.44l.7 1.78q-.441.36-1.08.54-.64.18-1.32.18m-5.44-8.74v-2h7.12v2zm14.565 8.74q-1.78 0-3.12-.7a5.3 5.3 0 0 1-2.06-1.96q-.72-1.24-.72-2.82 0-1.6.7-2.82a5.17 5.17 0 0 1 1.96-1.94q1.26-.7 2.86-.7 1.56 0 2.78.68a4.9 4.9 0 0 1 1.92 1.92q.7 1.24.7 2.92 0 .16-.02.36 0 .2-.02.38h-8.9v-1.66h7.58l-.98.52q.02-.92-.38-1.62a2.9 2.9 0 0 0-1.1-1.1q-.68-.4-1.58-.4-.921 0-1.62.4a2.9 2.9 0 0 0-1.08 1.12q-.38.7-.38 1.66v.4q0 .96.44 1.7t1.24 1.14 1.84.4q.9 0 1.62-.28t1.28-.88l1.34 1.54q-.72.84-1.82 1.3-1.08.44-2.48.44m20.901-10.94q1.28 0 2.26.5 1 .5 1.56 1.54.56 1.02.56 2.64V273h-2.5v-5.8q0-1.42-.62-2.12t-1.78-.7q-.82 0-1.46.36-.62.36-.98 1.06-.34.7-.34 1.78V273h-2.5v-5.8q0-1.42-.62-2.12t-1.78-.7q-.82 0-1.46.36a2.5 2.5 0 0 0-.98 1.06q-.34.7-.34 1.78V273h-2.5v-10.68h2.38v2.84l-.42-.84q.54-1.04 1.56-1.58 1.04-.54 2.36-.54 1.5 0 2.6.74 1.12.74 1.48 2.24l-.98-.34q.52-1.2 1.72-1.92t2.78-.72M211.32 800v-4.2l10.8-10.2q1.28-1.16 1.88-2.08t.8-1.68q.24-.76.24-1.4 0-1.68-1.16-2.56-1.12-.92-3.32-.92a7.95 7.95 0 0 0-3.28.68q-1.48.68-2.52 2.12l-4.72-3.04q1.6-2.4 4.48-3.8t6.64-1.4q3.12 0 5.44 1.04 2.36 1 3.64 2.84 1.32 1.84 1.32 4.4 0 1.36-.36 2.72-.32 1.32-1.36 2.8-1 1.48-2.96 3.32l-8.96 8.44-1.24-2.36h15.8V800zm33.354.48q-2.92 0-5.8-.76-2.84-.8-4.88-2.24l2.56-4.96q1.6 1.16 3.68 1.84 2.12.68 4.28.68 2.439 0 3.84-.96t1.4-2.68q0-1.08-.56-1.92t-2-1.28q-1.401-.44-3.96-.44h-7.16l1.44-15.76h17.08v5.2h-14.76l3.36-2.96-1 11.24-3.36-2.96h5.92q4.16 0 6.68 1.16 2.559 1.12 3.72 3.08 1.16 1.96 1.16 4.44a8.96 8.96 0 0 1-1.24 4.6q-1.24 2.08-3.84 3.4-2.56 1.28-6.56 1.28m17.918-.48 19.12-28h4.76l-19.12 28zm2.44-12.88q-2.04 0-3.6-.92-1.56-.96-2.48-2.68-.88-1.76-.88-4.12t.88-4.08q.92-1.72 2.48-2.68t3.6-.96 3.6.96 2.44 2.68.88 4.08-.88 4.12q-.88 1.72-2.44 2.68-1.56.92-3.6.92m0-3.28q1.32 0 2.12-1.08.8-1.12.8-3.36t-.8-3.32q-.8-1.12-2.12-1.12-1.28 0-2.12 1.12-.8 1.08-.8 3.32 0 2.2.8 3.32.84 1.12 2.12 1.12m19 16.48q-2 0-3.6-.92-1.56-.96-2.44-2.68-.88-1.76-.88-4.12t.88-4.08 2.44-2.68q1.6-.96 3.6-.96 2.08 0 3.64.96t2.44 2.68.88 4.08-.88 4.12q-.88 1.72-2.44 2.68-1.56.92-3.64.92m0-3.28q1.32 0 2.12-1.08.8-1.12.8-3.36 0-2.2-.8-3.32t-2.12-1.12q-1.28 0-2.12 1.12-.8 1.08-.8 3.32t.8 3.36q.84 1.08 2.12 1.08M204.88 821v-14h5.76q1.86 0 3.18.6 1.34.6 2.06 1.72t.72 2.66-.72 2.66q-.72 1.1-2.06 1.7-1.32.58-3.18.58h-4.32l1.16-1.18V821zm9.16 0-3.54-5.08h2.78l3.56 5.08zm-6.56-4.98-1.16-1.24h4.2q1.72 0 2.58-.74.88-.74.88-2.06 0-1.34-.88-2.06-.86-.72-2.58-.72h-4.2l1.16-1.28zm16.809 5.12q-1.78 0-3.12-.7a5.3 5.3 0 0 1-2.06-1.96q-.72-1.24-.72-2.82 0-1.6.7-2.82a5.16 5.16 0 0 1 1.96-1.94q1.26-.7 2.86-.7 1.56 0 2.78.68a4.9 4.9 0 0 1 1.92 1.92q.7 1.24.7 2.92 0 .16-.02.36 0 .2-.02.38h-8.9v-1.66h7.58l-.98.52q.02-.92-.38-1.62a2.9 2.9 0 0 0-1.1-1.1q-.68-.4-1.58-.4-.92 0-1.62.4-.68.4-1.08 1.12-.38.7-.38 1.66v.4q0 .96.44 1.7t1.24 1.14 1.84.4q.9 0 1.62-.28a3.45 3.45 0 0 0 1.28-.88l1.34 1.54a4.8 4.8 0 0 1-1.82 1.3q-1.08.44-2.48.44m10.721 0a9.7 9.7 0 0 1-2.58-.34q-1.22-.36-1.94-.86l.96-1.9q.72.46 1.72.76t2 .3q1.18 0 1.7-.32.54-.32.54-.86a.72.72 0 0 0-.36-.66q-.36-.24-.94-.36t-1.3-.22q-.7-.1-1.42-.26a5.5 5.5 0 0 1-1.28-.5 2.8 2.8 0 0 1-.94-.9q-.36-.56-.36-1.48 0-1.02.58-1.76.58-.76 1.62-1.16 1.06-.42 2.5-.42 1.08 0 2.18.24t1.82.68l-.96 1.9a4.9 4.9 0 0 0-1.54-.62 6.6 6.6 0 0 0-1.52-.18q-1.14 0-1.7.34-.54.34-.54.86 0 .48.36.72t.94.38 1.28.24q.72.08 1.42.26t1.28.5q.6.3.96.86t.36 1.46q0 1-.6 1.74-.58.74-1.66 1.16-1.08.4-2.58.4m12.013 0q-1.779 0-3.12-.7a5.3 5.3 0 0 1-2.06-1.96q-.72-1.24-.72-2.82 0-1.6.7-2.82a5.17 5.17 0 0 1 1.96-1.94q1.26-.7 2.86-.7 1.56 0 2.78.68a4.9 4.9 0 0 1 1.92 1.92q.7 1.24.7 2.92 0 .16-.02.36 0 .2-.02.38h-8.9v-1.66h7.58l-.98.52q.02-.92-.38-1.62a2.9 2.9 0 0 0-1.1-1.1q-.68-.4-1.58-.4-.92 0-1.62.4-.68.4-1.08 1.12-.38.7-.38 1.66v.4q0 .96.44 1.7t1.24 1.14 1.84.4q.9 0 1.62-.28a3.45 3.45 0 0 0 1.28-.88l1.34 1.54q-.72.84-1.82 1.3-1.08.44-2.48.44m7.422-.14v-10.68h2.38v2.94l-.28-.86q.48-1.08 1.5-1.64 1.04-.56 2.58-.56v2.38a1.2 1.2 0 0 0-.3-.04 2 2 0 0 0-.28-.02q-1.42 0-2.26.84-.84.82-.84 2.46V821zm11.531 0-4.58-10.68h2.6l3.94 9.42h-1.28l4.08-9.42h2.4l-4.58 10.68zm13.45.14q-1.78 0-3.12-.7a5.3 5.3 0 0 1-2.06-1.96q-.72-1.24-.72-2.82 0-1.6.7-2.82a5.16 5.16 0 0 1 1.96-1.94q1.26-.7 2.86-.7 1.56 0 2.78.68a4.9 4.9 0 0 1 1.92 1.92q.7 1.24.7 2.92 0 .16-.02.36 0 .2-.02.38h-8.9v-1.66h7.58l-.98.52q.02-.92-.38-1.62a2.9 2.9 0 0 0-1.1-1.1q-.68-.4-1.58-.4-.921 0-1.62.4-.681.4-1.08 1.12-.38.7-.38 1.66v.4q0 .96.44 1.7t1.24 1.14 1.84.4q.9 0 1.62-.28t1.28-.88l1.34 1.54a4.8 4.8 0 0 1-1.82 1.3q-1.08.44-2.48.44m11.941 0q-1.54 0-2.78-.68a5.1 5.1 0 0 1-1.92-1.92q-.7-1.22-.7-2.88t.7-2.88a4.97 4.97 0 0 1 1.92-1.9q1.24-.68 2.78-.68 1.34 0 2.4.6 1.06.58 1.68 1.78t.62 3.08q0 1.86-.6 3.08-.6 1.2-1.66 1.8t-2.44.6m.3-2.14q.9 0 1.6-.4.72-.4 1.14-1.16.44-.76.44-1.78 0-1.04-.44-1.78a2.9 2.9 0 0 0-1.14-1.16q-.7-.4-1.6-.4t-1.62.4a3.07 3.07 0 0 0-1.14 1.16q-.42.74-.42 1.78 0 1.02.42 1.78a3.07 3.07 0 0 0 1.14 1.16q.72.4 1.62.4m3.24 2v-2.52l.1-2.84-.2-2.84v-6.64h2.48V821zM914.04 175l11.28-25.52 1.68 2.8h-15.08l2.88-3.04v7.6h-5.76V147h22.44v4.2l-10.4 23.8zm22.091.32q-1.6 0-2.76-1.08-1.12-1.12-1.12-2.84t1.12-2.76q1.16-1.08 2.76-1.08 1.64 0 2.76 1.08 1.12 1.04 1.12 2.76t-1.12 2.84q-1.12 1.08-2.76 1.08m6.468-6.2v-4.36l13.2-17.76h6.8l-12.92 17.76-3.16-.92h22.04v5.28zm15.08 5.88v-5.88l.2-5.28v-5.24h6.12V175zm15.648 0 19.12-28h4.76l-19.12 28zm2.44-12.88q-2.04 0-3.6-.92-1.56-.96-2.48-2.68-.88-1.76-.88-4.12t.88-4.08q.92-1.72 2.48-2.68t3.6-.96 3.6.96 2.44 2.68.88 4.08-.88 4.12q-.88 1.72-2.44 2.68-1.56.92-3.6.92m0-3.28q1.32 0 2.12-1.08.8-1.12.8-3.36t-.8-3.32q-.8-1.12-2.12-1.12-1.28 0-2.12 1.12-.8 1.08-.8 3.32 0 2.2.8 3.32.84 1.12 2.12 1.12m19 16.48q-2.001 0-3.6-.92-1.56-.96-2.44-2.68-.88-1.76-.88-4.12t.88-4.08 2.44-2.68q1.599-.96 3.6-.96 2.08 0 3.64.96 1.559.96 2.443 2.68c.58 1.147.88 2.507.88 4.08s-.3 2.947-.88 4.12q-.884 1.72-2.443 2.68-1.56.92-3.64.92m0-3.28q1.32 0 2.12-1.08.8-1.12.8-3.36 0-2.2-.8-3.32t-2.12-1.12q-1.28 0-2.12 1.12-.8 1.08-.8 3.32t.8 3.36q.84 1.08 2.12 1.08M904.22 196.2a10.6 10.6 0 0 1-3.14-.46q-1.5-.48-2.38-1.22l.9-2.02q.84.66 2.08 1.1a7.6 7.6 0 0 0 2.54.44q1.1 0 1.78-.24t1-.64q.32-.42.32-.94 0-.64-.46-1.02-.46-.4-1.2-.62-.72-.24-1.62-.44a32 32 0 0 1-1.78-.46 8.5 8.5 0 0 1-1.62-.7 3.6 3.6 0 0 1-1.18-1.16q-.46-.72-.46-1.84 0-1.14.6-2.08.62-.96 1.86-1.52 1.26-.58 3.18-.58 1.26 0 2.5.32t2.16.92l-.82 2.02a7.4 7.4 0 0 0-1.94-.82 7 7 0 0 0-1.92-.28q-1.08 0-1.76.26-.66.26-.98.68-.3.42-.3.96 0 .64.44 1.04.46.38 1.18.6.74.22 1.64.44.9.2 1.78.46.9.26 1.62.68.74.42 1.18 1.14.46.72.46 1.82 0 1.12-.62 2.08-.6.94-1.86 1.52-1.26.56-3.18.56m13.018-.06q-1.78 0-3.12-.7a5.3 5.3 0 0 1-2.06-1.96q-.72-1.24-.72-2.82 0-1.6.7-2.82a5.16 5.16 0 0 1 1.96-1.94q1.26-.7 2.86-.7 1.56 0 2.78.68a4.9 4.9 0 0 1 1.92 1.92q.7 1.24.7 2.92 0 .16-.02.36 0 .2-.02.38h-8.9v-1.66h7.58l-.98.52q.02-.92-.38-1.62a2.9 2.9 0 0 0-1.1-1.1q-.68-.4-1.58-.4-.92 0-1.62.4-.68.4-1.08 1.12-.38.7-.38 1.66v.4q0 .96.44 1.7t1.24 1.14 1.84.4q.9 0 1.62-.28a3.45 3.45 0 0 0 1.28-.88l1.34 1.54a4.8 4.8 0 0 1-1.82 1.3q-1.08.44-2.48.44m12.442 0q-1.78 0-3.12-.7a5.3 5.3 0 0 1-2.06-1.96q-.72-1.24-.72-2.82 0-1.6.7-2.82a5.16 5.16 0 0 1 1.96-1.94q1.26-.7 2.86-.7 1.56 0 2.78.68a4.9 4.9 0 0 1 1.92 1.92q.7 1.24.7 2.92 0 .16-.02.36 0 .2-.02.38h-8.9v-1.66h7.58l-.98.52q.02-.92-.38-1.62a2.9 2.9 0 0 0-1.1-1.1q-.68-.4-1.58-.4-.921 0-1.62.4-.681.4-1.08 1.12-.38.7-.38 1.66v.4q0 .96.44 1.7t1.24 1.14 1.84.4q.9 0 1.62-.28t1.28-.88l1.34 1.54a4.8 4.8 0 0 1-1.82 1.3q-1.08.44-2.48.44m11.941 0q-1.54 0-2.78-.68a5.1 5.1 0 0 1-1.92-1.92q-.7-1.22-.7-2.88t.7-2.88a4.97 4.97 0 0 1 1.92-1.9q1.24-.68 2.78-.68 1.34 0 2.4.6 1.06.58 1.68 1.78t.62 3.08q0 1.86-.6 3.08-.6 1.2-1.66 1.8t-2.44.6m.3-2.14q.9 0 1.6-.4.72-.4 1.14-1.16.44-.76.44-1.78 0-1.04-.44-1.78a2.9 2.9 0 0 0-1.14-1.16q-.7-.4-1.6-.4t-1.62.4a3.07 3.07 0 0 0-1.14 1.16q-.42.74-.42 1.78 0 1.02.42 1.78a3.07 3.07 0 0 0 1.14 1.16q.72.4 1.62.4m3.24 2v-2.52l.1-2.84-.2-2.84v-6.64h2.48V196zm5.67 0v-10.68h2.38v2.94l-.28-.86q.48-1.08 1.5-1.64 1.041-.56 2.58-.56v2.38a1.2 1.2 0 0 0-.3-.04 2 2 0 0 0-.28-.02q-1.42 0-2.26.84-.84.82-.84 2.46V196zm13.004.14q-1.64 0-2.92-.7a5.37 5.37 0 0 1-2.02-1.96q-.74-1.24-.74-2.82 0-1.6.74-2.82a5.2 5.2 0 0 1 2.02-1.94q1.28-.7 2.92-.7 1.659 0 2.94.7a5.1 5.1 0 0 1 2.02 1.92q.74 1.22.74 2.84 0 1.58-.74 2.82a5.2 5.2 0 0 1-2.02 1.96q-1.281.7-2.94.7m0-2.14q.92 0 1.64-.4t1.12-1.16q.42-.76.42-1.78 0-1.04-.42-1.78a2.77 2.77 0 0 0-1.12-1.16q-.72-.4-1.62-.4-.92 0-1.64.4-.7.4-1.12 1.16-.42.74-.42 1.78 0 1.02.42 1.78t1.12 1.16q.72.4 1.62.4m12.61 2.14q-1.36 0-2.4-.5a3.74 3.74 0 0 1-1.62-1.56q-.58-1.06-.58-2.66v-6.1h2.5v5.76q0 1.44.64 2.16.66.7 1.86.7.88 0 1.52-.36.66-.36 1.02-1.08.38-.72.38-1.78v-5.4h2.5V196h-2.38v-2.88l.42.88a3.74 3.74 0 0 1-1.58 1.6q-1.04.54-2.28.54m15.153-10.94q1.281 0 2.28.5 1.02.5 1.6 1.54.58 1.02.58 2.64V196h-2.5v-5.8q0-1.42-.68-2.12-.66-.7-1.86-.7-.879 0-1.56.36-.68.36-1.06 1.08-.36.7-.36 1.78v5.4h-2.5v-10.68h2.38v2.88l-.42-.88q.561-1.02 1.62-1.56 1.08-.56 2.48-.56m12.172 10.94c-1.03 0-1.95-.227-2.78-.68a5.14 5.14 0 0 1-1.921-1.92q-.7-1.22-.7-2.88t.7-2.88a5 5 0 0 1 1.921-1.9c.83-.453 1.75-.68 2.78-.68q1.335 0 2.4.6 1.065.58 1.68 1.78c.41.8.62 1.827.62 3.08q0 1.86-.6 3.08c-.4.8-.95 1.4-1.66 1.8s-1.52.6-2.44.6m.3-2.14c.6 0 1.13-.133 1.6-.4q.72-.4 1.14-1.16c.29-.507.44-1.1.44-1.78 0-.693-.15-1.287-.44-1.78a2.9 2.9 0 0 0-1.14-1.16c-.47-.267-1-.4-1.6-.4q-.9 0-1.62.4-.705.4-1.14 1.16-.42.74-.42 1.78 0 1.02.42 1.78.435.76 1.14 1.16.72.4 1.62.4m3.24 2v-2.52l.1-2.84-.2-2.84v-6.64h2.48V196zM814.08 92.48q-3.84 0-6.68-1.6-2.8-1.6-4.32-4.68t-1.52-7.6q0-4.84 1.8-8.2 1.84-3.36 5.04-5.12 3.24-1.76 7.44-1.76 2.24 0 4.28.48t3.52 1.44l-2.4 4.76a6.8 6.8 0 0 0-2.48-1.08q-1.32-.32-2.76-.32-3.64 0-5.76 2.2t-2.12 6.52v1.6q.04.88.24 1.76l-1.8-1.68q.76-1.56 1.96-2.6 1.2-1.08 2.84-1.6 1.68-.56 3.68-.56 2.72 0 4.88 1.08t3.44 3.04q1.32 1.96 1.32 4.6 0 2.84-1.44 4.96-1.4 2.08-3.8 3.24-2.36 1.12-5.36 1.12m-.36-4.84q1.36 0 2.4-.48 1.08-.52 1.68-1.48t.6-2.2q0-1.92-1.32-3.04-1.28-1.16-3.44-1.16-1.44 0-2.52.56-1.08.52-1.72 1.48-.6.92-.6 2.16 0 1.2.6 2.16.6.92 1.68 1.48 1.08.52 2.64.52m17.379 4.68q-1.599 0-2.76-1.08-1.12-1.12-1.12-2.84t1.12-2.76q1.161-1.08 2.76-1.08 1.641 0 2.76 1.08 1.12 1.04 1.12 2.76t-1.12 2.84q-1.119 1.08-2.76 1.08m18.801.16q-3.84 0-6.68-1.6-2.799-1.6-4.32-4.68-1.52-3.08-1.52-7.6 0-4.84 1.8-8.2 1.84-3.36 5.04-5.12 3.24-1.76 7.44-1.76 2.24 0 4.28.48t3.52 1.44l-2.4 4.76a6.8 6.8 0 0 0-2.48-1.08q-1.32-.32-2.76-.32-3.639 0-5.76 2.2t-2.12 6.52v1.6q.04.88.24 1.76l-1.8-1.68q.76-1.56 1.96-2.6 1.2-1.08 2.84-1.6 1.68-.56 3.68-.56 2.72 0 4.88 1.08t3.44 3.04q1.32 1.96 1.32 4.6 0 2.84-1.44 4.96-1.4 2.08-3.8 3.24-2.36 1.12-5.36 1.12m-.36-4.84q1.36 0 2.4-.48 1.08-.52 1.68-1.48t.6-2.2q0-1.92-1.32-3.04-1.28-1.16-3.44-1.16-1.44 0-2.52.56-1.08.52-1.72 1.48-.6.92-.6 2.16 0 1.2.6 2.16.6.92 1.68 1.48 1.08.52 2.64.52M866.108 92l19.12-28h4.76l-19.12 28zm2.44-12.88q-2.04 0-3.6-.92-1.56-.96-2.48-2.68-.88-1.76-.88-4.12t.88-4.08q.92-1.72 2.48-2.68t3.6-.96 3.6.96 2.44 2.68.88 4.08-.88 4.12q-.88 1.72-2.44 2.68-1.56.92-3.6.92m0-3.28q1.32 0 2.12-1.08.8-1.12.8-3.36t-.8-3.32q-.8-1.12-2.12-1.12-1.28 0-2.12 1.12-.8 1.08-.8 3.32 0 2.2.8 3.32.84 1.12 2.12 1.12m19 16.48q-2.001 0-3.6-.92-1.56-.96-2.44-2.68-.88-1.76-.88-4.12t.88-4.08 2.44-2.68q1.599-.96 3.6-.96 2.08 0 3.64.96t2.44 2.68.88 4.08-.88 4.12q-.88 1.72-2.44 2.68-1.56.92-3.64.92m0-3.28q1.32 0 2.12-1.08.8-1.12.8-3.36 0-2.2-.8-3.32t-2.12-1.12q-1.28 0-2.12 1.12-.8 1.08-.8 3.32t.8 3.36q.84 1.08 2.12 1.08M792.88 113V99h5.76q1.86 0 3.18.6 1.34.6 2.06 1.72t.72 2.66-.72 2.66-2.06 1.72q-1.32.6-3.18.6h-4.32l1.16-1.22V113zm2.6-4.98-1.16-1.26h4.2q1.72 0 2.58-.72.88-.74.88-2.06 0-1.34-.88-2.06-.86-.72-2.58-.72h-4.2l1.16-1.28zm16.192 5.12q-1.36 0-2.4-.5a3.73 3.73 0 0 1-1.62-1.56q-.58-1.06-.58-2.66v-6.1h2.5v5.76q0 1.44.64 2.16.66.7 1.86.7.88 0 1.52-.36.66-.36 1.02-1.08.38-.72.38-1.78v-5.4h2.5V113h-2.38v-2.88l.42.88a3.74 3.74 0 0 1-1.58 1.6q-1.041.54-2.28.54m15.013 0q-1.36 0-2.42-.6t-1.68-1.8q-.6-1.22-.6-3.08 0-1.88.62-3.08.64-1.2 1.7-1.78 1.08-.6 2.38-.6 1.58 0 2.78.68a4.97 4.97 0 0 1 1.92 1.9q.72 1.22.72 2.88t-.72 2.88a5.1 5.1 0 0 1-1.92 1.92q-1.2.68-2.78.68m-5.92-.14V98.16h2.5v6.64l-.2 2.84.08 2.84V113zm5.64-2q.9 0 1.6-.4.72-.4 1.14-1.16t.42-1.78q0-1.04-.42-1.78a2.9 2.9 0 0 0-1.14-1.16q-.7-.4-1.6-.4t-1.62.4-1.14 1.16q-.42.74-.42 1.78 0 1.02.42 1.78t1.14 1.16 1.62.4m8.071 2V98.16h2.5V113zm5.781 0v-10.68h2.5V113zm1.26-12.44q-.7 0-1.16-.44a1.45 1.45 0 0 1-.44-1.06q0-.64.44-1.06.46-.44 1.16-.44t1.14.42q.46.4.46 1.02 0 .66-.44 1.12-.44.44-1.16.44m9.421 12.58q-1.68 0-3-.7a5.35 5.35 0 0 1-2.04-1.96q-.74-1.24-.74-2.82 0-1.6.74-2.82a5.2 5.2 0 0 1 2.04-1.94q1.32-.7 3-.7 1.56 0 2.74.64a4.1 4.1 0 0 1 1.82 1.84l-1.92 1.12q-.48-.76-1.18-1.12a3.1 3.1 0 0 0-1.48-.36q-.92 0-1.66.4a2.86 2.86 0 0 0-1.16 1.16q-.42.74-.42 1.78t.42 1.8q.42.74 1.16 1.14t1.66.4q.8 0 1.48-.36.7-.36 1.18-1.12l1.92 1.12q-.62 1.2-1.82 1.86-1.18.64-2.74.64m16.829.06a10.6 10.6 0 0 1-3.14-.46q-1.5-.48-2.38-1.22l.9-2.02q.84.66 2.08 1.1a7.6 7.6 0 0 0 2.54.44q1.1 0 1.78-.24t1-.64q.32-.42.32-.94 0-.64-.46-1.02-.46-.4-1.2-.62-.72-.24-1.62-.44a32 32 0 0 1-1.78-.46 8.5 8.5 0 0 1-1.62-.7 3.6 3.6 0 0 1-1.18-1.16q-.46-.72-.46-1.84 0-1.14.6-2.08.62-.96 1.86-1.52 1.26-.58 3.18-.58 1.26 0 2.5.32t2.16.92l-.82 2.02a7.4 7.4 0 0 0-1.94-.82 7 7 0 0 0-1.92-.28q-1.08 0-1.76.26-.66.26-.98.68-.3.42-.3.96 0 .64.44 1.04.46.38 1.18.6.74.22 1.64.44.9.2 1.78.46.9.26 1.62.68.74.42 1.18 1.14.46.72.46 1.82 0 1.12-.62 2.08-.6.94-1.86 1.52-1.26.56-3.18.56m14.578-.2v-2.16l-.14-.46v-3.78q0-1.1-.66-1.7-.66-.62-2-.62-.9 0-1.78.28a4.4 4.4 0 0 0-1.46.78l-.98-1.82q.86-.66 2.04-.98 1.2-.34 2.48-.34 2.32 0 3.58 1.12 1.28 1.1 1.28 3.42V113zm-3.36.14q-1.2 0-2.1-.4-.9-.42-1.4-1.14a3 3 0 0 1-.48-1.66q0-.9.42-1.62.44-.72 1.42-1.14t2.6-.42h3.1v1.66h-2.92q-1.28 0-1.72.42-.44.4-.44 1 0 .68.54 1.08t1.5.4q.92 0 1.64-.42.74-.42 1.06-1.24l.42 1.5q-.36.94-1.3 1.46-.92.52-2.34.52m8.928-.14V98.16h2.5V113zm10.802.14q-1.78 0-3.12-.7a5.3 5.3 0 0 1-2.06-1.96q-.72-1.24-.72-2.82 0-1.6.7-2.82a5.16 5.16 0 0 1 1.96-1.94q1.26-.7 2.86-.7 1.56 0 2.78.68a4.9 4.9 0 0 1 1.92 1.92q.7 1.24.7 2.92 0 .16-.02.36 0 .2-.02.38h-8.9v-1.66h7.58l-.98.52q.02-.92-.38-1.62a2.9 2.9 0 0 0-1.1-1.1q-.68-.4-1.58-.4-.921 0-1.62.4-.681.4-1.08 1.12-.38.7-.38 1.66v.4q0 .96.44 1.7t1.24 1.14 1.84.4q.9 0 1.62-.28t1.28-.88l1.34 1.54a4.8 4.8 0 0 1-1.82 1.3q-1.08.44-2.48.44M670.32 39v-4.2l10.8-10.2q1.28-1.16 1.88-2.08t.8-1.68q.24-.76.24-1.4 0-1.68-1.16-2.56-1.12-.92-3.32-.92a7.9 7.9 0 0 0-3.28.68q-1.48.68-2.52 2.12l-4.72-3.04q1.6-2.4 4.48-3.8t6.64-1.4q3.12 0 5.44 1.04 2.36 1 3.64 2.84 1.32 1.84 1.32 4.4 0 1.36-.36 2.72-.32 1.32-1.36 2.8-1 1.48-2.96 3.32l-8.96 8.44-1.24-2.36h15.8V39zm27.904.32q-1.599 0-2.76-1.08-1.12-1.12-1.12-2.84t1.12-2.76q1.161-1.08 2.76-1.08 1.641 0 2.76 1.08 1.12 1.04 1.12 2.76t-1.12 2.84q-1.119 1.08-2.76 1.08m16.309.16a22.6 22.6 0 0 1-5.8-.76q-2.84-.8-4.88-2.24l2.56-4.96q1.6 1.16 3.68 1.84 2.12.68 4.28.68 2.44 0 3.84-.96t1.4-2.68q0-1.08-.56-1.92t-2-1.28q-1.4-.44-3.96-.44h-7.16l1.44-15.76h17.08v5.2h-14.76l3.36-2.96-1 11.24-3.36-2.96h5.92q4.16 0 6.68 1.16 2.56 1.12 3.72 3.08t1.16 4.44a8.95 8.95 0 0 1-1.24 4.6q-1.24 2.08-3.84 3.4-2.56 1.28-6.56 1.28m17.919-.48 19.12-28h4.76l-19.12 28zm2.44-12.88q-2.04 0-3.6-.92-1.56-.96-2.48-2.68-.88-1.76-.88-4.12t.88-4.08q.92-1.72 2.48-2.68t3.6-.96 3.6.96 2.44 2.68.88 4.08-.88 4.12q-.88 1.72-2.44 2.68-1.56.92-3.6.92m0-3.28q1.32 0 2.12-1.08.8-1.12.8-3.36t-.8-3.32q-.8-1.12-2.12-1.12-1.28 0-2.12 1.12-.8 1.08-.8 3.32 0 2.2.8 3.32.84 1.12 2.12 1.12m19 16.48q-2.001 0-3.6-.92-1.56-.96-2.44-2.68-.88-1.76-.88-4.12t.88-4.08 2.44-2.68q1.599-.96 3.6-.96 2.08 0 3.64.96t2.44 2.68.88 4.08-.88 4.12q-.88 1.72-2.44 2.68-1.56.92-3.64.92m0-3.28q1.32 0 2.12-1.08.8-1.12.8-3.36 0-2.2-.8-3.32t-2.12-1.12q-1.28 0-2.12 1.12-.8 1.08-.8 3.32t.8 3.36q.84 1.08 2.12 1.08M656.88 60V46h5.76q1.86 0 3.18.6 1.34.6 2.06 1.72t.72 2.66-.72 2.66-2.06 1.72q-1.32.6-3.18.6h-4.32l1.16-1.22V60zm2.6-4.98-1.16-1.26h4.2q1.72 0 2.58-.72.88-.74.88-2.06 0-1.34-.88-2.06-.86-.72-2.58-.72h-4.2l1.16-1.28zM670.859 60V49.32h2.38v2.94l-.28-.86a3.4 3.4 0 0 1 1.5-1.64q1.04-.56 2.58-.56v2.38a1.2 1.2 0 0 0-.3-.04 2 2 0 0 0-.28-.02q-1.42 0-2.26.84-.84.82-.84 2.46V60zm8.301 0V49.32h2.5V60zm1.26-12.44q-.7 0-1.16-.44a1.44 1.44 0 0 1-.44-1.06q0-.64.44-1.06.46-.44 1.16-.44.699 0 1.14.42.46.4.46 1.02 0 .66-.44 1.12-.44.44-1.16.44M687.781 60l-4.58-10.68h2.6l3.94 9.42h-1.28l4.08-9.42h2.4L690.361 60zm14.97 0v-2.16l-.14-.46V53.6q0-1.1-.66-1.7-.66-.62-2-.62-.9 0-1.78.28a4.4 4.4 0 0 0-1.46.78l-.98-1.82q.861-.66 2.04-.98 1.2-.34 2.48-.34 2.32 0 3.58 1.12 1.28 1.1 1.28 3.42V60zm-3.36.14q-1.2 0-2.1-.4-.9-.42-1.4-1.14a3 3 0 0 1-.48-1.66q0-.9.42-1.62.44-.72 1.42-1.14t2.6-.42h3.1v1.66h-2.92q-1.28 0-1.72.42-.44.4-.44 1 0 .68.54 1.08t1.5.4q.92 0 1.64-.42.74-.42 1.06-1.24l.42 1.5q-.36.94-1.3 1.46-.92.52-2.34.52m12.949 0q-1.76 0-2.72-.9-.96-.92-.96-2.7v-9.58h2.5v9.52q0 .76.38 1.18.4.42 1.1.42.84 0 1.4-.44l.7 1.78q-.441.36-1.08.54-.64.18-1.32.18m-5.44-8.74v-2h7.12v2zm14.565 8.74q-1.78 0-3.12-.7a5.3 5.3 0 0 1-2.06-1.96q-.72-1.24-.72-2.82 0-1.6.7-2.82a5.16 5.16 0 0 1 1.96-1.94q1.26-.7 2.86-.7 1.56 0 2.78.68a4.93 4.93 0 0 1 1.92 1.92q.7 1.24.7 2.92 0 .16-.02.36 0 .2-.02.38h-8.9V53.8h7.58l-.98.52q.02-.92-.38-1.62a2.9 2.9 0 0 0-1.1-1.1q-.68-.4-1.58-.4-.921 0-1.62.4a2.9 2.9 0 0 0-1.08 1.12q-.38.7-.38 1.66v.4q0 .96.44 1.7t1.24 1.14 1.84.4q.9 0 1.62-.28t1.28-.88l1.34 1.54q-.72.84-1.82 1.3-1.08.44-2.48.44m17.528.06a10.7 10.7 0 0 1-3.14-.46q-1.5-.48-2.38-1.22l.9-2.02q.84.66 2.08 1.1t2.54.44q1.1 0 1.78-.24t1-.64q.32-.42.32-.94 0-.64-.46-1.02-.459-.4-1.2-.62-.72-.24-1.62-.44a32 32 0 0 1-1.78-.46 8.5 8.5 0 0 1-1.62-.7 3.6 3.6 0 0 1-1.18-1.16q-.46-.72-.46-1.84 0-1.14.6-2.08.621-.96 1.86-1.52 1.26-.58 3.18-.58 1.26 0 2.5.32t2.16.92l-.82 2.02a7.4 7.4 0 0 0-1.94-.82 7 7 0 0 0-1.92-.28q-1.08 0-1.76.26-.66.26-.98.68-.3.42-.3.96 0 .64.44 1.04.46.38 1.18.6.74.22 1.64.44.9.2 1.78.46.9.26 1.62.68.74.42 1.18 1.14.46.72.46 1.82 0 1.12-.62 2.08-.6.94-1.86 1.52-1.26.56-3.18.56m14.579-.2v-2.16l-.14-.46V53.6q0-1.1-.66-1.7-.66-.62-2-.62-.9 0-1.78.28a4.4 4.4 0 0 0-1.46.78l-.98-1.82q.86-.66 2.04-.98 1.2-.34 2.48-.34 2.32 0 3.58 1.12 1.28 1.1 1.28 3.42V60zm-3.36.14q-1.2 0-2.1-.4-.9-.42-1.4-1.14a3 3 0 0 1-.48-1.66q0-.9.42-1.62.44-.72 1.42-1.14t2.6-.42h3.1v1.66h-2.92q-1.28 0-1.72.42-.44.4-.44 1 0 .68.54 1.08t1.5.4q.92 0 1.64-.42.74-.42 1.06-1.24l.42 1.5q-.36.94-1.3 1.46-.921.52-2.34.52m8.928-.14V45.16h2.5V60zm10.801.14q-1.779 0-3.12-.7a5.3 5.3 0 0 1-2.06-1.96q-.72-1.24-.72-2.82 0-1.6.7-2.82a5.17 5.17 0 0 1 1.96-1.94q1.26-.7 2.86-.7 1.56 0 2.78.68a4.9 4.9 0 0 1 1.92 1.92q.7 1.24.7 2.92 0 .16-.02.36 0 .2-.02.38h-8.9V53.8h7.58l-.98.52q.02-.92-.38-1.62a2.9 2.9 0 0 0-1.1-1.1q-.68-.4-1.58-.4-.92 0-1.62.4-.68.4-1.08 1.12-.38.7-.38 1.66v.4q0 .96.44 1.7a2.94 2.94 0 0 0 1.24 1.14q.8.4 1.84.4.9 0 1.62-.28t1.28-.88l1.34 1.54q-.72.84-1.82 1.3-1.08.44-2.48.44M270.88 72V46.4l2.8 2.8h-8.4V44h12.08v28zm15.024.32q-1.6 0-2.76-1.08-1.12-1.12-1.12-2.84t1.12-2.76q1.16-1.08 2.76-1.08 1.64 0 2.76 1.08 1.12 1.04 1.12 2.76t-1.12 2.84q-1.12 1.08-2.76 1.08m16.309.16a22.6 22.6 0 0 1-5.8-.76q-2.84-.8-4.88-2.24l2.56-4.96q1.6 1.16 3.68 1.84 2.12.68 4.28.68 2.439 0 3.84-.96t1.4-2.68q0-1.08-.56-1.92t-2-1.28q-1.401-.44-3.96-.44h-7.16l1.44-15.76h17.08v5.2h-14.76l3.36-2.96-1 11.24-3.36-2.96h5.92q4.16 0 6.68 1.16 2.559 1.12 3.72 3.08 1.16 1.96 1.16 4.44a8.96 8.96 0 0 1-1.24 4.6q-1.24 2.08-3.84 3.4-2.56 1.28-6.56 1.28m17.918-.48 19.12-28h4.76l-19.12 28zm2.44-12.88q-2.04 0-3.6-.92-1.56-.96-2.48-2.68-.88-1.76-.88-4.12t.88-4.08q.92-1.72 2.48-2.68t3.6-.96 3.6.96 2.44 2.68.88 4.08-.88 4.12q-.88 1.72-2.44 2.68-1.56.92-3.6.92m0-3.28q1.32 0 2.12-1.08.8-1.12.8-3.36t-.8-3.32q-.8-1.12-2.12-1.12-1.28 0-2.12 1.12-.8 1.08-.8 3.32 0 2.2.8 3.32.84 1.12 2.12 1.12m19 16.48q-2 0-3.6-.92-1.56-.96-2.44-2.68-.88-1.76-.88-4.12t.88-4.08 2.44-2.68q1.6-.96 3.6-.96 2.08 0 3.64.96t2.44 2.68.88 4.08-.88 4.12q-.88 1.72-2.44 2.68-1.56.92-3.64.92m0-3.28q1.32 0 2.12-1.08.8-1.12.8-3.36 0-2.2-.8-3.32t-2.12-1.12q-1.28 0-2.12 1.12-.8 1.08-.8 3.32t.8 3.36q.84 1.08 2.12 1.08M267.9 93l6.3-14h2.56l6.32 14h-2.72l-5.42-12.62h1.04L270.58 93zm2.9-3.24.7-2.04h7.56l.7 2.04zM284.62 93V82.32h2.5V93zm1.26-12.44q-.7 0-1.16-.44a1.45 1.45 0 0 1-.44-1.06q0-.64.44-1.06.46-.44 1.16-.44t1.14.42q.46.4.46 1.02 0 .66-.44 1.12-.44.44-1.16.44M290.402 93V82.32h2.38v2.94l-.28-.86a3.4 3.4 0 0 1 1.5-1.64q1.04-.56 2.58-.56v2.38a1.2 1.2 0 0 0-.3-.04 2 2 0 0 0-.28-.02q-1.42 0-2.26.84-.84.82-.84 2.46V93zm12.723.14q-1.54 0-2.78-.68a5.1 5.1 0 0 1-1.92-1.92q-.7-1.22-.7-2.88t.7-2.88a4.97 4.97 0 0 1 1.92-1.9q1.24-.68 2.78-.68 1.34 0 2.4.6 1.06.58 1.68 1.78t.62 3.08q0 1.86-.6 3.08-.6 1.2-1.66 1.8t-2.44.6m.3-2.14q.9 0 1.6-.4.72-.4 1.14-1.16.44-.76.44-1.78 0-1.04-.44-1.78a2.9 2.9 0 0 0-1.14-1.16q-.7-.4-1.6-.4t-1.62.4a3.07 3.07 0 0 0-1.14 1.16q-.42.74-.42 1.78 0 1.02.42 1.78a3.07 3.07 0 0 0 1.14 1.16q.72.4 1.62.4m3.24 2v-2.52l.1-2.84-.2-2.84v-6.64h2.48V93zm5.67 0V82.32h2.38v2.94l-.28-.86a3.4 3.4 0 0 1 1.5-1.64q1.041-.56 2.58-.56v2.38a1.2 1.2 0 0 0-.3-.04 2 2 0 0 0-.28-.02q-1.42 0-2.26.84-.84.82-.84 2.46V93zm13.003.14q-1.64 0-2.92-.7a5.4 5.4 0 0 1-2.02-1.96q-.74-1.24-.74-2.82 0-1.6.74-2.82a5.24 5.24 0 0 1 2.02-1.94q1.28-.7 2.92-.7 1.66 0 2.94.7a5.1 5.1 0 0 1 2.02 1.92q.74 1.22.74 2.84 0 1.58-.74 2.82a5.2 5.2 0 0 1-2.02 1.96q-1.28.7-2.94.7m0-2.14q.92 0 1.64-.4t1.12-1.16q.42-.76.42-1.78 0-1.04-.42-1.78a2.76 2.76 0 0 0-1.12-1.16q-.72-.4-1.62-.4-.92 0-1.64.4a2.94 2.94 0 0 0-1.12 1.16q-.42.74-.42 1.78 0 1.02.42 1.78t1.12 1.16q.72.4 1.62.4m14.011 2.14q-1.3 0-2.38-.6-1.06-.6-1.7-1.8-.62-1.22-.62-3.08 0-1.88.6-3.08.62-1.2 1.68-1.78 1.06-.6 2.42-.6 1.58 0 2.78.68a4.97 4.97 0 0 1 1.92 1.9q.72 1.22.72 2.88t-.72 2.9a4.97 4.97 0 0 1-1.92 1.9q-1.2.68-2.78.68m-5.92 3.74V82.32h2.38v2.52l-.08 2.84.2 2.84v6.36zm5.64-5.88q.9 0 1.6-.4.72-.4 1.14-1.16t.42-1.78q0-1.04-.42-1.78a2.9 2.9 0 0 0-1.14-1.16q-.7-.4-1.6-.4t-1.62.4-1.14 1.16q-.42.74-.42 1.78 0 1.02.42 1.78t1.14 1.16 1.62.4m678.811 326v-25.6l2.8 2.8h-8.4V389h12.08v28zm11.1 0v-4.2l10.8-10.2c.86-.773 1.48-1.467 1.88-2.08s.67-1.173.8-1.68q.24-.76.24-1.4c0-1.12-.38-1.973-1.16-2.56-.74-.613-1.85-.92-3.32-.92-1.17 0-2.26.227-3.28.68q-1.47.68-2.52 2.12l-4.72-3.04c1.07-1.6 2.56-2.867 4.48-3.8s4.14-1.4 6.64-1.4c2.08 0 3.9.347 5.44 1.04 1.58.667 2.79 1.613 3.64 2.84q1.32 1.84 1.32 4.4 0 1.36-.36 2.72c-.21.88-.66 1.813-1.36 2.8-.66.987-1.65 2.093-2.96 3.32l-8.96 8.44-1.24-2.36h15.8V417zm28.27 0 19.12-28h4.76l-19.12 28zm2.44-12.88q-2.04 0-3.6-.92c-1.04-.64-1.87-1.533-2.48-2.68-.59-1.173-.88-2.547-.88-4.12s.29-2.933.88-4.08c.61-1.147 1.44-2.04 2.48-2.68q1.56-.96 3.6-.96t3.6.96c1.04.64 1.85 1.533 2.44 2.68s.88 2.507.88 4.08-.29 2.947-.88 4.12c-.59 1.147-1.4 2.04-2.44 2.68q-1.56.92-3.6.92m0-3.28c.88 0 1.59-.36 2.12-1.08.53-.747.8-1.867.8-3.36s-.27-2.6-.8-3.32c-.53-.747-1.24-1.12-2.12-1.12-.85 0-1.56.373-2.12 1.12-.53.72-.8 1.827-.8 3.32 0 1.467.27 2.573.8 3.32.56.747 1.27 1.12 2.12 1.12m19 16.48q-1.995 0-3.6-.92c-1.04-.64-1.85-1.533-2.44-2.68-.59-1.173-.88-2.547-.88-4.12s.29-2.933.88-4.08 1.4-2.04 2.44-2.68q1.605-.96 3.6-.96c1.39 0 2.6.32 3.64.96s1.85 1.533 2.44 2.68.88 2.507.88 4.08-.29 2.947-.88 4.12c-.59 1.147-1.4 2.04-2.44 2.68-1.04.613-2.25.92-3.64.92m0-3.28c.88 0 1.59-.36 2.12-1.08.53-.747.8-1.867.8-3.36 0-1.467-.27-2.573-.8-3.32s-1.24-1.12-2.12-1.12c-.85 0-1.56.373-2.12 1.12-.53.72-.8 1.827-.8 3.32s.27 2.613.8 3.36c.56.72 1.27 1.08 2.12 1.08M1025.72 438v-11.8h-4.64V424h11.88v2.2h-4.64V438zm12.88.14q-1.785 0-3.12-.7c-.88-.48-1.57-1.133-2.06-1.96q-.72-1.24-.72-2.82c0-1.067.23-2.007.7-2.82a5.14 5.14 0 0 1 1.96-1.94c.84-.467 1.79-.7 2.86-.7 1.04 0 1.96.227 2.78.68a4.96 4.96 0 0 1 1.92 1.92c.46.827.7 1.8.7 2.92 0 .107-.01.227-.02.36 0 .133-.01.26-.02.38h-8.9v-1.66h7.58l-.98.52c.01-.613-.12-1.153-.38-1.62a3 3 0 0 0-1.1-1.1c-.46-.267-.98-.4-1.58-.4q-.93 0-1.62.4t-1.08 1.12c-.26.467-.38 1.02-.38 1.66v.4c0 .64.14 1.207.44 1.7.29.493.7.873 1.24 1.14.53.267 1.14.4 1.84.4q.9 0 1.62-.28c.48-.187.9-.48 1.28-.88l1.34 1.54c-.48.56-1.09.993-1.82 1.3-.72.293-1.55.44-2.48.44m13.71-.14v-2.16l-.14-.46v-3.78q0-1.1-.66-1.7c-.44-.413-1.11-.62-2-.62-.6 0-1.2.093-1.78.28a4.3 4.3 0 0 0-1.46.78l-.98-1.82q.855-.66 2.04-.98c.8-.227 1.62-.34 2.48-.34 1.54 0 2.74.373 3.58 1.12.85.733 1.28 1.873 1.28 3.42V438zm-3.36.14q-1.2 0-2.1-.4c-.6-.28-1.07-.66-1.4-1.14a3 3 0 0 1-.48-1.66q0-.9.42-1.62c.29-.48.76-.86 1.42-1.14.65-.28 1.52-.42 2.6-.42h3.1v1.66h-2.92c-.86 0-1.43.14-1.72.42-.3.267-.44.6-.44 1q0 .68.54 1.08t1.5.4c.61 0 1.16-.14 1.64-.42.49-.28.84-.693 1.06-1.24l.42 1.5c-.24.627-.68 1.113-1.3 1.46q-.93.52-2.34.52m22.4-10.94c.86 0 1.61.167 2.26.5q1.005.5 1.56 1.54c.38.68.56 1.56.56 2.64V438h-2.5v-5.8c0-.947-.2-1.653-.62-2.12-.41-.467-1-.7-1.78-.7-.54 0-1.03.12-1.46.36-.41.24-.74.593-.98 1.06-.22.467-.34 1.06-.34 1.78V438h-2.5v-5.8c0-.947-.2-1.653-.62-2.12-.41-.467-1-.7-1.78-.7-.54 0-1.03.12-1.46.36-.41.24-.74.593-.98 1.06-.22.467-.34 1.06-.34 1.78V438h-2.5v-10.68h2.38v2.84l-.42-.84q.54-1.04 1.56-1.58c.7-.36 1.48-.54 2.36-.54 1 0 1.87.247 2.6.74.75.493 1.24 1.24 1.48 2.24l-.98-.34c.35-.8.92-1.44 1.72-1.92s1.73-.72 2.78-.72M921.88 718v-25.6l2.8 2.8h-8.4V690h12.08v28zm20.864.48q-2.92 0-5.8-.76-2.84-.8-4.88-2.24l2.56-4.96q1.6 1.16 3.68 1.84 2.12.68 4.28.68 2.44 0 3.84-.96t1.4-2.68q0-1.08-.56-1.92t-2-1.28q-1.4-.44-3.96-.44h-7.16l1.44-15.76h17.08v5.2h-14.76l3.36-2.96-1 11.24-3.36-2.96h5.92q4.16 0 6.68 1.16 2.56 1.12 3.72 3.08t1.16 4.44a8.95 8.95 0 0 1-1.24 4.6q-1.24 2.08-3.84 3.4-2.56 1.28-6.56 1.28m17.919-.48 19.12-28h4.76l-19.12 28zm2.44-12.88q-2.04 0-3.6-.92-1.56-.96-2.48-2.68-.88-1.76-.88-4.12t.88-4.08q.92-1.72 2.48-2.68t3.6-.96 3.6.96 2.44 2.68.88 4.08-.88 4.12q-.88 1.72-2.44 2.68-1.56.92-3.6.92m0-3.28q1.32 0 2.12-1.08.8-1.12.8-3.36t-.8-3.32q-.8-1.12-2.12-1.12-1.28 0-2.12 1.12-.8 1.08-.8 3.32 0 2.2.8 3.32.84 1.12 2.12 1.12m19 16.48q-2.001 0-3.6-.92-1.56-.96-2.44-2.68-.88-1.76-.88-4.12t.88-4.08 2.44-2.68q1.599-.96 3.6-.96 2.08 0 3.64.96t2.44 2.68.88 4.08-.88 4.12q-.88 1.72-2.44 2.68-1.56.92-3.64.92m0-3.28q1.32 0 2.12-1.08.8-1.12.8-3.36 0-2.2-.8-3.32t-2.12-1.12q-1.28 0-2.12 1.12-.8 1.08-.8 3.32t.8 3.36q.84 1.08 2.12 1.08m-51.843 16.4h6.98v2.2h-6.98zm.22 7.56h-2.6v-14h10.22v2.18h-7.62zm14.121.14q-1.359 0-2.4-.5a3.74 3.74 0 0 1-1.62-1.56q-.58-1.06-.58-2.66v-6.1h2.5v5.76q0 1.44.64 2.16.66.7 1.86.7.88 0 1.52-.36.66-.36 1.02-1.08.38-.72.38-1.78v-5.4h2.5V739h-2.38v-2.88l.42.88a3.73 3.73 0 0 1-1.58 1.6q-1.04.54-2.28.54m15.154-10.94q1.28 0 2.28.5 1.02.5 1.6 1.54.58 1.02.58 2.64V739h-2.5v-5.8q0-1.42-.68-2.12-.66-.7-1.86-.7-.88 0-1.56.36t-1.06 1.08q-.36.7-.36 1.78v5.4h-2.5v-10.68h2.38v2.88l-.42-.88q.56-1.02 1.62-1.56 1.08-.56 2.48-.56m12.171 10.94q-1.54 0-2.78-.68a5.1 5.1 0 0 1-1.92-1.92q-.7-1.22-.7-2.88t.7-2.88a4.95 4.95 0 0 1 1.92-1.9q1.24-.68 2.78-.68 1.34 0 2.4.6 1.059.58 1.68 1.78.62 1.2.62 3.08 0 1.86-.6 3.08-.6 1.2-1.66 1.8t-2.44.6m.3-2.14q.9 0 1.6-.4.72-.4 1.14-1.16.44-.76.44-1.78 0-1.04-.44-1.78a2.9 2.9 0 0 0-1.14-1.16q-.7-.4-1.6-.4t-1.62.4a3.07 3.07 0 0 0-1.14 1.16q-.42.74-.42 1.78 0 1.02.42 1.78a3.07 3.07 0 0 0 1.14 1.16q.72.4 1.62.4m3.24 2v-2.52l.1-2.84-.2-2.84v-6.64h2.48V739z"/><defs><linearGradient id="a" x1="438.5" x2="543.45" y1="125.5" y2="479.722" gradientUnits="userSpaceOnUse"><stop stop-color="#E200E8"/><stop offset="1" stop-color="#FA5454"/></linearGradient><linearGradient id="b" x1="250" x2="530.71" y1="590" y2="543.884" gradientUnits="userSpaceOnUse"><stop stop-color="#54D6FF"/><stop offset="0.546875" stop-color="#C275FF"/><stop offset="1" stop-color="#F36AFF"/></linearGradient><linearGradient id="c" x1="838.5" x2="701" y1="510.5" y2="726" gradientUnits="userSpaceOnUse"><stop stop-color="#B2FF0F"/><stop offset="1" stop-color="#76FFEF"/></linearGradient><linearGradient id="d" x1="840" x2="874" y1="265.5" y2="502.5" gradientUnits="userSpaceOnUse"><stop stop-color="#FF6C56"/><stop offset="1" stop-color="#FF9344"/></linearGradient><linearGradient id="e" x1="300.463" x2="718.928" y1="161.252" y2="734.125" gradientUnits="userSpaceOnUse"><stop stop-color="#FFB78F"/><stop offset="1" stop-color="#DB73FF"/></linearGradient><linearGradient id="f" x1="579.5" x2="641.023" y1="171" y2="93.7508" gradientUnits="userSpaceOnUse"><stop stop-color="#FE8686"/><stop offset="1" stop-color="#905BFF"/></linearGradient><linearGradient id="g" x1="520.5" x2="563" y1="93" y2="156" gradientUnits="userSpaceOnUse"><stop stop-color="#7673FF"/><stop offset="1" stop-color="#42F4FF"/></linearGradient><linearGradient id="h" x1="473" x2="507" y1="93" y2="148" gradientUnits="userSpaceOnUse"><stop stop-color="#FB2000"/><stop offset="1" stop-color="#FF7C1E"/></linearGradient></defs></svg>