<svg xmlns="http://www.w3.org/2000/svg" width="90" height="90" fill="none" viewBox="0 0 90 90"><path fill="#fff" d="M40.74 15.427c.973-4.635 4.621-8.035 9.136-8.517.269-.028.62-.056.779-.06l.29-.008v2.113l-.413.038c-2.318.216-4.074 1.045-5.564 2.627-1.141 1.211-1.834 2.551-2.19 4.234-.152.722-.15 2.61.005 3.336.366 1.718 1.106 3.111 2.296 4.325 1.022 1.042 2.165 1.747 3.494 2.155.63.194 1.485.34 1.99.34h.382v2.156l-.723-.044c-1.785-.11-3.489-.707-5.078-1.782-.948-.64-2.171-1.886-2.798-2.85a11.3 11.3 0 0 1-1.608-3.91c-.12-.57-.138-.842-.14-2.061-.003-1.247.013-1.482.141-2.092"/><path fill="#fff" d="M46.706 12.84c1.073-1.026 2.41-1.608 3.933-1.71.151-.01.371-.011.489-.002.852.067 1.096.105 1.568.246 2.487.736 4.275 2.986 4.502 5.662l.041.486-2.112-.035-.039-.447c-.084-.96-.47-1.765-1.21-2.521-.848-.868-1.738-1.246-2.932-1.246-2.811 0-4.797 2.78-3.946 5.526.5 1.614 1.91 2.79 3.53 2.944l.415.04v2.123l-.51-.037c-1.417-.102-2.842-.78-3.89-1.852-2.501-2.558-2.429-6.7.161-9.177M39.59 26.856c-1.977-2.567-3.001-5.353-3.209-8.73l-.037-.61 2.114.034.04.812c.076 1.52.513 3.22 1.212 4.7 1.453 3.082 4.055 5.439 7.212 6.534 1.194.414 1.874.545 3.61.697l.413.036v2.129l-.687-.043c-3.695-.232-6.996-1.723-9.547-4.312a18 18 0 0 1-1.121-1.248"/><path fill="#fff" d="M54.303 19c-.005-.207.05-.417.125-.467.175-.118 8.048-.092 8.048.026 0 .05-.72.777-1.6 1.619l-1.6 1.529H52.92l-.064 2.97-.854.012v-3.914h6.849l.674-.6c.37-.33.674-.643.674-.696s-.218-.09-.484-.083-1.59.005-2.943-.003l-2.458-.017z"/><path fill="#fff" d="M54.393 24.757v-2.002h.91v1.071l2.057-.046c1.131-.025 2.078-.01 2.105.034s-.671.768-1.55 1.608l-1.6 1.528h-3.402v4.212l1.473-1.358.007-1.805h.91v2.182l-1.45 1.386a70 70 0 0 1-1.651 1.544c-.19.15-.2-.03-.2-3.467v-3.626h3.889l.675-.601c.371-.33.645-.632.608-.67s-.678-.051-1.425-.03z"/><path fill="#fff" d="M68.957 19.994c0 11.043-8.752 19.995-19.547 19.995s-19.547-8.952-19.547-19.995C29.863 8.952 38.614 0 49.41 0c10.795 0 19.547 8.952 19.547 19.994m-37.14 0c0 9.939 7.877 17.995 17.593 17.995s17.592-8.056 17.592-17.995C67.002 10.056 59.126 2 49.41 2s-17.592 8.057-17.592 17.995"/><path fill="#fff" fill-rule="evenodd" d="M72.192 29.644c-2.341.887-3.656 3.75-2.832 6.167l.218.639-12.925 12.949-.727-.262c-1.533-.554-3.44-.134-4.617 1.016l-.51.499L39.93 46.21l-.21-1.16c-.844-4.64-6.728-5.612-8.806-1.456-.528 1.057-.712 2.58-.424 3.51.104.334-.771 1.104-6.182 5.44l-6.304 5.052-1.158-.4c-2.724-.944-5.396.426-6.174 3.165-1.068 3.757 2.381 7.096 6.045 5.85 2.06-.699 3.263-2.646 3.097-5.01l-.092-1.318 6.118-4.888c3.364-2.69 6.221-4.952 6.348-5.03s.594.027 1.037.233c1.538.714 3.506.42 4.807-.72l.756-.662 10.835 4.428.215 1.179c.807 4.442 6.34 5.572 8.64 1.764.443-.731.57-1.185.628-2.224.045-.813-.02-1.533-.172-1.909l-.245-.603 12.92-12.962.734.265c1.574.568 3.222.228 4.506-.928 1.207-1.087 1.626-2.025 1.627-3.64 0-1.931-.887-3.42-2.567-4.305-.95-.5-2.723-.614-3.718-.237m2.512 2.839c.672.355.923.817.923 1.698 0 .9-.439 1.547-1.23 1.815-1.714.578-3.185-1.5-2.08-2.937.662-.86 1.478-1.057 2.387-.576m-38.31 11.999c.387.367.51.66.51 1.218 0 .933-.242 1.39-.923 1.751-.872.46-1.452.359-2.177-.383-.587-.6-.643-.746-.553-1.436.12-.914.544-1.446 1.322-1.655.755-.204 1.206-.08 1.821.505m30.684 3.428-.437.362v41.003l.437.363c.412.34.81.362 6.725.362h6.288l.909-.93V68.808c0-20.211 0-20.263-.384-20.761l-.384-.5h-6.358c-5.984 0-6.384.022-6.796.363M78.22 87.157h-8.708V50.39h8.708zm-22.373-34.68c.666.748.681 1.656.042 2.434-.587.713-1.331.893-2.185.528-.78-.333-1.054-.795-1.049-1.767.01-1.79 2-2.534 3.192-1.194M29.002 59.43c-.218.044-.552.254-.741.468-.327.37-.346 1.064-.396 14.44-.028 7.729-.005 14.246.051 14.483.057.238.268.6.47.806.35.358.64.374 6.725.374h6.36l.806-.877V74.766c0-9.002-.068-14.485-.182-14.703-.356-.68-1.168-.766-7.026-.74-3.118.015-5.848.062-6.067.106m-12.553.892c.7.717.796 1.32.35 2.203-.353.698-.8.943-1.721.943-1.79 0-2.446-2.46-.91-3.417.893-.558 1.546-.48 2.28.271m23.049 26.836h-8.709V62.33h8.709zm8.58-19.708a1.4 1.4 0 0 0-.602.544c-.132.253-.197 3.698-.197 10.496v10.118l.429.412c.423.407.515.412 6.742.412 5.94 0 6.34-.021 6.75-.362l.438-.362.102-20.332-1.092-1.117-6.082.012c-3.346.006-6.265.087-6.487.178m10.688 19.14h-8.708V70.29h8.709zM8 76.148V89.07l.91.93h6.287c5.913 0 6.313-.022 6.725-.362l.437-.362.054-6.309c.057-6.719.01-7.15-.816-7.535-.312-.146-2.424-.215-6.574-.215H8.91zm11.487 11.01H10.78V78.06h8.708z" clip-rule="evenodd"/></svg>