<svg xmlns="http://www.w3.org/2000/svg" width="50" height="50" fill="none" viewBox="0 0 50 50"><path fill="#fff" fill-rule="evenodd" d="M1.977.186C.995.525.297 1.3.085 2.288c-.076.357-.099 6.93-.077 23.007l.03 22.508.205.444c.301.65.76 1.123 1.39 1.432l.555.272 17.649.026c13.171.02 17.717-.003 17.921-.087.293-.12.558-.532.558-.867 0-.322-.255-.732-.535-.86-.196-.088-4.375-.116-17.66-.116-18.93 0-17.801.034-18.06-.534-.17-.372-.17-44.65 0-45.02.199-.436.536-.535 1.829-.535 1.294 0 1.61-.087 1.826-.502C5.977.95 5.796.338 5.32.122 4.9-.07 2.588-.025 1.977.186M8.31.14c-.847.47-.493 1.817.478 1.817.496 0 .978-.477.978-.967 0-.733-.811-1.207-1.456-.85m3.911 0c-.655.364-.634 1.396.036 1.7.195.09 4.373.117 17.65.117 13.278 0 17.456.028 17.651.117.572.26.535-1.307.535 22.928s.037 22.667-.535 22.927c-.153.07-.728.117-1.43.117-1.292 0-1.63.099-1.829.534-.154.338-.147.588.026.922.23.443.564.52 2.124.482 1.298-.031 1.44-.054 1.956-.306a2.9 2.9 0 0 0 1.39-1.432l.205-.444v-45.6l-.273-.555A2.9 2.9 0 0 0 48.294.26l-.445-.205L30.152.032C15.574.015 12.414.034 12.222.141M10.964 7.08a5.24 5.24 0 0 0-3.878 3.66c-.202.688-.202 2.058 0 2.747.83 2.82 3.835 4.438 6.525 3.514.895-.307 1.367-.601 2.033-1.266 1.633-1.63 1.998-3.924.954-5.99-.361-.715-1.4-1.797-2.036-2.121-1.171-.597-2.489-.796-3.598-.544m2.489 2.205q.995.488 1.518 1.551c.311.635.307 1.911-.009 2.56-.353.725-.842 1.218-1.553 1.568-1.252.615-2.635.377-3.628-.625-.6-.605-.836-1.156-.88-2.052-.042-.89.122-1.464.595-2.081.958-1.253 2.53-1.618 3.957-.92m18.41 8.637c-1.388.31-2.43.742-3.445 1.428-.31.209-.584.38-.612.38-.027 0-.05-.137-.05-.303 0-.424-.257-.92-.547-1.05-.322-.148-7.496-.157-7.769-.012-.503.27-.483-.222-.483 12.344v11.67l.285.32.285.318 3.869.028c4.18.03 4.285.019 4.578-.492.097-.17.136-1.818.174-7.396l.048-7.177.29-.521c.343-.62.7-.94 1.41-1.266 1.388-.637 3.059-.027 3.808 1.39l.261.494.049 7.2.049 7.199.27.27.272.271 3.858.028c4.169.03 4.275.018 4.568-.492.099-.173.125-1.91.125-8.275 0-7.436-.014-8.12-.179-8.884-.763-3.538-3.282-6.248-6.766-7.281-1.104-.327-3.308-.425-4.348-.192m-24.075.628-.32.285v11.75c0 9.366.026 11.794.125 11.968.293.512.398.523 4.578.493l3.869-.028.285-.319.285-.319V30.708c0-12.565.02-12.074-.483-12.343-.12-.064-1.605-.1-4.104-.1H8.107zm28.132 1.515c2.044.693 3.545 1.98 4.454 3.814.797 1.608.777 1.363.777 9.78v7.455H35.97l-.001-6.371c-.002-6.995-.008-7.082-.591-8.174-.568-1.065-1.691-2-2.83-2.356-.87-.272-2.18-.27-2.974.004-1.578.546-2.684 1.656-3.208 3.22-.21.63-.215.752-.249 7.16l-.034 6.517h-5.17V20.218h4.889v1.128c0 1.319.108 1.628.632 1.8.189.062.439.082.556.045s.657-.513 1.2-1.058c1.008-1.014 1.645-1.457 2.705-1.885 1.018-.41 1.691-.518 3.022-.482 1.015.028 1.355.078 2.005.299M14.655 30.666v10.448H9.473V20.218h5.182zM40.77 48.183c-.848.47-.493 1.817.478 1.817.496 0 .978-.477.978-.967 0-.733-.811-1.206-1.456-.85" clip-rule="evenodd"/></svg>