<svg xmlns="http://www.w3.org/2000/svg" width="58" height="50" fill="none" viewBox="0 0 58 50"><path fill="#fff" fill-rule="evenodd" d="M46.396.208c-1.048.315-1.635.68-2.439 1.52-1.793 1.873-2.18 4.419-1.029 6.77.381.777 1.36 1.854 2.083 2.291.96.58 1.753.796 2.916.796 1.662 0 2.863-.52 4.039-1.753 2.176-2.28 2.145-5.79-.07-8.105-.407-.425-.998-.907-1.314-1.072-1.279-.669-2.88-.84-4.186-.447m2.949 2.449c1.256.612 1.92 1.708 1.923 3.174.002.703-.053.988-.276 1.438-1.318 2.664-4.812 2.664-6.13 0-.372-.75-.39-2.057-.038-2.847.81-1.824 2.804-2.603 4.52-1.765m-10.647.728c-.524.643-.319 1.482.443 1.81 1.136.49 2.068-.932 1.2-1.828-.268-.276-.43-.341-.84-.341-.43 0-.555.056-.803.36m-4.091.31c-.409.103-1.708 1.064-2.37 1.75-1.263 1.314-1.774 2.34-2.674 5.37-.328 1.102-.633 2.065-.678 2.14-.053.089-.736.176-1.916.245-5.39.316-10.144 1.695-14.297 4.15l-.85.502-.988-.5c-1.24-.628-2.106-.829-3.547-.82-2.784.014-5.235 1.636-6.526 4.318-1.472 3.059-.764 6.781 1.733 9.11.382.357.737.649.788.649s.095.407.095.906c.006 8.443 7.827 15.776 19.104 17.912 3.514.666 8.28.761 11.673.234 3.489-.542 7.935-1.92 8.755-2.715.371-.36.356-1.125-.03-1.523-.407-.42-.744-.446-1.613-.122-2.936 1.093-4.433 1.525-6.566 1.895-6.658 1.153-13.645.244-19.137-2.49-2.664-1.325-4.44-2.605-6.123-4.41-1.948-2.09-3.068-4.152-3.58-6.59-.212-1.012-.19-3.44.04-4.445 1.13-4.927 5.232-9.108 11.39-11.608 7.159-2.906 16.252-2.906 23.411 0 6.159 2.5 10.262 6.682 11.39 11.608.288 1.257.258 3.58-.063 4.906-.462 1.908-1.586 4.022-3.008 5.657-.4.46-.755.98-.789 1.157-.084.435.243 1.103.635 1.295.527.258.95.071 1.71-.757 2.518-2.742 4.036-6.497 4.038-9.995 0-.89.003-.898.381-1.139.993-.632 2.14-2.286 2.616-3.767.626-1.954.495-3.95-.381-5.768-1.293-2.684-3.74-4.304-6.526-4.319-1.442-.008-2.308.193-3.546.822l-.988.502-.737-.447c-3.687-2.23-8.474-3.728-13.292-4.156-.483-.043-.878-.11-.878-.15 0-.257 1.218-3.945 1.48-4.478.43-.878 1.306-1.845 2.262-2.494.431-.293.837-.634.901-.759.299-.574-.002-1.425-.576-1.631-.198-.072-.39-.124-.428-.116s-.17.039-.295.07M9.121 19.105l.587.197-1.448 1.475c-2.116 2.156-3.258 3.886-4.024 6.098-.202.583-.404 1.06-.45 1.06-.148-.003-.736-.838-1.028-1.46-.941-2.004-.445-4.647 1.158-6.16.718-.677 1.767-1.24 2.602-1.396.734-.137 1.89-.055 2.603.185m42.25-.187c3.836.648 5.658 5.462 3.25 8.586-.182.236-.369.43-.415.43s-.249-.476-.45-1.059c-.767-2.212-1.908-3.942-4.026-6.1L48.281 19.3l.588-.182c1.099-.341 1.479-.372 2.502-.199M19.615 23.66c-.892.248-1.477.597-2.133 1.273-1.683 1.735-1.874 4.364-.46 6.343 1.727 2.42 5.155 2.655 7.156.491 1.067-1.153 1.539-2.629 1.31-4.095-.453-2.903-3.174-4.761-5.873-4.012m16.638.007c-2.308.64-3.818 3.055-3.428 5.483.426 2.65 2.927 4.513 5.418 4.038 2.602-.495 4.344-2.966 3.926-5.568-.463-2.879-3.197-4.707-5.916-3.953m-14.45 2.37c.254.119.645.438.87.71 1.854 2.232-.86 5.358-3.24 3.732-1.107-.756-1.426-2.425-.677-3.54.651-.97 2.032-1.377 3.048-.902m16.793.076c.81.416 1.396 1.34 1.395 2.195-.002 1.384-1.197 2.651-2.5 2.651-.528 0-1.28-.344-1.721-.787a2.53 2.53 0 0 1 .58-4.029c.787-.423 1.463-.432 2.246-.03M19.53 37.903c-.603.622-.482 1.317.339 1.96 1.322 1.034 3.704 2.101 5.739 2.571 1.012.234 1.487.272 3.388.272 2.438 0 3.649-.196 5.446-.879 1.643-.624 3.746-1.84 4.189-2.42.318-.417.291-.987-.066-1.426-.45-.552-1.016-.503-2.03.177-2.3 1.538-4.797 2.297-7.548 2.292-2.758-.004-5.238-.759-7.53-2.292-.947-.634-1.49-.706-1.927-.254m25.495 5.492c-.424.438-.487.814-.224 1.34.287.572.971.752 1.54.406 1-.61.55-2.143-.63-2.143-.19 0-.442.145-.686.397" clip-rule="evenodd"/></svg>