<svg xmlns="http://www.w3.org/2000/svg" width="50" height="50" fill="none" viewBox="0 0 50 50"><path fill="#fff" fill-rule="evenodd" d="M4.348.114c-.268.05-.841.262-1.274.471C1.59 1.302.394 2.855.11 4.441c-.147.813-.147 40.354 0 41.167.34 1.895 1.82 3.534 3.8 4.209.517.176 1.26.183 21.08.183s20.563-.007 21.081-.183c1.338-.456 2.293-1.185 3.014-2.303.632-.98.806-1.616.864-3.16l.022-.562a.753.753 0 0 0-.753-.781.806.806 0 0 0-.806.781l-.014.477c-.039 1.217-.051 1.281-.401 1.99-.436.883-1.003 1.438-1.908 1.868-.43.203-.899.309-1.374.309H5.265c-.475 0-.944-.106-1.373-.31-.908-.43-1.473-.984-1.912-1.874a3.5 3.5 0 0 1-.364-1.562V5.268c0-.476.105-.946.309-1.376.428-.906.983-1.474 1.864-1.91.708-.351.772-.364 1.987-.402l.486-.015a.795.795 0 0 0 .77-.795.763.763 0 0 0-.77-.762L5.934.01c-.603.006-1.317.052-1.586.103m4.246.668a.782.782 0 1 0 1.564 0 .782.782 0 0 0-1.564 0M11.717.78c0 .431.35.781.78.782l16.031.024 16.19.025c.409 0 .812.095 1.179.275 1.304.642 2.134 2.294 2.416 4.809.063.559.1 7.054.1 17.815v16.152a.783.783 0 0 0 1.566 0l-.03-16.787c-.032-17.461-.034-17.577-.239-18.5-.692-3.122-2.04-4.81-4.205-5.265C45.136.031 40.21 0 28.352 0H12.499a.78.78 0 0 0-.781.78m8.393 7.89c-3.247.198-7.327.923-8.586 1.527-.81.388-1.99 1.544-2.377 2.328-.243.49-.957 2.82-.89 2.902.037.044 1.447.404 1.474.376.013-.012.158-.521.324-1.13.165-.61.35-1.203.41-1.318a4.44 4.44 0 0 1 1.345-1.51c.634-.424 1.761-.745 3.845-1.095 1.896-.318 1.904-.31.58.582-1.432.964-2.835 2.173-2.92 2.517a.814.814 0 0 0 .374.905c.307.172.38.155 2.273-.53 3.44-1.243 7.41-1.867 10.321-1.621 2.77.234 5.453.802 7.979 1.69.778.273 1.565.497 1.747.498.41.002.693-.31.693-.764 0-.268-.107-.42-.66-.942-.789-.743-1.921-1.607-2.77-2.113-.787-.468-.625-.501 1.059-.219 2.96.496 4.008.925 4.758 1.948.486.664.572.904 1.172 3.303a94 94 0 0 1 2.34 13.16c.078.746.155 1.365.171 1.376.056.04 1.43-.092 1.477-.14.073-.077-.202-2.563-.569-5.132-.704-4.927-2.113-11.209-2.844-12.679-.49-.986-1.354-1.854-2.317-2.33-1.686-.832-6.952-1.653-10.63-1.657-.782 0-.88.02-1.098.24a.76.76 0 0 0-.069 1.02c.112.137.476.29 1.05.443a20 20 0 0 1 1.561.49c.79.297 2.212.95 2.166.997-.017.017-.577-.075-1.245-.204-2.142-.415-3.656-.576-5.459-.58-2.095-.004-3.42.163-6.149.774-.385.086.633-.432 1.656-.843a20 20 0 0 1 1.858-.62c.614-.165.985-.318 1.098-.456a.76.76 0 0 0-.069-1.022c-.23-.23-.287-.24-1.39-.222a51 51 0 0 0-1.689.051M7.677 17.739c-.095.401-.147.77-.117.82.047.076 1.187.34 1.393.322.072-.006.43-1.407.373-1.464-.024-.025-.602-.184-1.47-.407-.004 0-.085.327-.18.729m-.547 2.52c0 .013-.129.728-.286 1.588a89 89 0 0 0-1.288 10.509c-.136 2.186-.053 2.817.525 3.996.366.747 1.338 1.791 2.057 2.209.887.516 4.353 1.56 6.8 2.047 2.128.425 5.496.839 6.826.839.703 0 .758-.112 1.235-2.491.236-1.178.43-2.216.43-2.307s-.08-.265-.178-.386c-.153-.189-.343-.24-1.328-.352-1.114-.129-2.941-.502-2.859-.585.023-.023.344.022.715.098 1.67.346 3.227.494 5.211.494s3.542-.148 5.212-.494c.37-.076.691-.12.714-.098.083.083-1.745.456-2.86.584-.983.114-1.174.164-1.326.353-.098.121-.178.295-.178.386 0 .09.193 1.129.43 2.307.477 2.38.532 2.49 1.234 2.49 2.263 0 6.924-.74 9.873-1.57 2.869-.806 3.822-1.218 4.68-2.021 1.338-1.254 1.878-2.85 1.698-5.018l-.006-.075a.765.765 0 0 0-.812-.7.8.8 0 0 0-.75.8v.57c0 1.615-.171 2.142-.976 3.013-.684.74-1.15.98-3.046 1.566-3.04.94-6.93 1.666-9.593 1.79a.63.63 0 0 1-.647-.501l-.105-.497c-.12-.562-.218-1.09-.22-1.173-.003-.116.188-.18.809-.27 2.871-.415 5.823-1.819 7.9-3.757.366-.34.462-.495.462-.745 0-.377-.372-.796-.704-.793-.123 0-.838.2-1.59.441-3.62 1.166-7.567 1.903-10.185 1.902-2.666 0-6.61-.735-10.256-1.91-.741-.24-1.443-.435-1.56-.435-.322 0-.69.425-.69.796 0 .259.102.411.56.842.776.726 2.532 1.886 3.64 2.404 1.206.565 2.613 1 3.92 1.212.624.1 1.054.216 1.054.282 0 .127-.373 1.985-.43 2.141-.042.117-1.255.038-3.181-.207-3.113-.395-7.916-1.624-9.127-2.334-.944-.554-1.716-1.726-1.868-2.837-.11-.808.255-5.2.703-8.446.217-1.566.738-4.659.884-5.248.045-.18-.016-.214-.577-.318-.599-.11-.946-.144-.946-.091m8.892 1.01c-2.474.667-4.005 3.233-3.375 5.658.604 2.323 2.839 3.841 5.161 3.506A4.694 4.694 0 0 0 21.8 26.45c.468-3.252-2.628-6.03-5.777-5.181m15.616 0c-2.475.667-4.006 3.233-3.375 5.658.604 2.323 2.839 3.841 5.16 3.506a4.694 4.694 0 0 0 3.992-3.983c.468-3.252-2.629-6.03-5.777-5.181M18.46 22.963c.675.319 1.097.72 1.46 1.394.303.564.332.692.334 1.45 0 .77-.024.876-.348 1.466-1.5 2.733-5.573 1.865-5.824-1.241-.115-1.408.738-2.691 2.124-3.197.582-.212 1.66-.15 2.254.128m15.615 0c.676.319 1.097.72 1.46 1.394.303.564.333.692.334 1.45.002.77-.024.876-.347 1.466-1.501 2.733-5.573 1.865-5.825-1.241-.114-1.408.739-2.691 2.125-3.197.581-.212 1.66-.15 2.253.128" clip-rule="evenodd"/></svg>