<svg xmlns="http://www.w3.org/2000/svg" width="19" height="19" fill="none" viewBox="0 0 19 19"><path fill="#fff" fill-rule="evenodd" d="M.751.07a1.08 1.08 0 0 0-.719.8c-.029.135-.037 2.633-.03 8.742l.012 8.553.078.169q.172.37.529.544l.21.103 6.707.01c5.005.008 6.733 0 6.81-.033a.4.4 0 0 0 .212-.33.4.4 0 0 0-.203-.326c-.075-.034-1.663-.044-6.711-.044-7.193 0-6.764.013-6.863-.203C.72 17.914.72 1.088.783.947.86.781.987.744 1.478.744c.492 0 .612-.033.694-.19.1-.193.03-.425-.15-.508C1.862-.026.984-.01.752.071M3.158.055c-.322.178-.187.69.182.69.188 0 .371-.181.371-.367a.374.374 0 0 0-.553-.323m1.486 0c-.249.138-.24.53.013.646.075.034 1.662.044 6.708.044 5.045 0 6.633.01 6.707.044.217.1.204-.496.204 8.713s.013 8.614-.204 8.713c-.058.026-.277.044-.543.044-.491 0-.62.037-.695.203a.35.35 0 0 0 .01.35c.087.169.214.198.807.183.493-.012.547-.02.743-.116q.357-.175.528-.544l.078-.169V.837l-.104-.211a1.1 1.1 0 0 0-.544-.527l-.17-.079-6.724-.008c-5.54-.006-6.74 0-6.814.041M4.166 2.69a1.99 1.99 0 0 0-1.473 1.391c-.077.262-.077.782 0 1.044.315 1.072 1.457 1.687 2.48 1.335.34-.116.519-.228.772-.48.62-.62.759-1.492.362-2.277-.137-.271-.532-.683-.774-.806-.445-.227-.945-.302-1.367-.207m.946.838q.378.185.577.59c.118.24.117.726-.003.972a1.23 1.23 0 0 1-.59.596 1.165 1.165 0 0 1-1.38-.237c-.227-.23-.317-.44-.333-.78-.017-.338.046-.556.225-.79a1.185 1.185 0 0 1 1.504-.35m6.996 3.282c-.527.118-.924.282-1.31.543a2 2 0 0 1-.232.144c-.01 0-.019-.051-.019-.115 0-.16-.098-.35-.207-.4-.123-.055-2.849-.059-2.953-.003-.19.102-.183-.085-.183 4.69v4.436l.108.12.108.122 1.47.01c1.589.012 1.629.008 1.74-.187.037-.064.052-.69.066-2.81l.019-2.727.11-.198c.13-.236.265-.357.536-.481.527-.242 1.162-.01 1.446.528l.1.188.018 2.736.019 2.735.103.103.103.103 1.466.01c1.584.012 1.625.008 1.736-.187.037-.065.047-.725.047-3.144 0-2.826-.005-3.085-.068-3.376a3.65 3.65 0 0 0-2.57-2.767c-.42-.124-1.258-.161-1.653-.073m-9.149.239-.121.108v4.465c0 3.56.01 4.482.048 4.548.11.194.15.199 1.739.187l1.47-.01.108-.121.109-.121V11.67c0-4.775.007-4.588-.184-4.69-.045-.025-.61-.038-1.56-.038H3.082zm10.69.576c.777.263 1.348.752 1.693 1.45.303.61.296.517.296 3.716v2.832h-1.97v-2.42c0-2.659-.003-2.692-.225-3.107a1.95 1.95 0 0 0-1.075-.895c-.33-.104-.829-.103-1.13.002-.6.207-1.02.629-1.22 1.223-.08.24-.081.286-.094 2.72l-.013 2.477H7.947v-7.94h1.857v.428c0 .502.042.619.24.685a.4.4 0 0 0 .212.017c.045-.014.25-.195.456-.403.383-.385.625-.553 1.028-.716.387-.156.642-.197 1.148-.183.386.01.515.03.762.114m-8.08 4.028v3.97H3.6v-7.94h1.969zm9.924 6.657c-.322.178-.187.69.182.69.188 0 .371-.181.371-.367a.374.374 0 0 0-.553-.323" clip-rule="evenodd"/></svg>