<svg xmlns="http://www.w3.org/2000/svg" width="19" height="19" fill="none" viewBox="0 0 19 19"><path fill="#fff" fill-rule="evenodd" d="M4.936.036C3.08.243 1.43 1.406.577 3.11A5.7 5.7 0 0 0 .04 4.977c-.053.492-.053 8.548 0 9.04a5.56 5.56 0 0 0 4.94 4.943c.493.053 8.547.053 9.04 0a5.46 5.46 0 0 0 3.305-1.568 5.5 5.5 0 0 0 1.635-3.374c.053-.493.053-8.549 0-9.041a5.47 5.47 0 0 0-1.567-3.307A5.5 5.5 0 0 0 14.019.035c-.433-.047-8.66-.046-9.083.001m9.424.79c.754.18 1.365.453 1.934.863.756.545 1.434 1.484 1.715 2.375.242.767.23.467.23 5.433 0 4.209-.005 4.53-.068 4.82-.099.46-.238.877-.405 1.212-.695 1.394-1.883 2.305-3.447 2.642-.29.063-.612.067-4.819.067s-4.53-.004-4.82-.067c-1.034-.223-1.897-.69-2.576-1.397C1.457 16.102 1.04 15.3.83 14.318c-.063-.29-.067-.612-.067-4.82 0-4.21.004-4.531.067-4.821.211-.982.628-1.784 1.275-2.457A4.9 4.9 0 0 1 4.96.78C5.1.76 7.19.75 9.648.752c4.117.007 4.454.012 4.712.074m-9.43.858A3.9 3.9 0 0 0 2.866 2.72a3.9 3.9 0 0 0-1.178 2.23c-.08.496-.08 8.596 0 9.093a3.94 3.94 0 0 0 2.603 3.101c.57.194.856.22 2.323.22H7.94l.12-.107c.163-.145.17-.362.02-.514l-.103-.102-1.474-.02-1.474-.021-.334-.102c-1.08-.33-1.857-1.106-2.196-2.195l-.105-.334V5.025L2.5 4.69c.339-1.088 1.108-1.858 2.196-2.197l.334-.105h8.942l.334.105c1.088.34 1.857 1.109 2.197 2.197l.104.334v8.945l-.105.334c-.34 1.088-1.115 1.864-2.196 2.195l-.334.102-1.391.012c-.765.006-1.43.02-1.478.031a.43.43 0 0 0-.177.116c-.16.173-.1.451.122.564.13.067 2.577.056 2.998-.013a3.935 3.935 0 0 0 3.267-3.267c.08-.497.08-8.597 0-9.093a3.935 3.935 0 0 0-3.267-3.268c-.462-.075-8.668-.074-9.116.001m8.997 1.608c-.987.35-1.278 1.59-.545 2.322.692.692 1.847.477 2.273-.422.084-.176.097-.254.097-.557 0-.317-.011-.377-.115-.594a1.37 1.37 0 0 0-1.22-.807 1.2 1.2 0 0 0-.49.058m.704.726c.592.253.49 1.134-.146 1.265-.408.084-.856-.364-.772-.772a.76.76 0 0 1 .342-.467.73.73 0 0 1 .576-.026M9.055 4.4c-.73.058-1.92.454-2.041.68a.366.366 0 0 0 .071.453c.15.133.239.13.608-.022.729-.299 1.075-.37 1.807-.373.541-.002.923.052 1.332.188a4.43 4.43 0 0 1 2.96 3.317c.091.43.092 1.274 0 1.703-.375 1.757-1.685 3.069-3.439 3.443-.433.092-1.273.092-1.706 0a4.43 4.43 0 0 1-3.316-2.96c-.137-.411-.19-.79-.188-1.333.003-.763.107-1.205.471-2.017.11-.241.126-.31.098-.407a.35.35 0 0 0-.316-.273c-.202-.027-.3.062-.49.444-.964 1.949-.565 4.322.99 5.87a5.08 5.08 0 0 0 7.208 0 5.09 5.09 0 0 0 0-7.233 5.08 5.08 0 0 0-4.05-1.48M6.06 5.72a.4.4 0 0 0-.141.166c-.142.299.127.6.443.495.374-.123.302-.71-.086-.703a.6.6 0 0 0-.216.042m2.836.494a3.38 3.38 0 0 0-2.385 1.818c-.258.528-.325.83-.325 1.466 0 .438.015.594.08.835.254.93.916 1.737 1.768 2.155.528.258.83.325 1.466.325s.938-.067 1.466-.325a3.43 3.43 0 0 0 1.767-2.155c.066-.241.081-.397.081-.835 0-.636-.067-.938-.325-1.466a3.42 3.42 0 0 0-2.154-1.764c-.393-.103-1.05-.128-1.439-.054m1.116.744c.162.033.438.131.638.227.3.144.4.218.674.494.268.27.35.382.49.672.374.778.374 1.517 0 2.294-.14.29-.222.403-.49.673-.273.275-.374.35-.674.493-.783.377-1.517.377-2.3 0-.3-.144-.4-.218-.674-.493-.268-.27-.35-.382-.49-.673a2.7 2.7 0 0 1-.283-1.147c0-.36.1-.767.284-1.147.14-.29.221-.402.489-.672.273-.276.374-.35.674-.494.568-.273 1.085-.344 1.662-.227m-.642 9.7a.362.362 0 0 0-.12.587.3.3 0 0 0 .25.102c.431 0 .482-.631.056-.702a.4.4 0 0 0-.186.013" clip-rule="evenodd"/></svg>