<svg xmlns="http://www.w3.org/2000/svg" width="90" height="90" fill="none" viewBox="0 0 90 90"><g clip-path="url(#a)"><path fill="#fff" fill-rule="evenodd" d="M41.316.184c-5.234.61-10.197 2.462-14.798 5.522-3.014 2.005-3.553 2.79-2.677 3.904.66.84 1.451.69 3.16-.6 3.563-2.686 7.638-4.495 12.378-5.495 2.869-.605 8.2-.61 11.191-.01 12.19 2.442 21.451 11.71 23.883 23.902.558 2.799.594 8.111.073 10.826-2.391 12.466-11.814 21.896-24.28 24.3-2.69.518-8.21.476-10.867-.084-3.567-.752-6.813-1.986-9.556-3.633-7.526-4.516-12.556-11.654-14.277-20.26-.599-2.994-.594-8.328.01-11.2 1-4.743 2.807-8.822 5.492-12.387 1.287-1.71 1.438-2.503.599-3.163-1.1-.867-2.019-.225-4.039 2.824-2.703 4.08-4.55 8.913-5.238 13.71l-.235 1.642h-1.861c-1.024 0-2.209.102-2.633.228-1.029.304-2.581 1.857-2.885 2.887-.173.586-.228 5.738-.228 21.33v20.56H2.739c-1.665 0-1.821.032-2.264.475L0 75.938l.062 4.176.063 4.176.7 1.416c.842 1.706 1.928 2.77 3.67 3.595l1.25.593 23.661.05 23.66.05.464-.463c.612-.612.614-1.473.004-2.083l-.46-.46h-23.08c-17.574 0-23.265-.055-23.852-.228-1.029-.305-2.581-1.858-2.885-2.888-.13-.44-.228-1.87-.228-3.329v-2.556h29.98v1.79c0 1.65.035 1.826.46 2.25l.459.46h22.144l.46-.46c.424-.424.46-.6.46-2.25v-1.79h29.98v2.556c0 1.46-.099 2.888-.229 3.329-.304 1.03-1.856 2.583-2.885 2.888-.572.169-4.024.228-13.359.228H57.912l-.46.46c-.611.612-.609 1.47.006 2.086l.466.466 13.165-.053 13.165-.053 1.252-.593c1.741-.826 2.827-1.89 3.67-3.595l.7-1.416.062-4.176.062-4.176-.475-.476-.476-.476H54.914l-.46.46c-.424.425-.46.6-.46 2.251v1.79H36.006v-1.79c0-1.65-.036-1.826-.46-2.25l-.46-.46H7.526V33.902l.46-.46c.424-.425.599-.461 2.248-.461h1.789v.851c0 1.384.373 4.37.772 6.181.853 3.868 2.69 8.13 4.92 11.415.69 1.018 1.232 1.874 1.201 1.9-.03.028-1.168.607-2.529 1.288-1.361.68-2.563 1.401-2.67 1.602s-.195 1.205-.195 2.23v1.865l-.569.236c-1.26.522-2.43 2.417-2.43 3.935 0 2.324 2.176 4.5 4.498 4.5s4.496-2.176 4.496-4.5c0-1.518-1.17-3.413-2.429-3.935-.549-.227-.568-.277-.568-1.43v-1.195l2.263-1.136 2.264-1.136 1.362 1.295c.749.712 1.838 1.654 2.42 2.094l1.06.8v3.473l-.57.235c-.771.32-1.94 1.688-2.209 2.587-.512 1.713-.137 3.132 1.18 4.45 1.785 1.786 4.13 1.884 5.986.248 1.579-1.39 2.007-3.528 1.073-5.359-.411-.806-1.455-1.82-2.076-2.018-.305-.097-.387-.28-.387-.86 0-.406.044-.738.098-.738s.706.306 1.447.68c3.57 1.799 7.33 2.851 11.993 3.356l1.077.117v.9c0 .828-.047.922-.569 1.138-1.259.522-2.429 2.417-2.429 3.935 0 2.324 2.175 4.5 4.497 4.5s4.497-2.176 4.497-4.5c0-1.518-1.17-3.413-2.43-3.935-.521-.216-.568-.31-.568-1.137v-.901l1.077-.117c4.747-.514 8.401-1.549 12.178-3.449.846-.426 1.583-.775 1.637-.775s.098.37.098.822c0 .737-.058.845-.569 1.056-1.26.522-2.43 2.418-2.43 3.936 0 2.323 2.176 4.5 4.498 4.5s4.496-2.177 4.496-4.5c0-1.518-1.17-3.414-2.429-3.936l-.568-.235.004-1.9.004-1.899.792-.56c.436-.308 1.438-1.178 2.228-1.932l1.436-1.371 2.265 1.136 2.264 1.136v1.195c0 1.153-.02 1.203-.568 1.43-1.26.522-2.43 2.417-2.43 3.935 0 2.324 2.176 4.5 4.497 4.5 2.322 0 4.497-2.176 4.497-4.5 0-1.518-1.17-3.413-2.43-3.935l-.568-.236V58.45c0-1.026-.087-2.03-.195-2.23-.107-.202-1.309-.923-2.67-1.603-1.361-.681-2.5-1.26-2.53-1.287s.511-.883 1.203-1.9c2.23-3.286 4.066-7.547 4.919-11.416.4-1.812.772-4.797.772-6.18v-.852h1.789c1.649 0 1.824.036 2.248.46l.46.46v37.164l.46.46c.609.609 1.47.609 2.078 0l.46-.46V52.467c0-13.825-.057-18.789-.223-19.342-.122-.409-.587-1.15-1.032-1.645-1.072-1.193-1.981-1.498-4.465-1.498h-1.905l-.227-1.641c-1.272-9.198-6.59-17.59-14.527-22.922-3.066-2.06-7.81-4.02-11.543-4.769-3.232-.649-7.142-.827-10.234-.466m.22 5.998C27.598 8.104 17.432 20.252 18.087 34.2c.46 9.763 6.061 18.423 14.79 22.862 3.95 2.009 7.419 2.814 12.124 2.816 3.61.001 5.32-.249 8.354-1.221 2.87-.92 7.222-3.334 8.514-4.722.51-.547.471-1.368-.09-1.93-.717-.717-1.281-.59-3.271.74-3.322 2.22-6.39 3.421-10.134 3.97-7.472 1.096-14.81-1.379-20.26-6.833-3.479-3.481-5.609-7.396-6.647-12.213-.48-2.229-.48-7.147 0-9.376 1.047-4.86 3.121-8.667 6.653-12.213 3.422-3.435 7.033-5.432 11.895-6.576 2.33-.55 7.307-.589 9.67-.077 4.864 1.054 8.662 3.126 12.204 6.66 5.45 5.437 7.925 12.783 6.828 20.27-.55 3.746-1.75 6.817-3.967 10.141-1.329 1.992-1.456 2.557-.74 3.274 1.006 1.007 1.85.532 3.506-1.973 1.886-2.854 3.333-6.402 4.034-9.892.493-2.453.446-7.76-.09-10.21-.896-4.1-2.515-7.684-4.914-10.882a27.25 27.25 0 0 0-16.52-10.373c-1.864-.366-6.66-.514-8.488-.261M39.64 16.745c-2.69 1.796-4.946 3.406-5.012 3.578-.381.996.33 2.158 1.32 2.158.357 0 1.852-.887 4.786-2.841L45 16.798l4.267 2.842c2.934 1.954 4.429 2.84 4.786 2.84 1.028 0 1.764-1.293 1.266-2.224-.284-.531-9.798-6.776-10.323-6.776-.29 0-2.304 1.227-5.357 3.265m-9.169 9.197-.46.46v13.16l.46.46c.29.29.674.46 1.04.46.364 0 .748-.17 1.038-.46.45-.45.46-.527.47-3.516l.01-3.055 1.673 3.32c.92 1.826 1.838 3.408 2.04 3.516a1.5 1.5 0 0 0 1.803-.265l.46-.46v-13.16l-.46-.46c-.29-.29-.674-.46-1.039-.46s-.749.17-1.039.46c-.45.45-.46.527-.47 3.516l-.01 3.055-1.673-3.32c-.92-1.826-1.838-3.408-2.039-3.516a1.5 1.5 0 0 0-1.804.265m11.992 0-.46.46v13.16l.46.46c.29.29.674.46 1.039.46s.75-.17 1.039-.46c.443-.443.46-.553.46-3v-2.54h1.788c1.65 0 1.825-.036 2.249-.46.29-.29.46-.675.46-1.04s-.17-.75-.46-1.04c-.424-.424-.6-.46-2.248-.46H45v-3h2.538c2.445 0 2.555-.017 2.998-.46.29-.29.46-.675.46-1.04 0-.366-.17-.75-.46-1.04-.456-.457-.489-.46-4.037-.46s-3.58.003-4.037.46m11.992 0c-.29.29-.46.674-.46 1.04 0 .957.709 1.5 1.959 1.5h1.039v11.08l.46.46c.29.29.674.46 1.039.46s.749-.17 1.039-.46l.46-.46v-11.08h1.039c1.25 0 1.959-.543 1.959-1.5 0-.366-.17-.75-.46-1.04-.456-.457-.49-.46-4.037-.46-3.548 0-3.581.003-4.037.46m-29.98 6c-.93.93-.27 2.54 1.04 2.54.364 0 .749-.17 1.038-.46s.46-.675.46-1.04-.17-.75-.46-1.04-.674-.46-1.039-.46-.749.17-1.039.46m38.974 0c-.93.93-.271 2.54 1.039 2.54.77 0 1.499-.73 1.499-1.5s-.73-1.5-1.5-1.5c-.364 0-.749.17-1.038.46m-28.48 12.002c-.475.474-.592 1.194-.287 1.764.282.528 9.798 6.776 10.319 6.776s10.037-6.248 10.32-6.776c.497-.931-.24-2.225-1.267-2.225-.357 0-1.852.887-4.786 2.841L45 49.166l-4.267-2.842c-4.578-3.048-4.947-3.2-5.766-2.38M16.06 63.445c.93.93.27 2.54-1.04 2.54-.77 0-1.498-.73-1.498-1.5 0-.772.728-1.5 1.499-1.5.365 0 .749.17 1.039.46m59.958 0c.29.29.46.674.46 1.04 0 .365-.17.749-.46 1.04-.29.29-.674.46-1.039.46s-.749-.17-1.039-.46-.46-.675-.46-1.04c0-.366.17-.75.46-1.04s.674-.46 1.04-.46c.364 0 .748.17 1.038.46m-47.592 3c.93.93.271 2.54-1.039 2.54-.77 0-1.499-.73-1.499-1.5 0-.771.729-1.5 1.5-1.5.364 0 .748.17 1.038.46m35.6 0c.29.29.46.674.46 1.04 0 .365-.17.75-.46 1.04s-.673.46-1.038.46-.75-.17-1.04-.46-.46-.675-.46-1.04c0-.366.17-.75.46-1.04s.675-.46 1.04-.46.749.17 1.039.46m-17.987 4.5c.29.29.46.675.46 1.04s-.17.75-.46 1.04c-.93.93-2.538.271-2.538-1.04 0-.77.729-1.5 1.499-1.5.365 0 .75.17 1.039.46M7.986 81.447c-.93.93-.271 2.54 1.039 2.54.77 0 1.499-.729 1.499-1.5 0-.77-.729-1.5-1.5-1.5-.364 0-.748.17-1.038.46m5.996 0c-.93.93-.271 2.54 1.039 2.54.77 0 1.499-.729 1.499-1.5 0-.77-.73-1.5-1.5-1.5-.364 0-.748.17-1.038.46m59.958 0c-.29.29-.46.675-.46 1.04 0 .366.17.75.46 1.04s.674.46 1.04.46c.364 0 .748-.17 1.038-.46s.46-.674.46-1.04c0-.365-.17-.75-.46-1.04s-.674-.46-1.039-.46-.749.17-1.039.46m5.996 0c-.29.29-.46.675-.46 1.04 0 .366.17.75.46 1.04s.674.46 1.04.46c.364 0 .748-.17 1.038-.46s.46-.674.46-1.04c0-.365-.17-.75-.46-1.04s-.674-.46-1.039-.46-.749.17-1.039.46" clip-rule="evenodd"/></g><defs><clipPath id="a"><path fill="#fff" d="M0 0h90v90H0z"/></clipPath></defs></svg>